solid Turret
facet normal 0.0 0.0 1.0
  outer loop
    vertex 204.6712076370504 17.809591406945408 12.999999999999996
    vertex 188.17120763705037 30.309591406945408 12.999999999999996
    vertex 188.17120763705037 17.809591406945408 12.999999999999996
  endloop
endfacet
facet normal 0.0 0.0 1.0
  outer loop
    vertex 188.17120763705037 30.309591406945408 12.999999999999996
    vertex 204.6712076370504 17.809591406945408 12.999999999999996
    vertex 204.6712076370504 30.309591406945408 12.999999999999996
  endloop
endfacet
facet normal 1.0 0.0 0.0
  outer loop
    vertex 204.6712076370504 15.559591406945408 1.9999999999999998
    vertex 204.6712076370504 17.809591406945408 12.999999999999996
    vertex 204.6712076370504 15.559591406945408 27.999999999999993
  endloop
endfacet
facet normal 1.0 0.0 0.0
  outer loop
    vertex 204.6712076370504 17.809591406945408 12.999999999999996
    vertex 204.6712076370504 15.559591406945408 1.9999999999999998
    vertex 204.6712076370504 32.55959140694541 1.9999999999999998
  endloop
endfacet
facet normal 1.0 0.0 0.0
  outer loop
    vertex 204.6712076370504 17.809591406945408 12.999999999999996
    vertex 204.6712076370504 32.55959140694541 1.9999999999999998
    vertex 204.6712076370504 30.309591406945408 12.999999999999996
  endloop
endfacet
facet normal 1.0 0.0 0.0
  outer loop
    vertex 204.6712076370504 30.309591406945408 12.999999999999996
    vertex 204.6712076370504 32.55959140694541 1.9999999999999998
    vertex 204.6712076370504 30.309591406945408 27.999999999999993
  endloop
endfacet
facet normal 1.0 0.0 0.0
  outer loop
    vertex 204.6712076370504 30.309591406945408 27.999999999999993
    vertex 204.6712076370504 32.55959140694541 1.9999999999999998
    vertex 204.6712076370504 32.55959140694541 27.999999999999993
  endloop
endfacet
facet normal 1.0 0.0 0.0
  outer loop
    vertex 204.6712076370504 17.809591406945408 27.999999999999993
    vertex 204.6712076370504 15.559591406945408 27.999999999999993
    vertex 204.6712076370504 17.809591406945408 12.999999999999996
  endloop
endfacet
facet normal -0.0 1.0 -0.0
  outer loop
    vertex 184.6712076370504 32.55959140694541 27.999999999999993
    vertex 194.6712076370504 32.55959140694541 0.0
    vertex 184.6712076370504 32.55959140694541 0.0
  endloop
endfacet
facet normal -0.0 1.0 -0.0
  outer loop
    vertex 194.6712076370504 32.55959140694541 0.0
    vertex 184.6712076370504 32.55959140694541 27.999999999999993
    vertex 194.6712076370504 32.55959140694541 1.9999999999999998
  endloop
endfacet
facet normal -0.0 1.0 -0.0
  outer loop
    vertex 194.6712076370504 32.55959140694541 1.9999999999999998
    vertex 184.6712076370504 32.55959140694541 27.999999999999993
    vertex 204.6712076370504 32.55959140694541 1.9999999999999998
  endloop
endfacet
facet normal -0.0 1.0 -0.0
  outer loop
    vertex 204.6712076370504 32.55959140694541 1.9999999999999998
    vertex 184.6712076370504 32.55959140694541 27.999999999999993
    vertex 204.6712076370504 32.55959140694541 27.999999999999993
  endloop
endfacet
facet normal 0.582518941428008 0.8128171275739661 1.2507108972850916e-15
  outer loop
    vertex 271.17120763705043 35.06792474027872 2.0000000000000293
    vertex 274.67120763705043 32.55959140694541 14.999999999999998
    vertex 274.67120763705043 32.55959140694541 2.000000000000013
  endloop
endfacet
facet normal 0.582518941428008 0.8128171275739661 1.2507108972850916e-15
  outer loop
    vertex 274.67120763705043 32.55959140694541 14.999999999999998
    vertex 271.17120763705043 35.06792474027872 2.0000000000000293
    vertex 271.17120763705043 35.06792474027872 15.000000000000032
  endloop
endfacet
facet normal 0.0 -1.0 0.0
  outer loop
    vertex 204.6712076370504 30.309591406945408 27.999999999999993
    vertex 188.17120763705037 30.309591406945408 12.999999999999996
    vertex 204.6712076370504 30.309591406945408 12.999999999999996
  endloop
endfacet
facet normal 0.0 -1.0 0.0
  outer loop
    vertex 188.17120763705037 30.309591406945408 12.999999999999996
    vertex 204.6712076370504 30.309591406945408 27.999999999999993
    vertex 188.17120763705037 30.309591406945408 27.999999999999993
  endloop
endfacet
facet normal 1.0 0.0 0.0
  outer loop
    vertex 188.17120763705037 30.309591406945408 12.999999999999996
    vertex 188.17120763705037 17.809591406945408 27.999999999999993
    vertex 188.17120763705037 17.809591406945408 12.999999999999996
  endloop
endfacet
facet normal 1.0 0.0 0.0
  outer loop
    vertex 188.17120763705037 17.809591406945408 27.999999999999993
    vertex 188.17120763705037 30.309591406945408 12.999999999999996
    vertex 188.17120763705037 30.309591406945408 27.999999999999993
  endloop
endfacet
facet normal -0.7241379310344827 -0.6896551724137933 0.0
  outer loop
    vertex 194.6712076370504 15.559591406945408 1.9999999999999998
    vertex 224.6712076370504 -15.94040859305459 0.0
    vertex 224.6712076370504 -15.94040859305459 1.9999999999999998
  endloop
endfacet
facet normal -0.7241379310344827 -0.6896551724137933 0.0
  outer loop
    vertex 224.6712076370504 -15.94040859305459 0.0
    vertex 194.6712076370504 15.559591406945408 1.9999999999999998
    vertex 194.6712076370504 15.559591406945408 0.0
  endloop
endfacet
facet normal 0.5825456000158682 -0.8127979485161522 0.0003446593777051183
  outer loop
    vertex 274.67120763705043 15.559591406945442 14.999999999999998
    vertex 271.17120763705043 13.059591406945419 2.0000000000000706
    vertex 274.67120763705043 15.559591406945408 2.000000000000013
  endloop
endfacet
facet normal 0.5825456000158682 -0.8127979485161522 0.0003446593777051183
  outer loop
    vertex 271.17120763705043 13.059591406945419 2.0000000000000706
    vertex 274.67120763705043 15.559591406945442 14.999999999999998
    vertex 271.17120763705043 13.059591406945453 15.000000000000071
  endloop
endfacet
facet normal 0.0 -1.0 0.0
  outer loop
    vertex 204.6712076370504 15.559591406945408 27.999999999999993
    vertex 194.6712076370504 15.559591406945408 1.9999999999999998
    vertex 204.6712076370504 15.559591406945408 1.9999999999999998
  endloop
endfacet
facet normal 0.0 -1.0 0.0
  outer loop
    vertex 194.6712076370504 15.559591406945408 1.9999999999999998
    vertex 184.6712076370504 15.559591406945408 0.0
    vertex 194.6712076370504 15.559591406945408 0.0
  endloop
endfacet
facet normal 0.0 -1.0 0.0
  outer loop
    vertex 184.6712076370504 15.559591406945408 0.0
    vertex 194.6712076370504 15.559591406945408 1.9999999999999998
    vertex 184.6712076370504 15.559591406945408 27.999999999999993
  endloop
endfacet
facet normal 0.0 -1.0 0.0
  outer loop
    vertex 184.6712076370504 15.559591406945408 27.999999999999993
    vertex 194.6712076370504 15.559591406945408 1.9999999999999998
    vertex 204.6712076370504 15.559591406945408 27.999999999999993
  endloop
endfacet
facet normal -1.0 0.0 0.0
  outer loop
    vertex 184.6712076370504 32.55959140694541 27.999999999999993
    vertex 184.6712076370504 15.559591406945408 0.0
    vertex 184.6712076370504 15.559591406945408 27.999999999999993
  endloop
endfacet
facet normal -1.0 0.0 0.0
  outer loop
    vertex 184.6712076370504 15.559591406945408 0.0
    vertex 184.6712076370504 32.55959140694541 27.999999999999993
    vertex 184.6712076370504 32.55959140694541 0.0
  endloop
endfacet
facet normal 1.205711938232713e-16 -9.30080828980657e-20 -1.0
  outer loop
    vertex 194.6712076370504 32.55959140694541 0.0
    vertex 184.6712076370504 15.559591406945408 0.0
    vertex 184.6712076370504 32.55959140694541 0.0
  endloop
endfacet
facet normal 1.205711938232713e-16 -9.30080828980657e-20 -1.0
  outer loop
    vertex 184.6712076370504 15.559591406945408 0.0
    vertex 194.6712076370504 32.55959140694541 0.0
    vertex 194.6712076370504 15.559591406945408 0.0
  endloop
endfacet
facet normal 1.205711938232713e-16 -9.30080828980657e-20 -1.0
  outer loop
    vertex 194.6712076370504 15.559591406945408 0.0
    vertex 194.6712076370504 32.55959140694541 0.0
    vertex 224.6712076370504 64.0595914069454 -7.944634181046724e-18
  endloop
endfacet
facet normal 1.205711938232713e-16 -9.30080828980657e-20 -1.0
  outer loop
    vertex 194.6712076370504 15.559591406945408 0.0
    vertex 224.6712076370504 64.0595914069454 -7.944634181046724e-18
    vertex 224.6712076370504 -15.94040859305459 0.0
  endloop
endfacet
facet normal 1.205711938232713e-16 -9.30080828980657e-20 -1.0
  outer loop
    vertex 224.6712076370504 -15.94040859305459 0.0
    vertex 224.6712076370504 64.0595914069454 -7.944634181046724e-18
    vertex 244.67120763705043 64.0595914069454 -1.588926836209345e-17
  endloop
endfacet
facet normal 1.205711938232713e-16 -9.30080828980657e-20 -1.0
  outer loop
    vertex 224.6712076370504 -15.94040859305459 0.0
    vertex 244.67120763705043 64.0595914069454 -1.588926836209345e-17
    vertex 244.67120763705037 -15.94040859305459 -7.944634181046724e-18
  endloop
endfacet
facet normal 1.205711938232713e-16 -9.30080828980657e-20 -1.0
  outer loop
    vertex 244.67120763705037 -15.94040859305459 -7.944634181046724e-18
    vertex 244.67120763705043 64.0595914069454 -1.588926836209345e-17
    vertex 274.67120763705043 15.559591406945408 1.3026455713421932e-14
  endloop
endfacet
facet normal 1.205711938232713e-16 -9.30080828980657e-20 -1.0
  outer loop
    vertex 274.67120763705043 15.559591406945408 1.3026455713421932e-14
    vertex 244.67120763705043 64.0595914069454 -1.588926836209345e-17
    vertex 274.67120763705043 32.55959140694541 1.3026455713421932e-14
  endloop
endfacet
facet normal 0.0 1.0 0.0
  outer loop
    vertex 188.17120763705037 17.809591406945408 27.999999999999993
    vertex 204.6712076370504 17.809591406945408 12.999999999999996
    vertex 188.17120763705037 17.809591406945408 12.999999999999996
  endloop
endfacet
facet normal 0.0 1.0 0.0
  outer loop
    vertex 204.6712076370504 17.809591406945408 12.999999999999996
    vertex 188.17120763705037 17.809591406945408 27.999999999999993
    vertex 204.6712076370504 17.809591406945408 27.999999999999993
  endloop
endfacet
facet normal -5.102732513346449e-16 1.2504897623724428e-16 1.0
  outer loop
    vertex 224.6712076370504 -15.94040859305459 1.9999999999999998
    vertex 204.6712076370504 15.559591406945408 1.9999999999999998
    vertex 194.6712076370504 15.559591406945408 1.9999999999999998
  endloop
endfacet
facet normal -5.102732513346449e-16 1.2504897623724428e-16 1.0
  outer loop
    vertex 204.6712076370504 15.559591406945408 1.9999999999999998
    vertex 224.6712076370504 -15.94040859305459 1.9999999999999998
    vertex 204.6712076370504 32.55959140694541 1.9999999999999998
  endloop
endfacet
facet normal -5.102732513346449e-16 1.2504897623724428e-16 1.0
  outer loop
    vertex 204.6712076370504 32.55959140694541 1.9999999999999998
    vertex 224.6712076370504 64.0595914069454 1.9999999999999998
    vertex 194.6712076370504 32.55959140694541 1.9999999999999998
  endloop
endfacet
facet normal -5.102732513346449e-16 1.2504897623724428e-16 1.0
  outer loop
    vertex 224.6712076370504 64.0595914069454 1.9999999999999998
    vertex 204.6712076370504 32.55959140694541 1.9999999999999998
    vertex 224.6712076370504 -15.94040859305459 1.9999999999999998
  endloop
endfacet
facet normal -5.102732513346449e-16 1.2504897623724428e-16 1.0
  outer loop
    vertex 224.6712076370504 64.0595914069454 1.9999999999999998
    vertex 224.6712076370504 -15.94040859305459 1.9999999999999998
    vertex 244.67120763705037 -15.94040859305459 1.9999999999999998
  endloop
endfacet
facet normal -5.102732513346449e-16 1.2504897623724428e-16 1.0
  outer loop
    vertex 224.6712076370504 64.0595914069454 1.9999999999999998
    vertex 244.67120763705037 -15.94040859305459 1.9999999999999998
    vertex 244.67120763705043 64.0595914069454 1.9999999999999998
  endloop
endfacet
facet normal -5.102732513346449e-16 1.2504897623724428e-16 1.0
  outer loop
    vertex 244.67120763705043 64.0595914069454 1.9999999999999998
    vertex 244.67120763705037 -15.94040859305459 1.9999999999999998
    vertex 262.17120763705043 13.059591406945419 2.0000000000000706
  endloop
endfacet
facet normal -5.102732513346449e-16 1.2504897623724428e-16 1.0
  outer loop
    vertex 262.17120763705043 13.059591406945419 2.0000000000000706
    vertex 244.67120763705037 -15.94040859305459 1.9999999999999998
    vertex 271.17120763705043 13.059591406945419 2.0000000000000706
  endloop
endfacet
facet normal -5.102732513346449e-16 1.2504897623724428e-16 1.0
  outer loop
    vertex 271.17120763705043 13.059591406945419 2.0000000000000706
    vertex 244.67120763705037 -15.94040859305459 1.9999999999999998
    vertex 274.67120763705043 15.559591406945408 2.000000000000013
  endloop
endfacet
facet normal -5.102732513346449e-16 1.2504897623724428e-16 1.0
  outer loop
    vertex 244.67120763705043 64.0595914069454 1.9999999999999998
    vertex 271.17120763705043 35.06792474027872 2.0000000000000293
    vertex 274.67120763705043 32.55959140694541 2.000000000000013
  endloop
endfacet
facet normal -5.102732513346449e-16 1.2504897623724428e-16 1.0
  outer loop
    vertex 271.17120763705043 35.06792474027872 2.0000000000000293
    vertex 244.67120763705043 64.0595914069454 1.9999999999999998
    vertex 262.17120763705043 35.06792474027872 2.0000000000000293
  endloop
endfacet
facet normal -5.102732513346449e-16 1.2504897623724428e-16 1.0
  outer loop
    vertex 262.17120763705043 35.06792474027872 2.0000000000000293
    vertex 244.67120763705043 64.0595914069454 1.9999999999999998
    vertex 262.17120763705043 13.059591406945419 2.0000000000000706
  endloop
endfacet
facet normal 0.0 0.0 1.0
  outer loop
    vertex 184.6712076370504 15.559591406945408 27.999999999999993
    vertex 188.17120763705037 17.809591406945408 27.999999999999993
    vertex 184.6712076370504 32.55959140694541 27.999999999999993
  endloop
endfacet
facet normal 0.0 0.0 1.0
  outer loop
    vertex 188.17120763705037 17.809591406945408 27.999999999999993
    vertex 184.6712076370504 15.559591406945408 27.999999999999993
    vertex 204.6712076370504 15.559591406945408 27.999999999999993
  endloop
endfacet
facet normal 0.0 0.0 1.0
  outer loop
    vertex 188.17120763705037 17.809591406945408 27.999999999999993
    vertex 204.6712076370504 15.559591406945408 27.999999999999993
    vertex 204.6712076370504 17.809591406945408 27.999999999999993
  endloop
endfacet
facet normal 0.0 0.0 1.0
  outer loop
    vertex 184.6712076370504 32.55959140694541 27.999999999999993
    vertex 188.17120763705037 30.309591406945408 27.999999999999993
    vertex 204.6712076370504 32.55959140694541 27.999999999999993
  endloop
endfacet
facet normal 0.0 0.0 1.0
  outer loop
    vertex 188.17120763705037 30.309591406945408 27.999999999999993
    vertex 184.6712076370504 32.55959140694541 27.999999999999993
    vertex 188.17120763705037 17.809591406945408 27.999999999999993
  endloop
endfacet
facet normal 0.0 0.0 1.0
  outer loop
    vertex 204.6712076370504 32.55959140694541 27.999999999999993
    vertex 188.17120763705037 30.309591406945408 27.999999999999993
    vertex 204.6712076370504 30.309591406945408 27.999999999999993
  endloop
endfacet
facet normal 0.7241379310344819 -0.6896551724137941 9.648053428994387e-17
  outer loop
    vertex 274.67120763705043 15.559591406945408 1.3026455713421932e-14
    vertex 244.67120763705037 -15.94040859305459 1.9999999999999998
    vertex 244.67120763705037 -15.94040859305459 -7.944634181046724e-18
  endloop
endfacet
facet normal 0.7241379310344819 -0.6896551724137941 9.648053428994387e-17
  outer loop
    vertex 244.67120763705037 -15.94040859305459 1.9999999999999998
    vertex 274.67120763705043 15.559591406945408 1.3026455713421932e-14
    vertex 274.67120763705043 15.559591406945408 2.000000000000013
  endloop
endfacet
facet normal -8.827699585212058e-35 -1.0 -2.2223048623867464e-16
  outer loop
    vertex 244.67120763705037 -15.94040859305459 1.9999999999999998
    vertex 224.6712076370504 -15.94040859305459 0.0
    vertex 244.67120763705037 -15.94040859305459 -7.944634181046724e-18
  endloop
endfacet
facet normal -8.827699585212058e-35 -1.0 -2.2223048623867464e-16
  outer loop
    vertex 224.6712076370504 -15.94040859305459 0.0
    vertex 244.67120763705037 -15.94040859305459 1.9999999999999998
    vertex 224.6712076370504 -15.94040859305459 1.9999999999999998
  endloop
endfacet
facet normal -0.7241379310344825 0.6896551724137933 0.0
  outer loop
    vertex 224.6712076370504 64.0595914069454 1.9999999999999998
    vertex 194.6712076370504 32.55959140694541 0.0
    vertex 194.6712076370504 32.55959140694541 1.9999999999999998
  endloop
endfacet
facet normal -0.7241379310344825 0.6896551724137933 0.0
  outer loop
    vertex 194.6712076370504 32.55959140694541 0.0
    vertex 224.6712076370504 64.0595914069454 1.9999999999999998
    vertex 224.6712076370504 64.0595914069454 -7.944634181046724e-18
  endloop
endfacet
facet normal -8.673316449562497e-35 1.0 -2.1834401060917753e-16
  outer loop
    vertex 224.6712076370504 64.0595914069454 -7.944634181046724e-18
    vertex 244.67120763705043 64.0595914069454 1.9999999999999998
    vertex 244.67120763705043 64.0595914069454 -1.588926836209345e-17
  endloop
endfacet
facet normal -8.673316449562497e-35 1.0 -2.1834401060917753e-16
  outer loop
    vertex 244.67120763705043 64.0595914069454 1.9999999999999998
    vertex 224.6712076370504 64.0595914069454 -7.944634181046724e-18
    vertex 224.6712076370504 64.0595914069454 1.9999999999999998
  endloop
endfacet
facet normal 0.7241379310344824 0.6896551724137936 5.016987783068249e-16
  outer loop
    vertex 244.67120763705043 64.0595914069454 -1.588926836209345e-17
    vertex 274.67120763705043 32.55959140694541 2.000000000000013
    vertex 274.67120763705043 32.55959140694541 1.3026455713421932e-14
  endloop
endfacet
facet normal 0.7241379310344824 0.6896551724137936 5.016987783068249e-16
  outer loop
    vertex 274.67120763705043 32.55959140694541 2.000000000000013
    vertex 244.67120763705043 64.0595914069454 -1.588926836209345e-17
    vertex 244.67120763705043 64.0595914069454 1.9999999999999998
  endloop
endfacet
facet normal 1.6114094185986578e-15 -1.0 1.1279865930191613e-14
  outer loop
    vertex 271.17120763705043 33.059591406945344 1.000000000000069
    vertex 264.17120763705043 33.0595914069454 14.999999999999975
    vertex 264.17120763705043 33.05959140694534 0.9999999999999866
  endloop
endfacet
facet normal 1.6114094185986578e-15 -1.0 1.1279865930191613e-14
  outer loop
    vertex 264.17120763705043 33.0595914069454 14.999999999999975
    vertex 271.17120763705043 33.059591406945344 1.000000000000069
    vertex 271.17120763705043 33.059591406945415 15.00000000000006
  endloop
endfacet
facet normal -4.42962338310042e-46 -1.0 2.255973186038319e-15
  outer loop
    vertex 271.17120763705043 13.059591406945453 15.000000000000071
    vertex 262.17120763705043 13.059591406945419 2.0000000000000706
    vertex 271.17120763705043 13.059591406945419 2.0000000000000706
  endloop
endfacet
facet normal -4.42962338310042e-46 -1.0 2.255973186038319e-15
  outer loop
    vertex 262.17120763705043 13.059591406945419 2.0000000000000706
    vertex 271.17120763705043 13.059591406945453 15.000000000000071
    vertex 262.17120763705043 13.059591406945453 15.000000000000071
  endloop
endfacet
facet normal -0.0 1.0 -0.0
  outer loop
    vertex 262.17120763705043 35.06792474027872 15.000000000000032
    vertex 271.17120763705043 35.06792474027872 2.0000000000000293
    vertex 262.17120763705043 35.06792474027872 2.0000000000000293
  endloop
endfacet
facet normal -0.0 1.0 -0.0
  outer loop
    vertex 271.17120763705043 35.06792474027872 2.0000000000000293
    vertex 262.17120763705043 35.06792474027872 15.000000000000032
    vertex 271.17120763705043 35.06792474027872 15.000000000000032
  endloop
endfacet
facet normal 3.2102840355597168e-15 1.4307874281746532e-15 1.0
  outer loop
    vertex 262.17120763705043 13.059591406945453 15.000000000000071
    vertex 264.17120763705043 15.059591406945442 14.999999999999986
    vertex 262.17120763705043 35.06792474027872 15.000000000000032
  endloop
endfacet
facet normal 3.2102840355597168e-15 1.4307874281746532e-15 1.0
  outer loop
    vertex 264.17120763705043 15.059591406945442 14.999999999999986
    vertex 262.17120763705043 13.059591406945453 15.000000000000071
    vertex 271.17120763705043 13.059591406945453 15.000000000000071
  endloop
endfacet
facet normal 3.2102840355597168e-15 1.4307874281746532e-15 1.0
  outer loop
    vertex 264.17120763705043 15.059591406945442 14.999999999999986
    vertex 271.17120763705043 13.059591406945453 15.000000000000071
    vertex 271.17120763705043 15.059591406945454 15.000000000000071
  endloop
endfacet
facet normal 3.2102840355597168e-15 1.4307874281746532e-15 1.0
  outer loop
    vertex 271.17120763705043 15.059591406945454 15.000000000000071
    vertex 271.17120763705043 13.059591406945453 15.000000000000071
    vertex 274.67120763705043 15.559591406945442 14.999999999999998
  endloop
endfacet
facet normal 3.2102840355597168e-15 1.4307874281746532e-15 1.0
  outer loop
    vertex 271.17120763705043 15.059591406945454 15.000000000000071
    vertex 274.67120763705043 15.559591406945442 14.999999999999998
    vertex 271.17120763705043 33.059591406945415 15.00000000000006
  endloop
endfacet
facet normal 3.2102840355597168e-15 1.4307874281746532e-15 1.0
  outer loop
    vertex 271.17120763705043 33.059591406945415 15.00000000000006
    vertex 274.67120763705043 15.559591406945442 14.999999999999998
    vertex 271.17120763705043 35.06792474027872 15.000000000000032
  endloop
endfacet
facet normal 3.2102840355597168e-15 1.4307874281746532e-15 1.0
  outer loop
    vertex 271.17120763705043 35.06792474027872 15.000000000000032
    vertex 274.67120763705043 15.559591406945442 14.999999999999998
    vertex 274.67120763705043 32.55959140694541 14.999999999999998
  endloop
endfacet
facet normal 3.2102840355597168e-15 1.4307874281746532e-15 1.0
  outer loop
    vertex 262.17120763705043 35.06792474027872 15.000000000000032
    vertex 264.17120763705043 33.0595914069454 14.999999999999975
    vertex 271.17120763705043 35.06792474027872 15.000000000000032
  endloop
endfacet
facet normal 3.2102840355597168e-15 1.4307874281746532e-15 1.0
  outer loop
    vertex 264.17120763705043 33.0595914069454 14.999999999999975
    vertex 262.17120763705043 35.06792474027872 15.000000000000032
    vertex 264.17120763705043 15.059591406945442 14.999999999999986
  endloop
endfacet
facet normal 3.2102840355597168e-15 1.4307874281746532e-15 1.0
  outer loop
    vertex 271.17120763705043 35.06792474027872 15.000000000000032
    vertex 264.17120763705043 33.0595914069454 14.999999999999975
    vertex 271.17120763705043 33.059591406945415 15.00000000000006
  endloop
endfacet
facet normal 1.0 -0.0 -0.0
  outer loop
    vertex 274.67120763705043 32.55959140694541 1.3026455713421932e-14
    vertex 274.67120763705043 15.559591406945408 2.000000000000013
    vertex 274.67120763705043 15.559591406945408 1.3026455713421932e-14
  endloop
endfacet
facet normal 1.0 -0.0 -0.0
  outer loop
    vertex 274.67120763705043 15.559591406945408 2.000000000000013
    vertex 274.67120763705043 32.55959140694541 1.3026455713421932e-14
    vertex 274.67120763705043 15.559591406945442 14.999999999999998
  endloop
endfacet
facet normal 1.0 -0.0 -0.0
  outer loop
    vertex 274.67120763705043 15.559591406945442 14.999999999999998
    vertex 274.67120763705043 32.55959140694541 1.3026455713421932e-14
    vertex 274.67120763705043 32.55959140694541 14.999999999999998
  endloop
endfacet
facet normal 1.0 -0.0 -0.0
  outer loop
    vertex 274.67120763705043 32.55959140694541 14.999999999999998
    vertex 274.67120763705043 32.55959140694541 1.3026455713421932e-14
    vertex 274.67120763705043 32.55959140694541 2.000000000000013
  endloop
endfacet
facet normal -1.0 0.0 0.0
  outer loop
    vertex 262.17120763705043 13.059591406945453 15.000000000000071
    vertex 262.17120763705043 35.06792474027872 2.0000000000000293
    vertex 262.17120763705043 13.059591406945419 2.0000000000000706
  endloop
endfacet
facet normal -1.0 0.0 0.0
  outer loop
    vertex 262.17120763705043 35.06792474027872 2.0000000000000293
    vertex 262.17120763705043 13.059591406945453 15.000000000000071
    vertex 262.17120763705043 35.06792474027872 15.000000000000032
  endloop
endfacet
facet normal -1.1783431373503661e-14 7.833240229299757e-17 1.0
  outer loop
    vertex 271.17120763705043 15.059591406945437 1.0000000000000704
    vertex 264.17120763705043 33.05959140694534 0.9999999999999866
    vertex 264.17120763705043 15.059591406945426 0.9999999999999879
  endloop
endfacet
facet normal -1.1783431373503661e-14 7.833240229299757e-17 1.0
  outer loop
    vertex 264.17120763705043 33.05959140694534 0.9999999999999866
    vertex 271.17120763705043 15.059591406945437 1.0000000000000704
    vertex 271.17120763705043 33.059591406945344 1.000000000000069
  endloop
endfacet
facet normal -1.6114094185988024e-15 1.0 9.39988827515966e-16
  outer loop
    vertex 264.17120763705043 15.059591406945442 14.999999999999986
    vertex 271.17120763705043 15.059591406945437 1.0000000000000704
    vertex 264.17120763705043 15.059591406945426 0.9999999999999879
  endloop
endfacet
facet normal -1.6114094185988024e-15 1.0 9.39988827515966e-16
  outer loop
    vertex 271.17120763705043 15.059591406945437 1.0000000000000704
    vertex 264.17120763705043 15.059591406945442 14.999999999999986
    vertex 271.17120763705043 15.059591406945454 15.000000000000071
  endloop
endfacet
facet normal -1.0 0.0 0.0
  outer loop
    vertex 271.17120763705043 15.059591406945454 15.000000000000071
    vertex 271.17120763705043 33.059591406945344 1.000000000000069
    vertex 271.17120763705043 15.059591406945437 1.0000000000000704
  endloop
endfacet
facet normal -1.0 0.0 0.0
  outer loop
    vertex 271.17120763705043 33.059591406945344 1.000000000000069
    vertex 271.17120763705043 15.059591406945454 15.000000000000071
    vertex 271.17120763705043 33.059591406945415 15.00000000000006
  endloop
endfacet
facet normal 1.0 -0.0 -0.0
  outer loop
    vertex 264.17120763705043 33.05959140694534 0.9999999999999866
    vertex 264.17120763705043 15.059591406945442 14.999999999999986
    vertex 264.17120763705043 15.059591406945426 0.9999999999999879
  endloop
endfacet
facet normal 1.0 -0.0 -0.0
  outer loop
    vertex 264.17120763705043 15.059591406945442 14.999999999999986
    vertex 264.17120763705043 33.05959140694534 0.9999999999999866
    vertex 264.17120763705043 33.0595914069454 14.999999999999975
  endloop
endfacet
endsolid Turret
