solid Turret
facet normal -0.5825189414280084 -0.8128171275739657 0.0
  outer loop
    vertex 72.30399237273312 -4.3229036425102105 1.9999999999999998
    vertex 42.3039923727331 17.17709635748979 0.0
    vertex 72.30399237273312 -4.3229036425102105 0.0
  endloop
endfacet
facet normal -0.5825189414280084 -0.8128171275739657 0.0
  outer loop
    vertex 42.3039923727331 17.17709635748979 0.0
    vertex 72.30399237273312 -4.3229036425102105 1.9999999999999998
    vertex 42.3039923727331 17.17709635748979 1.9999999999999998
  endloop
endfacet
facet normal 0.582518941428008 0.8128171275739661 6.511820989895017e-15
  outer loop
    vertex 89.2807365587796 50.67709635748978 1.9999999999999998
    vertex 112.30399237273315 34.17709635748978 1.302937471209834e-14
    vertex 89.2807365587796 50.67709635748978 0.0
  endloop
endfacet
facet normal 0.582518941428008 0.8128171275739661 6.511820989895017e-15
  outer loop
    vertex 112.30399237273315 34.17709635748978 1.302937471209834e-14
    vertex 89.2807365587796 50.67709635748978 1.9999999999999998
    vertex 108.80399237273312 36.685429690823106 2.0000000000000293
  endloop
endfacet
facet normal 0.582518941428008 0.8128171275739661 6.511820989895017e-15
  outer loop
    vertex 112.30399237273315 34.17709635748978 1.302937471209834e-14
    vertex 108.80399237273312 36.685429690823106 2.0000000000000293
    vertex 112.3039923727331 34.17709635748978 6.999999999999998
  endloop
endfacet
facet normal 0.582518941428008 0.8128171275739661 6.511820989895017e-15
  outer loop
    vertex 112.3039923727331 34.17709635748978 6.999999999999998
    vertex 108.80399237273312 36.685429690823106 2.0000000000000293
    vertex 108.80399237273312 36.685429690823106 7.000000000000028
  endloop
endfacet
facet normal 0.0 -1.0 0.0
  outer loop
    vertex 82.30399237273312 -4.3229036425102105 1.9999999999999998
    vertex 72.30399237273312 -4.3229036425102105 0.0
    vertex 82.30399237273312 -4.3229036425102105 0.0
  endloop
endfacet
facet normal 0.0 -1.0 0.0
  outer loop
    vertex 72.30399237273312 -4.3229036425102105 0.0
    vertex 82.30399237273312 -4.3229036425102105 1.9999999999999998
    vertex 72.30399237273312 -4.3229036425102105 1.9999999999999998
  endloop
endfacet
facet normal 0.5825189414280084 -0.812817127573966 6.360206997115138e-15
  outer loop
    vertex 112.30399237273315 17.17709635748978 1.302937471209834e-14
    vertex 82.30399237273312 -4.3229036425102105 1.9999999999999998
    vertex 82.30399237273312 -4.3229036425102105 0.0
  endloop
endfacet
facet normal 0.5825189414280084 -0.812817127573966 6.360206997115138e-15
  outer loop
    vertex 82.30399237273312 -4.3229036425102105 1.9999999999999998
    vertex 112.30399237273315 17.17709635748978 1.302937471209834e-14
    vertex 108.80399237273312 14.677096357489795 2.0000000000000706
  endloop
endfacet
facet normal 0.5825189414280084 -0.812817127573966 6.360206997115138e-15
  outer loop
    vertex 108.80399237273312 14.677096357489795 2.0000000000000706
    vertex 112.30399237273315 17.17709635748978 1.302937471209834e-14
    vertex 112.3039923727331 17.177096357489795 6.999999999999998
  endloop
endfacet
facet normal 0.5825189414280084 -0.812817127573966 6.360206997115138e-15
  outer loop
    vertex 108.80399237273312 14.677096357489795 2.0000000000000706
    vertex 112.3039923727331 17.177096357489795 6.999999999999998
    vertex 108.80399237273312 14.677096357489809 7.000000000000069
  endloop
endfacet
facet normal -1.0 -1.6710912489172757e-15 -3.222818837197596e-15
  outer loop
    vertex 108.80399237273312 34.6770963574898 7.000000000000058
    vertex 108.80399237273313 16.67709635748981 1.0000000000000704
    vertex 108.80399237273312 16.67709635748981 7.000000000000069
  endloop
endfacet
facet normal -1.0 -1.6710912489172757e-15 -3.222818837197596e-15
  outer loop
    vertex 108.80399237273313 16.67709635748981 1.0000000000000704
    vertex 108.80399237273312 34.6770963574898 7.000000000000058
    vertex 108.80399237273309 34.67709635748973 1.0000000000000693
  endloop
endfacet
facet normal 1.0 1.6710912489172766e-15 3.222818837197598e-15
  outer loop
    vertex 101.8039923727331 16.6770963574898 0.9999999999999881
    vertex 101.80399237273308 34.67709635748978 6.999999999999974
    vertex 101.80399237273308 16.677096357489795 6.999999999999988
  endloop
endfacet
facet normal 1.0 1.6710912489172766e-15 3.222818837197598e-15
  outer loop
    vertex 101.80399237273308 34.67709635748978 6.999999999999974
    vertex 101.8039923727331 16.6770963574898 0.9999999999999881
    vertex 101.80399237273306 34.67709635748972 0.9999999999999867
  endloop
endfacet
facet normal -1.1770842237420855e-14 7.343662714965553e-17 1.0
  outer loop
    vertex 101.8039923727331 16.6770963574898 0.9999999999999881
    vertex 108.80399237273309 34.67709635748973 1.0000000000000693
    vertex 101.80399237273306 34.67709635748972 0.9999999999999867
  endloop
endfacet
facet normal -1.1770842237420855e-14 7.343662714965553e-17 1.0
  outer loop
    vertex 108.80399237273309 34.67709635748973 1.0000000000000693
    vertex 101.8039923727331 16.6770963574898 0.9999999999999881
    vertex 108.80399237273313 16.67709635748981 1.0000000000000704
  endloop
endfacet
facet normal -7.903659388149833e-16 3.0564398600672303e-16 1.0
  outer loop
    vertex 65.32724818668657 50.67709635748978 1.9999999999999998
    vertex 42.3039923727331 34.17709635748979 1.9999999999999998
    vertex 52.30399237273309 34.17709635748979 1.9999999999999998
  endloop
endfacet
facet normal -7.903659388149833e-16 3.0564398600672303e-16 1.0
  outer loop
    vertex 72.30399237273312 -4.3229036425102105 1.9999999999999998
    vertex 52.30399237273309 17.17709635748979 1.9999999999999998
    vertex 42.3039923727331 17.17709635748979 1.9999999999999998
  endloop
endfacet
facet normal -7.903659388149833e-16 3.0564398600672303e-16 1.0
  outer loop
    vertex 52.30399237273309 17.17709635748979 1.9999999999999998
    vertex 72.30399237273312 -4.3229036425102105 1.9999999999999998
    vertex 52.30399237273309 34.17709635748979 1.9999999999999998
  endloop
endfacet
facet normal -7.903659388149833e-16 3.0564398600672303e-16 1.0
  outer loop
    vertex 52.30399237273309 34.17709635748979 1.9999999999999998
    vertex 72.30399237273312 -4.3229036425102105 1.9999999999999998
    vertex 65.32724818668657 50.67709635748978 1.9999999999999998
  endloop
endfacet
facet normal -7.903659388149833e-16 3.0564398600672303e-16 1.0
  outer loop
    vertex 65.32724818668657 50.67709635748978 1.9999999999999998
    vertex 72.30399237273312 -4.3229036425102105 1.9999999999999998
    vertex 72.30399237273309 55.67709635748978 1.9999999999999998
  endloop
endfacet
facet normal -7.903659388149833e-16 3.0564398600672303e-16 1.0
  outer loop
    vertex 72.30399237273309 55.67709635748978 1.9999999999999998
    vertex 72.30399237273312 -4.3229036425102105 1.9999999999999998
    vertex 82.30399237273309 55.67709635748978 1.9999999999999998
  endloop
endfacet
facet normal -7.903659388149833e-16 3.0564398600672303e-16 1.0
  outer loop
    vertex 82.30399237273309 55.67709635748978 1.9999999999999998
    vertex 72.30399237273312 -4.3229036425102105 1.9999999999999998
    vertex 82.30399237273312 -4.3229036425102105 1.9999999999999998
  endloop
endfacet
facet normal -7.903659388149833e-16 3.0564398600672303e-16 1.0
  outer loop
    vertex 82.30399237273309 55.67709635748978 1.9999999999999998
    vertex 82.30399237273312 -4.3229036425102105 1.9999999999999998
    vertex 89.2807365587796 50.67709635748978 1.9999999999999998
  endloop
endfacet
facet normal -7.903659388149833e-16 3.0564398600672303e-16 1.0
  outer loop
    vertex 89.2807365587796 50.67709635748978 1.9999999999999998
    vertex 82.30399237273312 -4.3229036425102105 1.9999999999999998
    vertex 99.80399237273312 14.677096357489795 2.0000000000000706
  endloop
endfacet
facet normal -7.903659388149833e-16 3.0564398600672303e-16 1.0
  outer loop
    vertex 99.80399237273312 14.677096357489795 2.0000000000000706
    vertex 82.30399237273312 -4.3229036425102105 1.9999999999999998
    vertex 108.80399237273312 14.677096357489795 2.0000000000000706
  endloop
endfacet
facet normal -7.903659388149833e-16 3.0564398600672303e-16 1.0
  outer loop
    vertex 89.2807365587796 50.67709635748978 1.9999999999999998
    vertex 99.80399237273312 36.685429690823106 2.0000000000000293
    vertex 108.80399237273312 36.685429690823106 2.0000000000000293
  endloop
endfacet
facet normal -7.903659388149833e-16 3.0564398600672303e-16 1.0
  outer loop
    vertex 99.80399237273312 36.685429690823106 2.0000000000000293
    vertex 89.2807365587796 50.67709635748978 1.9999999999999998
    vertex 99.80399237273312 14.677096357489795 2.0000000000000706
  endloop
endfacet
facet normal 2.4171141278980206e-15 -1.0 1.4502684767389214e-14
  outer loop
    vertex 108.80399237273309 34.67709635748973 1.0000000000000693
    vertex 101.80399237273308 34.67709635748978 6.999999999999974
    vertex 101.80399237273306 34.67709635748972 0.9999999999999867
  endloop
endfacet
facet normal 2.4171141278980206e-15 -1.0 1.4502684767389214e-14
  outer loop
    vertex 101.80399237273308 34.67709635748978 6.999999999999974
    vertex 108.80399237273309 34.67709635748973 1.0000000000000693
    vertex 108.80399237273312 34.6770963574898 7.000000000000058
  endloop
endfacet
facet normal 0.0 0.0 1.0
  outer loop
    vertex 52.30399237273309 19.427096357489788 7.999999999999998
    vertex 35.8039923727331 31.927096357489788 7.999999999999998
    vertex 35.8039923727331 19.427096357489788 7.999999999999998
  endloop
endfacet
facet normal 0.0 0.0 1.0
  outer loop
    vertex 35.8039923727331 31.927096357489788 7.999999999999998
    vertex 52.30399237273309 19.427096357489788 7.999999999999998
    vertex 52.30399237273309 31.927096357489788 7.999999999999998
  endloop
endfacet
facet normal 0.0 -1.0 0.0
  outer loop
    vertex 52.30399237273309 17.17709635748979 22.999999999999996
    vertex 42.3039923727331 17.17709635748979 1.9999999999999998
    vertex 52.30399237273309 17.17709635748979 1.9999999999999998
  endloop
endfacet
facet normal 0.0 -1.0 0.0
  outer loop
    vertex 42.3039923727331 17.17709635748979 1.9999999999999998
    vertex 32.3039923727331 17.17709635748979 0.0
    vertex 42.3039923727331 17.17709635748979 0.0
  endloop
endfacet
facet normal 0.0 -1.0 0.0
  outer loop
    vertex 32.3039923727331 17.17709635748979 0.0
    vertex 42.3039923727331 17.17709635748979 1.9999999999999998
    vertex 32.3039923727331 17.17709635748979 22.999999999999996
  endloop
endfacet
facet normal 0.0 -1.0 0.0
  outer loop
    vertex 32.3039923727331 17.17709635748979 22.999999999999996
    vertex 42.3039923727331 17.17709635748979 1.9999999999999998
    vertex 52.30399237273309 17.17709635748979 22.999999999999996
  endloop
endfacet
facet normal 0.0 1.0 0.0
  outer loop
    vertex 35.8039923727331 19.427096357489788 22.999999999999996
    vertex 52.30399237273309 19.427096357489788 7.999999999999998
    vertex 35.8039923727331 19.427096357489788 7.999999999999998
  endloop
endfacet
facet normal 0.0 1.0 0.0
  outer loop
    vertex 52.30399237273309 19.427096357489788 7.999999999999998
    vertex 35.8039923727331 19.427096357489788 22.999999999999996
    vertex 52.30399237273309 19.427096357489788 22.999999999999996
  endloop
endfacet
facet normal 0.0 0.0 1.0
  outer loop
    vertex 32.3039923727331 17.17709635748979 22.999999999999996
    vertex 35.8039923727331 19.427096357489788 22.999999999999996
    vertex 32.3039923727331 34.17709635748979 22.999999999999996
  endloop
endfacet
facet normal 0.0 0.0 1.0
  outer loop
    vertex 35.8039923727331 19.427096357489788 22.999999999999996
    vertex 32.3039923727331 17.17709635748979 22.999999999999996
    vertex 52.30399237273309 17.17709635748979 22.999999999999996
  endloop
endfacet
facet normal 0.0 0.0 1.0
  outer loop
    vertex 35.8039923727331 19.427096357489788 22.999999999999996
    vertex 52.30399237273309 17.17709635748979 22.999999999999996
    vertex 52.30399237273309 19.427096357489788 22.999999999999996
  endloop
endfacet
facet normal 0.0 0.0 1.0
  outer loop
    vertex 32.3039923727331 34.17709635748979 22.999999999999996
    vertex 35.8039923727331 31.927096357489788 22.999999999999996
    vertex 52.30399237273309 34.17709635748979 22.999999999999996
  endloop
endfacet
facet normal 0.0 0.0 1.0
  outer loop
    vertex 35.8039923727331 31.927096357489788 22.999999999999996
    vertex 32.3039923727331 34.17709635748979 22.999999999999996
    vertex 35.8039923727331 19.427096357489788 22.999999999999996
  endloop
endfacet
facet normal 0.0 0.0 1.0
  outer loop
    vertex 52.30399237273309 34.17709635748979 22.999999999999996
    vertex 35.8039923727331 31.927096357489788 22.999999999999996
    vertex 52.30399237273309 31.927096357489788 22.999999999999996
  endloop
endfacet
facet normal 1.0 0.0 0.0
  outer loop
    vertex 35.8039923727331 31.927096357489788 7.999999999999998
    vertex 35.8039923727331 19.427096357489788 22.999999999999996
    vertex 35.8039923727331 19.427096357489788 7.999999999999998
  endloop
endfacet
facet normal 1.0 0.0 0.0
  outer loop
    vertex 35.8039923727331 19.427096357489788 22.999999999999996
    vertex 35.8039923727331 31.927096357489788 7.999999999999998
    vertex 35.8039923727331 31.927096357489788 22.999999999999996
  endloop
endfacet
facet normal 1.0 -0.0 -0.0
  outer loop
    vertex 52.30399237273309 17.17709635748979 1.9999999999999998
    vertex 52.30399237273309 19.427096357489788 7.999999999999998
    vertex 52.30399237273309 17.17709635748979 22.999999999999996
  endloop
endfacet
facet normal 1.0 -0.0 -0.0
  outer loop
    vertex 52.30399237273309 19.427096357489788 7.999999999999998
    vertex 52.30399237273309 17.17709635748979 1.9999999999999998
    vertex 52.30399237273309 34.17709635748979 1.9999999999999998
  endloop
endfacet
facet normal 1.0 -0.0 -0.0
  outer loop
    vertex 52.30399237273309 19.427096357489788 7.999999999999998
    vertex 52.30399237273309 34.17709635748979 1.9999999999999998
    vertex 52.30399237273309 31.927096357489788 7.999999999999998
  endloop
endfacet
facet normal 1.0 -0.0 -0.0
  outer loop
    vertex 52.30399237273309 31.927096357489788 7.999999999999998
    vertex 52.30399237273309 34.17709635748979 1.9999999999999998
    vertex 52.30399237273309 31.927096357489788 22.999999999999996
  endloop
endfacet
facet normal 1.0 -0.0 -0.0
  outer loop
    vertex 52.30399237273309 31.927096357489788 22.999999999999996
    vertex 52.30399237273309 34.17709635748979 1.9999999999999998
    vertex 52.30399237273309 34.17709635748979 22.999999999999996
  endloop
endfacet
facet normal 1.0 -0.0 -0.0
  outer loop
    vertex 52.30399237273309 19.427096357489788 22.999999999999996
    vertex 52.30399237273309 17.17709635748979 22.999999999999996
    vertex 52.30399237273309 19.427096357489788 7.999999999999998
  endloop
endfacet
facet normal -1.0 0.0 0.0
  outer loop
    vertex 32.3039923727331 34.17709635748979 22.999999999999996
    vertex 32.3039923727331 17.17709635748979 0.0
    vertex 32.3039923727331 17.17709635748979 22.999999999999996
  endloop
endfacet
facet normal -1.0 0.0 0.0
  outer loop
    vertex 32.3039923727331 17.17709635748979 0.0
    vertex 32.3039923727331 34.17709635748979 22.999999999999996
    vertex 32.3039923727331 34.17709635748979 0.0
  endloop
endfacet
facet normal -0.0 1.0 -0.0
  outer loop
    vertex 32.3039923727331 34.17709635748979 22.999999999999996
    vertex 42.3039923727331 34.17709635748979 0.0
    vertex 32.3039923727331 34.17709635748979 0.0
  endloop
endfacet
facet normal -0.0 1.0 -0.0
  outer loop
    vertex 42.3039923727331 34.17709635748979 0.0
    vertex 32.3039923727331 34.17709635748979 22.999999999999996
    vertex 42.3039923727331 34.17709635748979 1.9999999999999998
  endloop
endfacet
facet normal -0.0 1.0 -0.0
  outer loop
    vertex 42.3039923727331 34.17709635748979 1.9999999999999998
    vertex 32.3039923727331 34.17709635748979 22.999999999999996
    vertex 52.30399237273309 34.17709635748979 1.9999999999999998
  endloop
endfacet
facet normal -0.0 1.0 -0.0
  outer loop
    vertex 52.30399237273309 34.17709635748979 1.9999999999999998
    vertex 32.3039923727331 34.17709635748979 22.999999999999996
    vertex 52.30399237273309 34.17709635748979 22.999999999999996
  endloop
endfacet
facet normal 0.0 -1.0 0.0
  outer loop
    vertex 52.30399237273309 31.927096357489788 22.999999999999996
    vertex 35.8039923727331 31.927096357489788 7.999999999999998
    vertex 52.30399237273309 31.927096357489788 7.999999999999998
  endloop
endfacet
facet normal 0.0 -1.0 0.0
  outer loop
    vertex 35.8039923727331 31.927096357489788 7.999999999999998
    vertex 52.30399237273309 31.927096357489788 22.999999999999996
    vertex 35.8039923727331 31.927096357489788 22.999999999999996
  endloop
endfacet
facet normal -0.0 1.0 -0.0
  outer loop
    vertex 72.30399237273309 55.67709635748978 1.9999999999999998
    vertex 82.30399237273309 55.67709635748978 0.0
    vertex 72.30399237273309 55.67709635748978 0.0
  endloop
endfacet
facet normal -0.0 1.0 -0.0
  outer loop
    vertex 82.30399237273309 55.67709635748978 0.0
    vertex 72.30399237273309 55.67709635748978 1.9999999999999998
    vertex 82.30399237273309 55.67709635748978 1.9999999999999998
  endloop
endfacet
facet normal 0.5825189414280088 0.8128171275739656 -0.0
  outer loop
    vertex 82.30399237273309 55.67709635748978 1.9999999999999998
    vertex 89.2807365587796 50.67709635748978 0.0
    vertex 82.30399237273309 55.67709635748978 0.0
  endloop
endfacet
facet normal 0.5825189414280088 0.8128171275739656 -0.0
  outer loop
    vertex 89.2807365587796 50.67709635748978 0.0
    vertex 82.30399237273309 55.67709635748978 1.9999999999999998
    vertex 89.2807365587796 50.67709635748978 1.9999999999999998
  endloop
endfacet
facet normal -0.5825189414280086 0.8128171275739656 -0.0
  outer loop
    vertex 65.32724818668657 50.67709635748978 1.9999999999999998
    vertex 72.30399237273309 55.67709635748978 0.0
    vertex 65.32724818668657 50.67709635748978 0.0
  endloop
endfacet
facet normal -0.5825189414280086 0.8128171275739656 -0.0
  outer loop
    vertex 72.30399237273309 55.67709635748978 0.0
    vertex 65.32724818668657 50.67709635748978 1.9999999999999998
    vertex 72.30399237273309 55.67709635748978 1.9999999999999998
  endloop
endfacet
facet normal 1.2919814877986141e-16 -3.0940349097225166e-17 -1.0
  outer loop
    vertex 42.3039923727331 34.17709635748979 0.0
    vertex 32.3039923727331 17.17709635748979 0.0
    vertex 32.3039923727331 34.17709635748979 0.0
  endloop
endfacet
facet normal 1.2919814877986141e-16 -3.0940349097225166e-17 -1.0
  outer loop
    vertex 32.3039923727331 17.17709635748979 0.0
    vertex 42.3039923727331 34.17709635748979 0.0
    vertex 42.3039923727331 17.17709635748979 0.0
  endloop
endfacet
facet normal 1.2919814877986141e-16 -3.0940349097225166e-17 -1.0
  outer loop
    vertex 42.3039923727331 17.17709635748979 0.0
    vertex 42.3039923727331 34.17709635748979 0.0
    vertex 65.32724818668657 50.67709635748978 0.0
  endloop
endfacet
facet normal 1.2919814877986141e-16 -3.0940349097225166e-17 -1.0
  outer loop
    vertex 42.3039923727331 17.17709635748979 0.0
    vertex 65.32724818668657 50.67709635748978 0.0
    vertex 72.30399237273312 -4.3229036425102105 0.0
  endloop
endfacet
facet normal 1.2919814877986141e-16 -3.0940349097225166e-17 -1.0
  outer loop
    vertex 72.30399237273312 -4.3229036425102105 0.0
    vertex 65.32724818668657 50.67709635748978 0.0
    vertex 72.30399237273309 55.67709635748978 0.0
  endloop
endfacet
facet normal 1.2919814877986141e-16 -3.0940349097225166e-17 -1.0
  outer loop
    vertex 72.30399237273312 -4.3229036425102105 0.0
    vertex 72.30399237273309 55.67709635748978 0.0
    vertex 82.30399237273309 55.67709635748978 0.0
  endloop
endfacet
facet normal 1.2919814877986141e-16 -3.0940349097225166e-17 -1.0
  outer loop
    vertex 72.30399237273312 -4.3229036425102105 0.0
    vertex 82.30399237273309 55.67709635748978 0.0
    vertex 82.30399237273312 -4.3229036425102105 0.0
  endloop
endfacet
facet normal 1.2919814877986141e-16 -3.0940349097225166e-17 -1.0
  outer loop
    vertex 82.30399237273312 -4.3229036425102105 0.0
    vertex 82.30399237273309 55.67709635748978 0.0
    vertex 89.2807365587796 50.67709635748978 0.0
  endloop
endfacet
facet normal 1.2919814877986141e-16 -3.0940349097225166e-17 -1.0
  outer loop
    vertex 82.30399237273312 -4.3229036425102105 0.0
    vertex 89.2807365587796 50.67709635748978 0.0
    vertex 112.30399237273315 17.17709635748978 1.302937471209834e-14
  endloop
endfacet
facet normal 1.2919814877986141e-16 -3.0940349097225166e-17 -1.0
  outer loop
    vertex 112.30399237273315 17.17709635748978 1.302937471209834e-14
    vertex 89.2807365587796 50.67709635748978 0.0
    vertex 112.30399237273315 34.17709635748978 1.302937471209834e-14
  endloop
endfacet
facet normal -1.6114094185988122e-15 1.0 1.812835595923636e-15
  outer loop
    vertex 101.80399237273308 16.677096357489795 6.999999999999988
    vertex 108.80399237273313 16.67709635748981 1.0000000000000704
    vertex 101.8039923727331 16.6770963574898 0.9999999999999881
  endloop
endfacet
facet normal -1.6114094185988122e-15 1.0 1.812835595923636e-15
  outer loop
    vertex 108.80399237273313 16.67709635748981 1.0000000000000704
    vertex 101.80399237273308 16.677096357489795 6.999999999999988
    vertex 108.80399237273312 16.67709635748981 7.000000000000069
  endloop
endfacet
facet normal 1.0 -0.0 2.255973186038333e-14
  outer loop
    vertex 112.30399237273315 34.17709635748978 1.302937471209834e-14
    vertex 112.3039923727331 17.177096357489795 6.999999999999998
    vertex 112.30399237273315 17.17709635748978 1.302937471209834e-14
  endloop
endfacet
facet normal 1.0 -0.0 2.255973186038333e-14
  outer loop
    vertex 112.3039923727331 17.177096357489795 6.999999999999998
    vertex 112.30399237273315 34.17709635748978 1.302937471209834e-14
    vertex 112.3039923727331 34.17709635748978 6.999999999999998
  endloop
endfacet
facet normal 0.0 -1.0 1.5997038382171138e-15
  outer loop
    vertex 108.80399237273312 14.677096357489809 7.000000000000069
    vertex 99.80399237273312 14.677096357489795 2.0000000000000706
    vertex 108.80399237273312 14.677096357489795 2.0000000000000706
  endloop
endfacet
facet normal 0.0 -1.0 1.5997038382171138e-15
  outer loop
    vertex 99.80399237273312 14.677096357489795 2.0000000000000706
    vertex 108.80399237273312 14.677096357489809 7.000000000000069
    vertex 99.80399237273312 14.677096357489809 7.000000000000069
  endloop
endfacet
facet normal -0.5825189414280086 0.8128171275739656 -0.0
  outer loop
    vertex 42.3039923727331 34.17709635748979 1.9999999999999998
    vertex 65.32724818668657 50.67709635748978 0.0
    vertex 42.3039923727331 34.17709635748979 0.0
  endloop
endfacet
facet normal -0.5825189414280086 0.8128171275739656 -0.0
  outer loop
    vertex 65.32724818668657 50.67709635748978 0.0
    vertex 42.3039923727331 34.17709635748979 1.9999999999999998
    vertex 65.32724818668657 50.67709635748978 1.9999999999999998
  endloop
endfacet
facet normal -1.0 -1.5384630299203947e-30 -8.140259556104977e-16
  outer loop
    vertex 99.80399237273312 14.677096357489809 7.000000000000069
    vertex 99.80399237273312 36.685429690823106 2.0000000000000293
    vertex 99.80399237273312 14.677096357489795 2.0000000000000706
  endloop
endfacet
facet normal -1.0 -1.5384630299203947e-30 -8.140259556104977e-16
  outer loop
    vertex 99.80399237273312 36.685429690823106 2.0000000000000293
    vertex 99.80399237273312 14.677096357489809 7.000000000000069
    vertex 99.80399237273312 36.685429690823106 7.000000000000028
  endloop
endfacet
facet normal 0.0 1.0 -1.5997038382171138e-15
  outer loop
    vertex 99.80399237273312 36.685429690823106 7.000000000000028
    vertex 108.80399237273312 36.685429690823106 2.0000000000000293
    vertex 99.80399237273312 36.685429690823106 2.0000000000000293
  endloop
endfacet
facet normal 0.0 1.0 -1.5997038382171138e-15
  outer loop
    vertex 108.80399237273312 36.685429690823106 2.0000000000000293
    vertex 99.80399237273312 36.685429690823106 7.000000000000028
    vertex 108.80399237273312 36.685429690823106 7.000000000000028
  endloop
endfacet
facet normal -8.140259556104976e-16 1.5997038382171138e-15 1.0
  outer loop
    vertex 99.80399237273312 14.677096357489809 7.000000000000069
    vertex 101.80399237273308 16.677096357489795 6.999999999999988
    vertex 99.80399237273312 36.685429690823106 7.000000000000028
  endloop
endfacet
facet normal -8.140259556104976e-16 1.5997038382171138e-15 1.0
  outer loop
    vertex 101.80399237273308 16.677096357489795 6.999999999999988
    vertex 99.80399237273312 14.677096357489809 7.000000000000069
    vertex 108.80399237273312 14.677096357489809 7.000000000000069
  endloop
endfacet
facet normal -8.140259556104976e-16 1.5997038382171138e-15 1.0
  outer loop
    vertex 101.80399237273308 16.677096357489795 6.999999999999988
    vertex 108.80399237273312 14.677096357489809 7.000000000000069
    vertex 108.80399237273312 16.67709635748981 7.000000000000069
  endloop
endfacet
facet normal -8.140259556104976e-16 1.5997038382171138e-15 1.0
  outer loop
    vertex 108.80399237273312 16.67709635748981 7.000000000000069
    vertex 108.80399237273312 14.677096357489809 7.000000000000069
    vertex 112.3039923727331 17.177096357489795 6.999999999999998
  endloop
endfacet
facet normal -8.140259556104976e-16 1.5997038382171138e-15 1.0
  outer loop
    vertex 108.80399237273312 16.67709635748981 7.000000000000069
    vertex 112.3039923727331 17.177096357489795 6.999999999999998
    vertex 108.80399237273312 34.6770963574898 7.000000000000058
  endloop
endfacet
facet normal -8.140259556104976e-16 1.5997038382171138e-15 1.0
  outer loop
    vertex 108.80399237273312 34.6770963574898 7.000000000000058
    vertex 112.3039923727331 17.177096357489795 6.999999999999998
    vertex 108.80399237273312 36.685429690823106 7.000000000000028
  endloop
endfacet
facet normal -8.140259556104976e-16 1.5997038382171138e-15 1.0
  outer loop
    vertex 108.80399237273312 36.685429690823106 7.000000000000028
    vertex 112.3039923727331 17.177096357489795 6.999999999999998
    vertex 112.3039923727331 34.17709635748978 6.999999999999998
  endloop
endfacet
facet normal -8.140259556104976e-16 1.5997038382171138e-15 1.0
  outer loop
    vertex 99.80399237273312 36.685429690823106 7.000000000000028
    vertex 101.80399237273308 34.67709635748978 6.999999999999974
    vertex 108.80399237273312 36.685429690823106 7.000000000000028
  endloop
endfacet
facet normal -8.140259556104976e-16 1.5997038382171138e-15 1.0
  outer loop
    vertex 101.80399237273308 34.67709635748978 6.999999999999974
    vertex 99.80399237273312 36.685429690823106 7.000000000000028
    vertex 101.80399237273308 16.677096357489795 6.999999999999988
  endloop
endfacet
facet normal -8.140259556104976e-16 1.5997038382171138e-15 1.0
  outer loop
    vertex 108.80399237273312 36.685429690823106 7.000000000000028
    vertex 101.80399237273308 34.67709635748978 6.999999999999974
    vertex 108.80399237273312 34.6770963574898 7.000000000000058
  endloop
endfacet
endsolid Turret
