solid Turret
facet normal 0.9583789509538468 -0.2854991880349296 0.0
  outer loop
    vertex 17.29325235189622 -26.032579502030263 0.0
    vertex 17.181456986207873 -26.407860167545827 1.5
    vertex 17.181456986207873 -26.407860167545827 0.0
  endloop
endfacet
facet normal 0.9583789509538468 -0.2854991880349296 0.0
  outer loop
    vertex 17.181456986207873 -26.407860167545827 1.5
    vertex 17.29325235189622 -26.032579502030263 0.0
    vertex 17.29325235189622 -26.032579502030263 1.5
  endloop
endfacet
facet normal -0.23193992587884843 0.9727301119957757 0.0
  outer loop
    vertex 18.817107833435188 -28.136828648729306 1.5
    vertex 19.19800810616497 -28.046005942683003 0.0
    vertex 18.817107833435188 -28.136828648729306 0.0
  endloop
endfacet
facet normal -0.23193992587884843 0.9727301119957757 0.0
  outer loop
    vertex 19.19800810616497 -28.046005942683003 0.0
    vertex 18.817107833435188 -28.136828648729306 1.5
    vertex 19.19800810616497 -28.046005942683003 1.5
  endloop
endfacet
facet normal 0.23193992587884843 -0.9727301119957757 0.0
  outer loop
    vertex 18.508141163184952 -25.152781129557653 1.5
    vertex 18.127240890455173 -25.243603835603956 0.0
    vertex 18.508141163184952 -25.152781129557653 0.0
  endloop
endfacet
facet normal 0.23193992587884843 -0.9727301119957757 0.0
  outer loop
    vertex 18.127240890455173 -25.243603835603956 0.0
    vertex 18.508141163184952 -25.152781129557653 1.5
    vertex 18.127240890455173 -25.243603835603956 1.5
  endloop
endfacet
facet normal -0.7264390250750014 -0.6872309239608486 -0.0
  outer loop
    vertex 19.60840840255737 -25.48054855720161 1.5
    vertex 19.8775133095988 -25.76500651667087 0.0
    vertex 19.8775133095988 -25.76500651667087 1.5
  endloop
endfacet
facet normal -0.7264390250750014 -0.6872309239608486 -0.0
  outer loop
    vertex 19.8775133095988 -25.76500651667087 0.0
    vertex 19.60840840255737 -25.48054855720161 1.5
    vertex 19.60840840255737 -25.48054855720161 0.0
  endloop
endfacet
facet normal 0.4757978432831643 -0.879554667048666 0.0
  outer loop
    vertex 18.127240890455173 -25.243603835603956 1.5
    vertex 17.78282612583746 -25.42991607785475 0.0
    vertex 18.127240890455173 -25.243603835603956 0.0
  endloop
endfacet
facet normal 0.4757978432831643 -0.879554667048666 0.0
  outer loop
    vertex 17.78282612583746 -25.42991607785475 0.0
    vertex 18.127240890455173 -25.243603835603956 1.5
    vertex 17.78282612583746 -25.42991607785475 1.5
  endloop
endfacet
facet normal 0.28549918803492497 0.9583789509538483 0.0
  outer loop
    vertex 18.050399111196853 -28.014177035557328 1.5
    vertex 18.425679776712414 -28.125972401245672 0.0
    vertex 18.050399111196853 -28.014177035557328 0.0
  endloop
endfacet
facet normal 0.28549918803492497 0.9583789509538483 0.0
  outer loop
    vertex 18.425679776712414 -28.125972401245672 0.0
    vertex 18.050399111196853 -28.014177035557328 1.5
    vertex 18.425679776712414 -28.125972401245672 1.5
  endloop
endfacet
facet normal 0.9996156073228908 -0.027724314175258356 0.0
  outer loop
    vertex 17.174885330207687 -26.64480488914347 0.0
    vertex 17.170600738724243 -26.799288224268597 1.5
    vertex 17.170600738724243 -26.799288224268597 0.0
  endloop
endfacet
facet normal 0.9996156073228908 -0.027724314175258356 0.0
  outer loop
    vertex 17.170600738724243 -26.799288224268597 1.5
    vertex 17.174885330207687 -26.64480488914347 0.0
    vertex 17.174885330207687 -26.64480488914347 1.5
  endloop
endfacet
facet normal 0.6872309239608447 -0.7264390250750049 0.0
  outer loop
    vertex 17.78282612583746 -25.42991607785475 1.5
    vertex 17.498368166368202 -25.69902098489618 0.0
    vertex 17.78282612583746 -25.42991607785475 0.0
  endloop
endfacet
facet normal 0.6872309239608447 -0.7264390250750049 0.0
  outer loop
    vertex 17.498368166368202 -25.69902098489618 0.0
    vertex 17.78282612583746 -25.42991607785475 1.5
    vertex 17.498368166368202 -25.69902098489618 1.5
  endloop
endfacet
facet normal 0.7264390250750014 0.6872309239608486 0.0
  outer loop
    vertex 17.44773568702134 -27.52460326161609 0.0
    vertex 17.71684059406277 -27.80906122108535 1.5
    vertex 17.71684059406277 -27.80906122108535 0.0
  endloop
endfacet
facet normal 0.7264390250750014 0.6872309239608486 0.0
  outer loop
    vertex 17.71684059406277 -27.80906122108535 1.5
    vertex 17.44773568702134 -27.52460326161609 0.0
    vertex 17.44773568702134 -27.52460326161609 1.5
  endloop
endfacet
facet normal -0.027724314175263734 -0.9996156073228906 -0.0
  outer loop
    vertex 18.899569219907725 -25.163637377041283 1.5
    vertex 18.662624498310066 -25.157065721041096 0.0
    vertex 18.899569219907725 -25.163637377041283 0.0
  endloop
endfacet
facet normal -0.027724314175263734 -0.9996156073228906 -0.0
  outer loop
    vertex 18.662624498310066 -25.157065721041096 0.0
    vertex 18.899569219907725 -25.163637377041283 1.5
    vertex 18.662624498310066 -25.157065721041096 1.5
  endloop
endfacet
facet normal -0.4757978432831643 0.879554667048666 0.0
  outer loop
    vertex 19.19800810616497 -28.046005942683003 1.5
    vertex 19.54242287078268 -27.85969370043221 0.0
    vertex 19.19800810616497 -28.046005942683003 0.0
  endloop
endfacet
facet normal -0.4757978432831643 0.879554667048666 0.0
  outer loop
    vertex 19.54242287078268 -27.85969370043221 0.0
    vertex 19.19800810616497 -28.046005942683003 1.5
    vertex 19.54242287078268 -27.85969370043221 1.5
  endloop
endfacet
facet normal -0.8518303528733998 0.5238177640397271 0.0
  outer loop
    vertex 20.031996644723918 -27.257030276256696 1.5
    vertex 19.82688083025194 -27.590588793390776 0.0
    vertex 19.82688083025194 -27.590588793390776 1.5
  endloop
endfacet
facet normal -0.8518303528733998 0.5238177640397271 0.0
  outer loop
    vertex 19.82688083025194 -27.590588793390776 0.0
    vertex 20.031996644723918 -27.257030276256696 1.5
    vertex 20.031996644723918 -27.257030276256696 0.0
  endloop
endfacet
facet normal -0.9996156073228907 0.0277243141752624 0.0
  outer loop
    vertex 20.154648257895897 -26.49032155401836 1.5
    vertex 20.150363666412453 -26.64480488914347 0.0
    vertex 20.150363666412453 -26.64480488914347 1.5
  endloop
endfacet
facet normal -0.9996156073228907 0.0277243141752624 0.0
  outer loop
    vertex 20.150363666412453 -26.64480488914347 0.0
    vertex 20.154648257895897 -26.49032155401836 1.5
    vertex 20.154648257895897 -26.49032155401836 0.0
  endloop
endfacet
facet normal 0.0 0.0 1.0
  outer loop
    vertex 16.730772845731927 -27.16244297934852 1.5
    vertex 16.730772845731927 -26.12716679893844 1.5
    vertex 16.662624498310066 -26.64480488914348 1.5
  endloop
endfacet
facet normal 0.0 0.0 1.0
  outer loop
    vertex 16.730772845731927 -26.12716679893844 1.5
    vertex 16.730772845731927 -27.16244297934852 1.5
    vertex 16.930573690741188 -27.644804889143483 1.5
  endloop
endfacet
facet normal 0.0 0.0 1.0
  outer loop
    vertex 16.730772845731927 -26.12716679893844 1.5
    vertex 16.930573690741188 -27.644804889143483 1.5
    vertex 16.930573690741188 -25.644804889143483 1.5
  endloop
endfacet
facet normal 0.0 0.0 1.0
  outer loop
    vertex 16.930573690741188 -25.644804889143483 1.5
    vertex 16.930573690741188 -27.644804889143483 1.5
    vertex 17.24841093593697 -28.05901845151658 1.5
  endloop
endfacet
facet normal 0.0 0.0 1.0
  outer loop
    vertex 16.930573690741188 -25.644804889143483 1.5
    vertex 17.24841093593697 -28.05901845151658 1.5
    vertex 17.170600738724243 -26.799288224268597 1.5
  endloop
endfacet
facet normal 0.0 0.0 1.0
  outer loop
    vertex 17.170600738724243 -26.799288224268597 1.5
    vertex 17.24841093593697 -28.05901845151658 1.5
    vertex 17.261423444770546 -27.18018849699838 1.5
  endloop
endfacet
facet normal 0.0 0.0 1.0
  outer loop
    vertex 17.261423444770546 -27.18018849699838 1.5
    vertex 17.24841093593697 -28.05901845151658 1.5
    vertex 17.662624498310066 -28.376855696712358 1.5
  endloop
endfacet
facet normal 0.0 0.0 1.0
  outer loop
    vertex 17.261423444770546 -27.18018849699838 1.5
    vertex 17.662624498310066 -28.376855696712358 1.5
    vertex 17.44773568702134 -27.52460326161609 1.5
  endloop
endfacet
facet normal 0.0 0.0 1.0
  outer loop
    vertex 17.44773568702134 -27.52460326161609 1.5
    vertex 17.662624498310066 -28.376855696712358 1.5
    vertex 17.71684059406277 -27.80906122108535 1.5
  endloop
endfacet
facet normal 0.0 0.0 1.0
  outer loop
    vertex 17.71684059406277 -27.80906122108535 1.5
    vertex 17.662624498310066 -28.376855696712358 1.5
    vertex 18.144986408105023 -28.57665654172162 1.5
  endloop
endfacet
facet normal 0.0 0.0 1.0
  outer loop
    vertex 17.71684059406277 -27.80906122108535 1.5
    vertex 18.144986408105023 -28.57665654172162 1.5
    vertex 18.050399111196853 -28.014177035557328 1.5
  endloop
endfacet
facet normal 0.0 0.0 1.0
  outer loop
    vertex 18.050399111196853 -28.014177035557328 1.5
    vertex 18.144986408105023 -28.57665654172162 1.5
    vertex 18.425679776712414 -28.125972401245672 1.5
  endloop
endfacet
facet normal 0.0 0.0 1.0
  outer loop
    vertex 18.425679776712414 -28.125972401245672 1.5
    vertex 18.144986408105023 -28.57665654172162 1.5
    vertex 18.662624498310066 -28.644804889143483 1.5
  endloop
endfacet
facet normal 0.0 0.0 1.0
  outer loop
    vertex 18.425679776712414 -28.125972401245672 1.5
    vertex 18.662624498310066 -28.644804889143483 1.5
    vertex 18.662624498310066 -28.132544057245862 1.5
  endloop
endfacet
facet normal 0.0 0.0 1.0
  outer loop
    vertex 18.662624498310066 -28.132544057245862 1.5
    vertex 18.662624498310066 -28.644804889143483 1.5
    vertex 19.18026258851511 -28.57665654172162 1.5
  endloop
endfacet
facet normal 0.0 0.0 1.0
  outer loop
    vertex 18.662624498310066 -28.132544057245862 1.5
    vertex 19.18026258851511 -28.57665654172162 1.5
    vertex 18.817107833435188 -28.136828648729306 1.5
  endloop
endfacet
facet normal 0.0 0.0 1.0
  outer loop
    vertex 18.817107833435188 -28.136828648729306 1.5
    vertex 19.18026258851511 -28.57665654172162 1.5
    vertex 19.19800810616497 -28.046005942683003 1.5
  endloop
endfacet
facet normal 0.0 0.0 1.0
  outer loop
    vertex 19.19800810616497 -28.046005942683003 1.5
    vertex 19.18026258851511 -28.57665654172162 1.5
    vertex 19.66262449831007 -28.376855696712358 1.5
  endloop
endfacet
facet normal 0.0 0.0 1.0
  outer loop
    vertex 19.19800810616497 -28.046005942683003 1.5
    vertex 19.66262449831007 -28.376855696712358 1.5
    vertex 19.54242287078268 -27.85969370043221 1.5
  endloop
endfacet
facet normal 0.0 0.0 1.0
  outer loop
    vertex 19.54242287078268 -27.85969370043221 1.5
    vertex 19.66262449831007 -28.376855696712358 1.5
    vertex 19.82688083025194 -27.590588793390776 1.5
  endloop
endfacet
facet normal 0.0 0.0 1.0
  outer loop
    vertex 19.82688083025194 -27.590588793390776 1.5
    vertex 19.66262449831007 -28.376855696712358 1.5
    vertex 20.076838060683162 -28.05901845151658 1.5
  endloop
endfacet
facet normal 0.0 0.0 1.0
  outer loop
    vertex 19.82688083025194 -27.590588793390776 1.5
    vertex 20.076838060683162 -28.05901845151658 1.5
    vertex 20.031996644723918 -27.257030276256696 1.5
  endloop
endfacet
facet normal 0.0 0.0 1.0
  outer loop
    vertex 20.031996644723918 -27.257030276256696 1.5
    vertex 20.076838060683162 -28.05901845151658 1.5
    vertex 20.143792010412266 -26.881749610741135 1.5
  endloop
endfacet
facet normal 0.0 0.0 1.0
  outer loop
    vertex 20.143792010412266 -26.881749610741135 1.5
    vertex 20.076838060683162 -28.05901845151658 1.5
    vertex 20.39467530587895 -27.64480488914348 1.5
  endloop
endfacet
facet normal 0.0 0.0 1.0
  outer loop
    vertex 20.143792010412266 -26.881749610741135 1.5
    vertex 20.39467530587895 -27.64480488914348 1.5
    vertex 20.150363666412453 -26.64480488914347 1.5
  endloop
endfacet
facet normal 0.0 0.0 1.0
  outer loop
    vertex 20.150363666412453 -26.64480488914347 1.5
    vertex 20.39467530587895 -27.64480488914348 1.5
    vertex 20.154648257895897 -26.49032155401836 1.5
  endloop
endfacet
facet normal 0.0 0.0 1.0
  outer loop
    vertex 20.154648257895897 -26.49032155401836 1.5
    vertex 20.39467530587895 -27.64480488914348 1.5
    vertex 20.394675305878945 -25.644804889143476 1.5
  endloop
endfacet
facet normal 0.0 0.0 1.0
  outer loop
    vertex 20.394675305878945 -25.644804889143476 1.5
    vertex 20.39467530587895 -27.64480488914348 1.5
    vertex 20.594476150888205 -26.127166798938433 1.5
  endloop
endfacet
facet normal 0.0 0.0 1.0
  outer loop
    vertex 20.594476150888205 -26.127166798938433 1.5
    vertex 20.39467530587895 -27.64480488914348 1.5
    vertex 20.594476150888205 -27.16244297934852 1.5
  endloop
endfacet
facet normal 0.0 0.0 1.0
  outer loop
    vertex 20.594476150888205 -26.127166798938433 1.5
    vertex 20.594476150888205 -27.16244297934852 1.5
    vertex 20.66262449831007 -26.64480488914348 1.5
  endloop
endfacet
facet normal 0.0 0.0 1.0
  outer loop
    vertex 16.930573690741188 -25.644804889143483 1.5
    vertex 17.181456986207873 -26.407860167545827 1.5
    vertex 17.24841093593697 -25.230591326770384 1.5
  endloop
endfacet
facet normal 0.0 0.0 1.0
  outer loop
    vertex 17.181456986207873 -26.407860167545827 1.5
    vertex 16.930573690741188 -25.644804889143483 1.5
    vertex 17.174885330207687 -26.64480488914347 1.5
  endloop
endfacet
facet normal 0.0 0.0 1.0
  outer loop
    vertex 17.174885330207687 -26.64480488914347 1.5
    vertex 16.930573690741188 -25.644804889143483 1.5
    vertex 17.170600738724243 -26.799288224268597 1.5
  endloop
endfacet
facet normal 0.0 0.0 1.0
  outer loop
    vertex 17.24841093593697 -25.230591326770384 1.5
    vertex 17.181456986207873 -26.407860167545827 1.5
    vertex 17.29325235189622 -26.032579502030263 1.5
  endloop
endfacet
facet normal 0.0 0.0 1.0
  outer loop
    vertex 17.24841093593697 -25.230591326770384 1.5
    vertex 17.29325235189622 -26.032579502030263 1.5
    vertex 17.662624498310066 -24.9127540815746 1.5
  endloop
endfacet
facet normal 0.0 0.0 1.0
  outer loop
    vertex 17.662624498310066 -24.9127540815746 1.5
    vertex 17.29325235189622 -26.032579502030263 1.5
    vertex 17.498368166368202 -25.69902098489618 1.5
  endloop
endfacet
facet normal 0.0 0.0 1.0
  outer loop
    vertex 17.662624498310066 -24.9127540815746 1.5
    vertex 17.498368166368202 -25.69902098489618 1.5
    vertex 17.78282612583746 -25.42991607785475 1.5
  endloop
endfacet
facet normal 0.0 0.0 1.0
  outer loop
    vertex 17.662624498310066 -24.9127540815746 1.5
    vertex 17.78282612583746 -25.42991607785475 1.5
    vertex 18.144986408105023 -24.71295323656534 1.5
  endloop
endfacet
facet normal 0.0 0.0 1.0
  outer loop
    vertex 18.144986408105023 -24.71295323656534 1.5
    vertex 17.78282612583746 -25.42991607785475 1.5
    vertex 18.127240890455173 -25.243603835603956 1.5
  endloop
endfacet
facet normal 0.0 0.0 1.0
  outer loop
    vertex 18.144986408105023 -24.71295323656534 1.5
    vertex 18.127240890455173 -25.243603835603956 1.5
    vertex 18.508141163184952 -25.152781129557653 1.5
  endloop
endfacet
facet normal 0.0 0.0 1.0
  outer loop
    vertex 18.144986408105023 -24.71295323656534 1.5
    vertex 18.508141163184952 -25.152781129557653 1.5
    vertex 18.662624498310066 -24.644804889143476 1.5
  endloop
endfacet
facet normal 0.0 0.0 1.0
  outer loop
    vertex 18.662624498310066 -24.644804889143476 1.5
    vertex 18.508141163184952 -25.152781129557653 1.5
    vertex 18.662624498310066 -25.157065721041096 1.5
  endloop
endfacet
facet normal 0.0 0.0 1.0
  outer loop
    vertex 18.662624498310066 -24.644804889143476 1.5
    vertex 18.662624498310066 -25.157065721041096 1.5
    vertex 18.899569219907725 -25.163637377041283 1.5
  endloop
endfacet
facet normal 0.0 0.0 1.0
  outer loop
    vertex 18.662624498310066 -24.644804889143476 1.5
    vertex 18.899569219907725 -25.163637377041283 1.5
    vertex 19.180262588515106 -24.71295323656534 1.5
  endloop
endfacet
facet normal 0.0 0.0 1.0
  outer loop
    vertex 19.180262588515106 -24.71295323656534 1.5
    vertex 18.899569219907725 -25.163637377041283 1.5
    vertex 19.274849885423286 -25.27543274272963 1.5
  endloop
endfacet
facet normal 0.0 0.0 1.0
  outer loop
    vertex 19.180262588515106 -24.71295323656534 1.5
    vertex 19.274849885423286 -25.27543274272963 1.5
    vertex 19.66262449831007 -24.9127540815746 1.5
  endloop
endfacet
facet normal 0.0 0.0 1.0
  outer loop
    vertex 19.66262449831007 -24.9127540815746 1.5
    vertex 19.274849885423286 -25.27543274272963 1.5
    vertex 19.60840840255737 -25.48054855720161 1.5
  endloop
endfacet
facet normal 0.0 0.0 1.0
  outer loop
    vertex 19.66262449831007 -24.9127540815746 1.5
    vertex 19.60840840255737 -25.48054855720161 1.5
    vertex 19.8775133095988 -25.76500651667087 1.5
  endloop
endfacet
facet normal 0.0 0.0 1.0
  outer loop
    vertex 19.66262449831007 -24.9127540815746 1.5
    vertex 19.8775133095988 -25.76500651667087 1.5
    vertex 20.076838060683162 -25.23059132677038 1.5
  endloop
endfacet
facet normal 0.0 0.0 1.0
  outer loop
    vertex 20.076838060683162 -25.23059132677038 1.5
    vertex 19.8775133095988 -25.76500651667087 1.5
    vertex 20.063825551849593 -26.109421281288583 1.5
  endloop
endfacet
facet normal 0.0 0.0 1.0
  outer loop
    vertex 20.076838060683162 -25.23059132677038 1.5
    vertex 20.063825551849593 -26.109421281288583 1.5
    vertex 20.154648257895897 -26.49032155401836 1.5
  endloop
endfacet
facet normal 0.0 0.0 1.0
  outer loop
    vertex 20.076838060683162 -25.23059132677038 1.5
    vertex 20.154648257895897 -26.49032155401836 1.5
    vertex 20.394675305878945 -25.644804889143476 1.5
  endloop
endfacet
facet normal 0.879554667048666 0.4757978432831643 0.0
  outer loop
    vertex 17.261423444770546 -27.18018849699838 0.0
    vertex 17.44773568702134 -27.52460326161609 1.5
    vertex 17.44773568702134 -27.52460326161609 0.0
  endloop
endfacet
facet normal 0.879554667048666 0.4757978432831643 0.0
  outer loop
    vertex 17.44773568702134 -27.52460326161609 1.5
    vertex 17.261423444770546 -27.18018849699838 0.0
    vertex 17.261423444770546 -27.18018849699838 1.5
  endloop
endfacet
facet normal 0.7933533402912347 0.6087614290087213 0.0
  outer loop
    vertex 16.930573690741188 -27.644804889143483 1.5
    vertex 17.24841093593697 -28.05901845151658 3.0
    vertex 17.24841093593697 -28.05901845151658 1.5
  endloop
endfacet
facet normal 0.7933533402912347 0.6087614290087213 0.0
  outer loop
    vertex 17.24841093593697 -28.05901845151658 3.0
    vertex 16.930573690741188 -27.644804889143483 1.5
    vertex 16.930573690741188 -27.644804889143483 3.0
  endloop
endfacet
facet normal 0.3826834323650914 -0.9238795325112863 -0.0
  outer loop
    vertex 18.144986408105023 -24.71295323656534 3.0
    vertex 17.662624498310066 -24.9127540815746 1.5
    vertex 18.144986408105023 -24.71295323656534 1.5
  endloop
endfacet
facet normal 0.3826834323650914 -0.9238795325112863 -0.0
  outer loop
    vertex 17.662624498310066 -24.9127540815746 1.5
    vertex 18.144986408105023 -24.71295323656534 3.0
    vertex 17.662624498310066 -24.9127540815746 3.0
  endloop
endfacet
facet normal 0.9238795325112863 -0.3826834323650914 -0.0
  outer loop
    vertex 16.930573690741188 -25.644804889143483 1.5
    vertex 16.730772845731927 -26.12716679893844 3.0
    vertex 16.730772845731927 -26.12716679893844 1.5
  endloop
endfacet
facet normal 0.9238795325112863 -0.3826834323650914 -0.0
  outer loop
    vertex 16.730772845731927 -26.12716679893844 3.0
    vertex 16.930573690741188 -25.644804889143483 1.5
    vertex 16.930573690741188 -25.644804889143483 3.0
  endloop
endfacet
facet normal 0.3826834323650914 0.9238795325112863 0.0
  outer loop
    vertex 17.662624498310066 -28.376855696712358 3.0
    vertex 18.144986408105023 -28.57665654172162 1.5
    vertex 17.662624498310066 -28.376855696712358 1.5
  endloop
endfacet
facet normal 0.3826834323650914 0.9238795325112863 0.0
  outer loop
    vertex 18.144986408105023 -28.57665654172162 1.5
    vertex 17.662624498310066 -28.376855696712358 3.0
    vertex 18.144986408105023 -28.57665654172162 3.0
  endloop
endfacet
facet normal -0.02772431417526089 -0.9996156073228908 -0.0
  outer loop
    vertex 18.662624498310066 -25.157065721041096 1.5
    vertex 18.508141163184952 -25.152781129557653 0.0
    vertex 18.662624498310066 -25.157065721041096 0.0
  endloop
endfacet
facet normal -0.02772431417526089 -0.9996156073228908 -0.0
  outer loop
    vertex 18.508141163184952 -25.152781129557653 0.0
    vertex 18.662624498310066 -25.157065721041096 1.5
    vertex 18.508141163184952 -25.152781129557653 1.5
  endloop
endfacet
facet normal 0.027724314175259872 0.9996156073228907 0.0
  outer loop
    vertex 18.662624498310066 -28.132544057245862 1.5
    vertex 18.817107833435188 -28.136828648729306 0.0
    vertex 18.662624498310066 -28.132544057245862 0.0
  endloop
endfacet
facet normal 0.027724314175259872 0.9996156073228907 0.0
  outer loop
    vertex 18.817107833435188 -28.136828648729306 0.0
    vertex 18.662624498310066 -28.132544057245862 1.5
    vertex 18.817107833435188 -28.136828648729306 1.5
  endloop
endfacet
facet normal -0.879554667048666 -0.4757978432831643 -0.0
  outer loop
    vertex 19.8775133095988 -25.76500651667087 1.5
    vertex 20.063825551849593 -26.109421281288583 0.0
    vertex 20.063825551849593 -26.109421281288583 1.5
  endloop
endfacet
facet normal -0.879554667048666 -0.4757978432831643 -0.0
  outer loop
    vertex 20.063825551849593 -26.109421281288583 0.0
    vertex 19.8775133095988 -25.76500651667087 1.5
    vertex 19.8775133095988 -25.76500651667087 0.0
  endloop
endfacet
facet normal 0.02772431417527595 0.9996156073228902 0.0
  outer loop
    vertex 18.425679776712414 -28.125972401245672 1.5
    vertex 18.662624498310066 -28.132544057245862 0.0
    vertex 18.425679776712414 -28.125972401245672 0.0
  endloop
endfacet
facet normal 0.02772431417527595 0.9996156073228902 0.0
  outer loop
    vertex 18.662624498310066 -28.132544057245862 0.0
    vertex 18.425679776712414 -28.125972401245672 1.5
    vertex 18.662624498310066 -28.132544057245862 1.5
  endloop
endfacet
facet normal -0.9996156073228906 0.027724314175262745 0.0
  outer loop
    vertex 20.150363666412453 -26.64480488914347 1.5
    vertex 20.143792010412266 -26.881749610741135 0.0
    vertex 20.143792010412266 -26.881749610741135 1.5
  endloop
endfacet
facet normal -0.9996156073228906 0.027724314175262745 0.0
  outer loop
    vertex 20.143792010412266 -26.881749610741135 0.0
    vertex 20.150363666412453 -26.64480488914347 1.5
    vertex 20.150363666412453 -26.64480488914347 0.0
  endloop
endfacet
facet normal -0.2854991880349296 -0.9583789509538468 -0.0
  outer loop
    vertex 19.274849885423286 -25.27543274272963 1.5
    vertex 18.899569219907725 -25.163637377041283 0.0
    vertex 19.274849885423286 -25.27543274272963 0.0
  endloop
endfacet
facet normal -0.2854991880349296 -0.9583789509538468 -0.0
  outer loop
    vertex 18.899569219907725 -25.163637377041283 0.0
    vertex 19.274849885423286 -25.27543274272963 1.5
    vertex 18.899569219907725 -25.163637377041283 1.5
  endloop
endfacet
facet normal -0.9727301119957757 -0.23193992587884843 -0.0
  outer loop
    vertex 20.063825551849593 -26.109421281288583 1.5
    vertex 20.154648257895897 -26.49032155401836 0.0
    vertex 20.154648257895897 -26.49032155401836 1.5
  endloop
endfacet
facet normal -0.9727301119957757 -0.23193992587884843 -0.0
  outer loop
    vertex 20.154648257895897 -26.49032155401836 0.0
    vertex 20.063825551849593 -26.109421281288583 1.5
    vertex 20.063825551849593 -26.109421281288583 0.0
  endloop
endfacet
facet normal 0.9727301119957757 0.23193992587884843 0.0
  outer loop
    vertex 17.170600738724243 -26.799288224268597 0.0
    vertex 17.261423444770546 -27.18018849699838 1.5
    vertex 17.261423444770546 -27.18018849699838 0.0
  endloop
endfacet
facet normal 0.9727301119957757 0.23193992587884843 0.0
  outer loop
    vertex 17.261423444770546 -27.18018849699838 1.5
    vertex 17.170600738724243 -26.799288224268597 0.0
    vertex 17.170600738724243 -26.799288224268597 1.5
  endloop
endfacet
facet normal 0.9996156073228906 -0.027724314175265385 0.0
  outer loop
    vertex 17.181456986207873 -26.407860167545827 0.0
    vertex 17.174885330207687 -26.64480488914347 1.5
    vertex 17.174885330207687 -26.64480488914347 0.0
  endloop
endfacet
facet normal 0.9996156073228906 -0.027724314175265385 0.0
  outer loop
    vertex 17.174885330207687 -26.64480488914347 1.5
    vertex 17.181456986207873 -26.407860167545827 0.0
    vertex 17.181456986207873 -26.407860167545827 1.5
  endloop
endfacet
facet normal -0.9583789509538468 0.2854991880349296 0.0
  outer loop
    vertex 20.143792010412266 -26.881749610741135 1.5
    vertex 20.031996644723918 -27.257030276256696 0.0
    vertex 20.031996644723918 -27.257030276256696 1.5
  endloop
endfacet
facet normal -0.9583789509538468 0.2854991880349296 0.0
  outer loop
    vertex 20.031996644723918 -27.257030276256696 0.0
    vertex 20.143792010412266 -26.881749610741135 1.5
    vertex 20.143792010412266 -26.881749610741135 0.0
  endloop
endfacet
facet normal 0.8518303528734037 -0.5238177640397207 0.0
  outer loop
    vertex 17.498368166368202 -25.69902098489618 0.0
    vertex 17.29325235189622 -26.032579502030263 1.5
    vertex 17.29325235189622 -26.032579502030263 0.0
  endloop
endfacet
facet normal 0.8518303528734037 -0.5238177640397207 0.0
  outer loop
    vertex 17.29325235189622 -26.032579502030263 1.5
    vertex 17.498368166368202 -25.69902098489618 0.0
    vertex 17.498368166368202 -25.69902098489618 1.5
  endloop
endfacet
facet normal 0.5238177640397239 0.8518303528734017 0.0
  outer loop
    vertex 17.71684059406277 -27.80906122108535 1.5
    vertex 18.050399111196853 -28.014177035557328 0.0
    vertex 17.71684059406277 -27.80906122108535 0.0
  endloop
endfacet
facet normal 0.5238177640397239 0.8518303528734017 0.0
  outer loop
    vertex 18.050399111196853 -28.014177035557328 0.0
    vertex 17.71684059406277 -27.80906122108535 1.5
    vertex 18.050399111196853 -28.014177035557328 1.5
  endloop
endfacet
facet normal -0.5238177640397239 -0.8518303528734017 -0.0
  outer loop
    vertex 19.60840840255737 -25.48054855720161 1.5
    vertex 19.274849885423286 -25.27543274272963 0.0
    vertex 19.60840840255737 -25.48054855720161 0.0
  endloop
endfacet
facet normal -0.5238177640397239 -0.8518303528734017 -0.0
  outer loop
    vertex 19.274849885423286 -25.27543274272963 0.0
    vertex 19.60840840255737 -25.48054855720161 1.5
    vertex 19.274849885423286 -25.27543274272963 1.5
  endloop
endfacet
facet normal -0.9914448613738106 -0.13052619222005077 -0.0
  outer loop
    vertex 20.594476150888205 -26.127166798938433 3.0
    vertex 20.66262449831007 -26.64480488914348 1.5
    vertex 20.66262449831007 -26.64480488914348 3.0
  endloop
endfacet
facet normal -0.9914448613738106 -0.13052619222005077 -0.0
  outer loop
    vertex 20.66262449831007 -26.64480488914348 1.5
    vertex 20.594476150888205 -26.127166798938433 3.0
    vertex 20.594476150888205 -26.127166798938433 1.5
  endloop
endfacet
facet normal 0.0 0.0 -1.0
  outer loop
    vertex 16.730772845731927 -26.12716679893844 0.0
    vertex 16.730772845731927 -27.16244297934852 0.0
    vertex 16.662624498310066 -26.64480488914348 0.0
  endloop
endfacet
facet normal 0.0 0.0 -1.0
  outer loop
    vertex 16.730772845731927 -27.16244297934852 0.0
    vertex 16.730772845731927 -26.12716679893844 0.0
    vertex 16.930573690741188 -25.644804889143483 0.0
  endloop
endfacet
facet normal 0.0 0.0 -1.0
  outer loop
    vertex 16.730772845731927 -27.16244297934852 0.0
    vertex 16.930573690741188 -25.644804889143483 0.0
    vertex 16.930573690741188 -27.644804889143483 0.0
  endloop
endfacet
facet normal 0.0 0.0 -1.0
  outer loop
    vertex 16.930573690741188 -27.644804889143483 0.0
    vertex 16.930573690741188 -25.644804889143483 0.0
    vertex 17.24841093593697 -25.230591326770384 0.0
  endloop
endfacet
facet normal 0.0 0.0 -1.0
  outer loop
    vertex 16.930573690741188 -27.644804889143483 0.0
    vertex 17.24841093593697 -25.230591326770384 0.0
    vertex 17.181456986207873 -26.407860167545827 0.0
  endloop
endfacet
facet normal 0.0 0.0 -1.0
  outer loop
    vertex 16.930573690741188 -27.644804889143483 0.0
    vertex 17.181456986207873 -26.407860167545827 0.0
    vertex 17.174885330207687 -26.64480488914347 0.0
  endloop
endfacet
facet normal 0.0 0.0 -1.0
  outer loop
    vertex 16.930573690741188 -27.644804889143483 0.0
    vertex 17.174885330207687 -26.64480488914347 0.0
    vertex 17.170600738724243 -26.799288224268597 0.0
  endloop
endfacet
facet normal 0.0 0.0 -1.0
  outer loop
    vertex 17.181456986207873 -26.407860167545827 0.0
    vertex 17.24841093593697 -25.230591326770384 0.0
    vertex 17.29325235189622 -26.032579502030263 0.0
  endloop
endfacet
facet normal 0.0 0.0 -1.0
  outer loop
    vertex 17.29325235189622 -26.032579502030263 0.0
    vertex 17.24841093593697 -25.230591326770384 0.0
    vertex 17.662624498310066 -24.9127540815746 0.0
  endloop
endfacet
facet normal 0.0 0.0 -1.0
  outer loop
    vertex 17.29325235189622 -26.032579502030263 0.0
    vertex 17.662624498310066 -24.9127540815746 0.0
    vertex 17.498368166368202 -25.69902098489618 0.0
  endloop
endfacet
facet normal 0.0 0.0 -1.0
  outer loop
    vertex 17.498368166368202 -25.69902098489618 0.0
    vertex 17.662624498310066 -24.9127540815746 0.0
    vertex 17.78282612583746 -25.42991607785475 0.0
  endloop
endfacet
facet normal 0.0 0.0 -1.0
  outer loop
    vertex 17.78282612583746 -25.42991607785475 0.0
    vertex 17.662624498310066 -24.9127540815746 0.0
    vertex 18.144986408105023 -24.71295323656534 0.0
  endloop
endfacet
facet normal 0.0 0.0 -1.0
  outer loop
    vertex 17.78282612583746 -25.42991607785475 0.0
    vertex 18.144986408105023 -24.71295323656534 0.0
    vertex 18.127240890455173 -25.243603835603956 0.0
  endloop
endfacet
facet normal 0.0 0.0 -1.0
  outer loop
    vertex 18.127240890455173 -25.243603835603956 0.0
    vertex 18.144986408105023 -24.71295323656534 0.0
    vertex 18.508141163184952 -25.152781129557653 0.0
  endloop
endfacet
facet normal 0.0 0.0 -1.0
  outer loop
    vertex 18.508141163184952 -25.152781129557653 0.0
    vertex 18.144986408105023 -24.71295323656534 0.0
    vertex 18.662624498310066 -24.644804889143476 0.0
  endloop
endfacet
facet normal 0.0 0.0 -1.0
  outer loop
    vertex 18.508141163184952 -25.152781129557653 0.0
    vertex 18.662624498310066 -24.644804889143476 0.0
    vertex 18.662624498310066 -25.157065721041096 0.0
  endloop
endfacet
facet normal 0.0 0.0 -1.0
  outer loop
    vertex 18.662624498310066 -25.157065721041096 0.0
    vertex 18.662624498310066 -24.644804889143476 0.0
    vertex 19.180262588515106 -24.71295323656534 0.0
  endloop
endfacet
facet normal 0.0 0.0 -1.0
  outer loop
    vertex 18.662624498310066 -25.157065721041096 0.0
    vertex 19.180262588515106 -24.71295323656534 0.0
    vertex 18.899569219907725 -25.163637377041283 0.0
  endloop
endfacet
facet normal 0.0 0.0 -1.0
  outer loop
    vertex 18.899569219907725 -25.163637377041283 0.0
    vertex 19.180262588515106 -24.71295323656534 0.0
    vertex 19.274849885423286 -25.27543274272963 0.0
  endloop
endfacet
facet normal 0.0 0.0 -1.0
  outer loop
    vertex 19.274849885423286 -25.27543274272963 0.0
    vertex 19.180262588515106 -24.71295323656534 0.0
    vertex 19.66262449831007 -24.9127540815746 0.0
  endloop
endfacet
facet normal 0.0 0.0 -1.0
  outer loop
    vertex 19.274849885423286 -25.27543274272963 0.0
    vertex 19.66262449831007 -24.9127540815746 0.0
    vertex 19.60840840255737 -25.48054855720161 0.0
  endloop
endfacet
facet normal 0.0 0.0 -1.0
  outer loop
    vertex 19.60840840255737 -25.48054855720161 0.0
    vertex 19.66262449831007 -24.9127540815746 0.0
    vertex 19.8775133095988 -25.76500651667087 0.0
  endloop
endfacet
facet normal 0.0 0.0 -1.0
  outer loop
    vertex 19.8775133095988 -25.76500651667087 0.0
    vertex 19.66262449831007 -24.9127540815746 0.0
    vertex 20.076838060683162 -25.23059132677038 0.0
  endloop
endfacet
facet normal 0.0 0.0 -1.0
  outer loop
    vertex 19.8775133095988 -25.76500651667087 0.0
    vertex 20.076838060683162 -25.23059132677038 0.0
    vertex 20.063825551849593 -26.109421281288583 0.0
  endloop
endfacet
facet normal 0.0 0.0 -1.0
  outer loop
    vertex 20.063825551849593 -26.109421281288583 0.0
    vertex 20.076838060683162 -25.23059132677038 0.0
    vertex 20.154648257895897 -26.49032155401836 0.0
  endloop
endfacet
facet normal 0.0 0.0 -1.0
  outer loop
    vertex 20.154648257895897 -26.49032155401836 0.0
    vertex 20.076838060683162 -25.23059132677038 0.0
    vertex 20.394675305878945 -25.644804889143476 0.0
  endloop
endfacet
facet normal 0.0 0.0 -1.0
  outer loop
    vertex 17.170600738724243 -26.799288224268597 0.0
    vertex 17.24841093593697 -28.05901845151658 0.0
    vertex 16.930573690741188 -27.644804889143483 0.0
  endloop
endfacet
facet normal 0.0 0.0 -1.0
  outer loop
    vertex 17.24841093593697 -28.05901845151658 0.0
    vertex 17.170600738724243 -26.799288224268597 0.0
    vertex 17.261423444770546 -27.18018849699838 0.0
  endloop
endfacet
facet normal 0.0 0.0 -1.0
  outer loop
    vertex 17.24841093593697 -28.05901845151658 0.0
    vertex 17.261423444770546 -27.18018849699838 0.0
    vertex 17.662624498310066 -28.376855696712358 0.0
  endloop
endfacet
facet normal 0.0 0.0 -1.0
  outer loop
    vertex 17.662624498310066 -28.376855696712358 0.0
    vertex 17.261423444770546 -27.18018849699838 0.0
    vertex 17.44773568702134 -27.52460326161609 0.0
  endloop
endfacet
facet normal 0.0 0.0 -1.0
  outer loop
    vertex 17.662624498310066 -28.376855696712358 0.0
    vertex 17.44773568702134 -27.52460326161609 0.0
    vertex 17.71684059406277 -27.80906122108535 0.0
  endloop
endfacet
facet normal 0.0 0.0 -1.0
  outer loop
    vertex 17.662624498310066 -28.376855696712358 0.0
    vertex 17.71684059406277 -27.80906122108535 0.0
    vertex 18.144986408105023 -28.57665654172162 0.0
  endloop
endfacet
facet normal 0.0 0.0 -1.0
  outer loop
    vertex 18.144986408105023 -28.57665654172162 0.0
    vertex 17.71684059406277 -27.80906122108535 0.0
    vertex 18.050399111196853 -28.014177035557328 0.0
  endloop
endfacet
facet normal 0.0 0.0 -1.0
  outer loop
    vertex 18.144986408105023 -28.57665654172162 0.0
    vertex 18.050399111196853 -28.014177035557328 0.0
    vertex 18.425679776712414 -28.125972401245672 0.0
  endloop
endfacet
facet normal 0.0 0.0 -1.0
  outer loop
    vertex 18.144986408105023 -28.57665654172162 0.0
    vertex 18.425679776712414 -28.125972401245672 0.0
    vertex 18.662624498310066 -28.644804889143483 0.0
  endloop
endfacet
facet normal 0.0 0.0 -1.0
  outer loop
    vertex 18.662624498310066 -28.644804889143483 0.0
    vertex 18.425679776712414 -28.125972401245672 0.0
    vertex 18.662624498310066 -28.132544057245862 0.0
  endloop
endfacet
facet normal 0.0 0.0 -1.0
  outer loop
    vertex 18.662624498310066 -28.644804889143483 0.0
    vertex 18.662624498310066 -28.132544057245862 0.0
    vertex 18.817107833435188 -28.136828648729306 0.0
  endloop
endfacet
facet normal 0.0 0.0 -1.0
  outer loop
    vertex 18.662624498310066 -28.644804889143483 0.0
    vertex 18.817107833435188 -28.136828648729306 0.0
    vertex 19.18026258851511 -28.57665654172162 0.0
  endloop
endfacet
facet normal 0.0 0.0 -1.0
  outer loop
    vertex 19.18026258851511 -28.57665654172162 0.0
    vertex 18.817107833435188 -28.136828648729306 0.0
    vertex 19.19800810616497 -28.046005942683003 0.0
  endloop
endfacet
facet normal 0.0 0.0 -1.0
  outer loop
    vertex 19.18026258851511 -28.57665654172162 0.0
    vertex 19.19800810616497 -28.046005942683003 0.0
    vertex 19.66262449831007 -28.376855696712358 0.0
  endloop
endfacet
facet normal 0.0 0.0 -1.0
  outer loop
    vertex 19.66262449831007 -28.376855696712358 0.0
    vertex 19.19800810616497 -28.046005942683003 0.0
    vertex 19.54242287078268 -27.85969370043221 0.0
  endloop
endfacet
facet normal 0.0 0.0 -1.0
  outer loop
    vertex 19.66262449831007 -28.376855696712358 0.0
    vertex 19.54242287078268 -27.85969370043221 0.0
    vertex 19.82688083025194 -27.590588793390776 0.0
  endloop
endfacet
facet normal 0.0 0.0 -1.0
  outer loop
    vertex 19.66262449831007 -28.376855696712358 0.0
    vertex 19.82688083025194 -27.590588793390776 0.0
    vertex 20.076838060683162 -28.05901845151658 0.0
  endloop
endfacet
facet normal 0.0 0.0 -1.0
  outer loop
    vertex 20.076838060683162 -28.05901845151658 0.0
    vertex 19.82688083025194 -27.590588793390776 0.0
    vertex 20.031996644723918 -27.257030276256696 0.0
  endloop
endfacet
facet normal 0.0 0.0 -1.0
  outer loop
    vertex 20.076838060683162 -28.05901845151658 0.0
    vertex 20.031996644723918 -27.257030276256696 0.0
    vertex 20.143792010412266 -26.881749610741135 0.0
  endloop
endfacet
facet normal 0.0 0.0 -1.0
  outer loop
    vertex 20.076838060683162 -28.05901845151658 0.0
    vertex 20.143792010412266 -26.881749610741135 0.0
    vertex 20.39467530587895 -27.64480488914348 0.0
  endloop
endfacet
facet normal 0.0 0.0 -1.0
  outer loop
    vertex 20.39467530587895 -27.64480488914348 0.0
    vertex 20.143792010412266 -26.881749610741135 0.0
    vertex 20.150363666412453 -26.64480488914347 0.0
  endloop
endfacet
facet normal 0.0 0.0 -1.0
  outer loop
    vertex 20.39467530587895 -27.64480488914348 0.0
    vertex 20.150363666412453 -26.64480488914347 0.0
    vertex 20.154648257895897 -26.49032155401836 0.0
  endloop
endfacet
facet normal 0.0 0.0 -1.0
  outer loop
    vertex 20.39467530587895 -27.64480488914348 0.0
    vertex 20.154648257895897 -26.49032155401836 0.0
    vertex 20.394675305878945 -25.644804889143476 0.0
  endloop
endfacet
facet normal 0.0 0.0 -1.0
  outer loop
    vertex 20.39467530587895 -27.64480488914348 0.0
    vertex 20.394675305878945 -25.644804889143476 0.0
    vertex 20.594476150888205 -26.127166798938433 0.0
  endloop
endfacet
facet normal 0.0 0.0 -1.0
  outer loop
    vertex 20.39467530587895 -27.64480488914348 0.0
    vertex 20.594476150888205 -26.127166798938433 0.0
    vertex 20.594476150888205 -27.16244297934852 0.0
  endloop
endfacet
facet normal 0.0 0.0 -1.0
  outer loop
    vertex 20.594476150888205 -27.16244297934852 0.0
    vertex 20.594476150888205 -26.127166798938433 0.0
    vertex 20.66262449831007 -26.64480488914348 0.0
  endloop
endfacet
facet normal 0.13052619222005143 0.9914448613738105 0.0
  outer loop
    vertex 18.144986408105023 -28.57665654172162 3.0
    vertex 18.662624498310066 -28.644804889143483 1.5
    vertex 18.144986408105023 -28.57665654172162 1.5
  endloop
endfacet
facet normal 0.13052619222005143 0.9914448613738105 0.0
  outer loop
    vertex 18.662624498310066 -28.644804889143483 1.5
    vertex 18.144986408105023 -28.57665654172162 3.0
    vertex 18.662624498310066 -28.644804889143483 3.0
  endloop
endfacet
facet normal -0.13052619222005143 0.9914448613738105 -0.0
  outer loop
    vertex 18.662624498310066 -28.644804889143483 3.0
    vertex 19.18026258851511 -28.57665654172162 1.5
    vertex 18.662624498310066 -28.644804889143483 1.5
  endloop
endfacet
facet normal -0.13052619222005143 0.9914448613738105 -0.0
  outer loop
    vertex 19.18026258851511 -28.57665654172162 1.5
    vertex 18.662624498310066 -28.644804889143483 3.0
    vertex 19.18026258851511 -28.57665654172162 3.0
  endloop
endfacet
facet normal -0.793353340291236 0.6087614290087195 -0.0
  outer loop
    vertex 20.39467530587895 -27.64480488914348 3.0
    vertex 20.076838060683162 -28.05901845151658 1.5
    vertex 20.076838060683162 -28.05901845151658 3.0
  endloop
endfacet
facet normal -0.793353340291236 0.6087614290087195 -0.0
  outer loop
    vertex 20.076838060683162 -28.05901845151658 1.5
    vertex 20.39467530587895 -27.64480488914348 3.0
    vertex 20.39467530587895 -27.64480488914348 1.5
  endloop
endfacet
facet normal 0.13052619222005143 -0.9914448613738105 -0.0
  outer loop
    vertex 18.662624498310066 -24.644804889143476 3.0
    vertex 18.144986408105023 -24.71295323656534 1.5
    vertex 18.662624498310066 -24.644804889143476 1.5
  endloop
endfacet
facet normal 0.13052619222005143 -0.9914448613738105 -0.0
  outer loop
    vertex 18.144986408105023 -24.71295323656534 1.5
    vertex 18.662624498310066 -24.644804889143476 3.0
    vertex 18.144986408105023 -24.71295323656534 3.0
  endloop
endfacet
facet normal -0.6087614290087179 0.7933533402912372 -0.0
  outer loop
    vertex 19.66262449831007 -28.376855696712358 3.0
    vertex 20.076838060683162 -28.05901845151658 1.5
    vertex 19.66262449831007 -28.376855696712358 1.5
  endloop
endfacet
facet normal -0.6087614290087179 0.7933533402912372 -0.0
  outer loop
    vertex 20.076838060683162 -28.05901845151658 1.5
    vertex 19.66262449831007 -28.376855696712358 3.0
    vertex 20.076838060683162 -28.05901845151658 3.0
  endloop
endfacet
facet normal 0.9914448613738104 -0.13052619222005216 -0.0
  outer loop
    vertex 16.730772845731927 -26.12716679893844 1.5
    vertex 16.662624498310066 -26.64480488914348 3.0
    vertex 16.662624498310066 -26.64480488914348 1.5
  endloop
endfacet
facet normal 0.9914448613738104 -0.13052619222005216 -0.0
  outer loop
    vertex 16.662624498310066 -26.64480488914348 3.0
    vertex 16.730772845731927 -26.12716679893844 1.5
    vertex 16.730772845731927 -26.12716679893844 3.0
  endloop
endfacet
facet normal 0.6087614290087179 0.7933533402912372 0.0
  outer loop
    vertex 17.24841093593697 -28.05901845151658 3.0
    vertex 17.662624498310066 -28.376855696712358 1.5
    vertex 17.24841093593697 -28.05901845151658 1.5
  endloop
endfacet
facet normal 0.6087614290087179 0.7933533402912372 0.0
  outer loop
    vertex 17.662624498310066 -28.376855696712358 1.5
    vertex 17.24841093593697 -28.05901845151658 3.0
    vertex 17.662624498310066 -28.376855696712358 3.0
  endloop
endfacet
facet normal -0.9914448613738104 0.13052619222005216 -0.0
  outer loop
    vertex 20.66262449831007 -26.64480488914348 3.0
    vertex 20.594476150888205 -27.16244297934852 1.5
    vertex 20.594476150888205 -27.16244297934852 3.0
  endloop
endfacet
facet normal -0.9914448613738104 0.13052619222005216 -0.0
  outer loop
    vertex 20.594476150888205 -27.16244297934852 1.5
    vertex 20.66262449831007 -26.64480488914348 3.0
    vertex 20.66262449831007 -26.64480488914348 1.5
  endloop
endfacet
facet normal -0.6087614290087179 -0.7933533402912372 -0.0
  outer loop
    vertex 20.076838060683162 -25.23059132677038 3.0
    vertex 19.66262449831007 -24.9127540815746 1.5
    vertex 20.076838060683162 -25.23059132677038 1.5
  endloop
endfacet
facet normal -0.6087614290087179 -0.7933533402912372 -0.0
  outer loop
    vertex 19.66262449831007 -24.9127540815746 1.5
    vertex 20.076838060683162 -25.23059132677038 3.0
    vertex 19.66262449831007 -24.9127540815746 3.0
  endloop
endfacet
facet normal -0.3826834323650914 0.9238795325112863 -0.0
  outer loop
    vertex 19.18026258851511 -28.57665654172162 3.0
    vertex 19.66262449831007 -28.376855696712358 1.5
    vertex 19.18026258851511 -28.57665654172162 1.5
  endloop
endfacet
facet normal -0.3826834323650914 0.9238795325112863 -0.0
  outer loop
    vertex 19.66262449831007 -28.376855696712358 1.5
    vertex 19.18026258851511 -28.57665654172162 3.0
    vertex 19.66262449831007 -28.376855696712358 3.0
  endloop
endfacet
facet normal -0.9238795325112881 0.3826834323650867 -0.0
  outer loop
    vertex 20.594476150888205 -27.16244297934852 3.0
    vertex 20.39467530587895 -27.64480488914348 1.5
    vertex 20.39467530587895 -27.64480488914348 3.0
  endloop
endfacet
facet normal -0.9238795325112881 0.3826834323650867 -0.0
  outer loop
    vertex 20.39467530587895 -27.64480488914348 1.5
    vertex 20.594476150888205 -27.16244297934852 3.0
    vertex 20.594476150888205 -27.16244297934852 1.5
  endloop
endfacet
facet normal -0.13052619222005216 -0.9914448613738104 -0.0
  outer loop
    vertex 19.180262588515106 -24.71295323656534 3.0
    vertex 18.662624498310066 -24.644804889143476 1.5
    vertex 19.180262588515106 -24.71295323656534 1.5
  endloop
endfacet
facet normal -0.13052619222005216 -0.9914448613738104 -0.0
  outer loop
    vertex 18.662624498310066 -24.644804889143476 1.5
    vertex 19.180262588515106 -24.71295323656534 3.0
    vertex 18.662624498310066 -24.644804889143476 3.0
  endloop
endfacet
facet normal 0.7933533402912367 -0.6087614290087188 -0.0
  outer loop
    vertex 17.24841093593697 -25.230591326770384 1.5
    vertex 16.930573690741188 -25.644804889143483 3.0
    vertex 16.930573690741188 -25.644804889143483 1.5
  endloop
endfacet
facet normal 0.7933533402912367 -0.6087614290087188 -0.0
  outer loop
    vertex 16.930573690741188 -25.644804889143483 3.0
    vertex 17.24841093593697 -25.230591326770384 1.5
    vertex 17.24841093593697 -25.230591326770384 3.0
  endloop
endfacet
facet normal 0.9238795325112878 0.38268343236508756 0.0
  outer loop
    vertex 16.730772845731927 -27.16244297934852 1.5
    vertex 16.930573690741188 -27.644804889143483 3.0
    vertex 16.930573690741188 -27.644804889143483 1.5
  endloop
endfacet
facet normal 0.9238795325112878 0.38268343236508756 0.0
  outer loop
    vertex 16.930573690741188 -27.644804889143483 3.0
    vertex 16.730772845731927 -27.16244297934852 1.5
    vertex 16.730772845731927 -27.16244297934852 3.0
  endloop
endfacet
facet normal -0.7933533402912347 -0.6087614290087213 -0.0
  outer loop
    vertex 20.076838060683162 -25.23059132677038 3.0
    vertex 20.394675305878945 -25.644804889143476 1.5
    vertex 20.394675305878945 -25.644804889143476 3.0
  endloop
endfacet
facet normal -0.7933533402912347 -0.6087614290087213 -0.0
  outer loop
    vertex 20.394675305878945 -25.644804889143476 1.5
    vertex 20.076838060683162 -25.23059132677038 3.0
    vertex 20.076838060683162 -25.23059132677038 1.5
  endloop
endfacet
facet normal 0.6087614290087213 -0.7933533402912347 -0.0
  outer loop
    vertex 17.662624498310066 -24.9127540815746 3.0
    vertex 17.24841093593697 -25.230591326770384 1.5
    vertex 17.662624498310066 -24.9127540815746 1.5
  endloop
endfacet
facet normal 0.6087614290087213 -0.7933533402912347 -0.0
  outer loop
    vertex 17.24841093593697 -25.230591326770384 1.5
    vertex 17.662624498310066 -24.9127540815746 3.0
    vertex 17.24841093593697 -25.230591326770384 3.0
  endloop
endfacet
facet normal -0.9238795325112863 -0.3826834323650914 -0.0
  outer loop
    vertex 20.394675305878945 -25.644804889143476 3.0
    vertex 20.594476150888205 -26.127166798938433 1.5
    vertex 20.594476150888205 -26.127166798938433 3.0
  endloop
endfacet
facet normal -0.9238795325112863 -0.3826834323650914 -0.0
  outer loop
    vertex 20.594476150888205 -26.127166798938433 1.5
    vertex 20.394675305878945 -25.644804889143476 3.0
    vertex 20.394675305878945 -25.644804889143476 1.5
  endloop
endfacet
facet normal -0.3826834323650894 -0.923879532511287 -0.0
  outer loop
    vertex 19.66262449831007 -24.9127540815746 3.0
    vertex 19.180262588515106 -24.71295323656534 1.5
    vertex 19.66262449831007 -24.9127540815746 1.5
  endloop
endfacet
facet normal -0.3826834323650894 -0.923879532511287 -0.0
  outer loop
    vertex 19.180262588515106 -24.71295323656534 1.5
    vertex 19.66262449831007 -24.9127540815746 3.0
    vertex 19.180262588515106 -24.71295323656534 3.0
  endloop
endfacet
facet normal 0.9914448613738104 0.13052619222005216 0.0
  outer loop
    vertex 16.662624498310066 -26.64480488914348 1.5
    vertex 16.730772845731927 -27.16244297934852 3.0
    vertex 16.730772845731927 -27.16244297934852 1.5
  endloop
endfacet
facet normal 0.9914448613738104 0.13052619222005216 0.0
  outer loop
    vertex 16.730772845731927 -27.16244297934852 3.0
    vertex 16.662624498310066 -26.64480488914348 1.5
    vertex 16.662624498310066 -26.64480488914348 3.0
  endloop
endfacet
facet normal 0.0 0.0 1.0
  outer loop
    vertex 3.6626244983100746 -41.64480488914346 3.0
    vertex 17.24841093593697 -28.05901845151658 3.0
    vertex 3.6626244983100746 -11.644804889143474 3.0
  endloop
endfacet
facet normal 0.0 0.0 1.0
  outer loop
    vertex 17.24841093593697 -28.05901845151658 3.0
    vertex 3.6626244983100746 -41.64480488914346 3.0
    vertex 33.66262449831005 -41.64480488914346 3.0
  endloop
endfacet
facet normal 0.0 0.0 1.0
  outer loop
    vertex 3.6626244983100746 -11.644804889143474 3.0
    vertex 17.24841093593697 -28.05901845151658 3.0
    vertex 16.930573690741188 -27.644804889143483 3.0
  endloop
endfacet
facet normal 0.0 0.0 1.0
  outer loop
    vertex 3.6626244983100746 -11.644804889143474 3.0
    vertex 16.930573690741188 -27.644804889143483 3.0
    vertex 16.730772845731927 -27.16244297934852 3.0
  endloop
endfacet
facet normal 0.0 0.0 1.0
  outer loop
    vertex 3.6626244983100746 -11.644804889143474 3.0
    vertex 16.730772845731927 -27.16244297934852 3.0
    vertex 16.662624498310066 -26.64480488914348 3.0
  endloop
endfacet
facet normal 0.0 0.0 1.0
  outer loop
    vertex 17.24841093593697 -28.05901845151658 3.0
    vertex 33.66262449831005 -41.64480488914346 3.0
    vertex 17.662624498310066 -28.376855696712358 3.0
  endloop
endfacet
facet normal 0.0 0.0 1.0
  outer loop
    vertex 17.662624498310066 -28.376855696712358 3.0
    vertex 33.66262449831005 -41.64480488914346 3.0
    vertex 18.144986408105023 -28.57665654172162 3.0
  endloop
endfacet
facet normal 0.0 0.0 1.0
  outer loop
    vertex 18.144986408105023 -28.57665654172162 3.0
    vertex 33.66262449831005 -41.64480488914346 3.0
    vertex 18.662624498310066 -28.644804889143483 3.0
  endloop
endfacet
facet normal 0.0 0.0 1.0
  outer loop
    vertex 18.662624498310066 -28.644804889143483 3.0
    vertex 33.66262449831005 -41.64480488914346 3.0
    vertex 19.18026258851511 -28.57665654172162 3.0
  endloop
endfacet
facet normal 0.0 0.0 1.0
  outer loop
    vertex 19.18026258851511 -28.57665654172162 3.0
    vertex 33.66262449831005 -41.64480488914346 3.0
    vertex 19.66262449831007 -28.376855696712358 3.0
  endloop
endfacet
facet normal 0.0 0.0 1.0
  outer loop
    vertex 19.66262449831007 -28.376855696712358 3.0
    vertex 33.66262449831005 -41.64480488914346 3.0
    vertex 20.076838060683162 -28.05901845151658 3.0
  endloop
endfacet
facet normal 0.0 0.0 1.0
  outer loop
    vertex 20.076838060683162 -28.05901845151658 3.0
    vertex 33.66262449831005 -41.64480488914346 3.0
    vertex 20.39467530587895 -27.64480488914348 3.0
  endloop
endfacet
facet normal 0.0 0.0 1.0
  outer loop
    vertex 20.39467530587895 -27.64480488914348 3.0
    vertex 33.66262449831005 -41.64480488914346 3.0
    vertex 20.594476150888205 -27.16244297934852 3.0
  endloop
endfacet
facet normal 0.0 0.0 1.0
  outer loop
    vertex 20.594476150888205 -27.16244297934852 3.0
    vertex 33.66262449831005 -41.64480488914346 3.0
    vertex 20.66262449831007 -26.64480488914348 3.0
  endloop
endfacet
facet normal 0.0 0.0 1.0
  outer loop
    vertex 3.6626244983100746 -11.644804889143474 3.0
    vertex 17.24841093593697 -25.230591326770384 3.0
    vertex 33.66262449831005 -11.644804889143474 3.0
  endloop
endfacet
facet normal 0.0 0.0 1.0
  outer loop
    vertex 17.24841093593697 -25.230591326770384 3.0
    vertex 3.6626244983100746 -11.644804889143474 3.0
    vertex 16.930573690741188 -25.644804889143483 3.0
  endloop
endfacet
facet normal 0.0 0.0 1.0
  outer loop
    vertex 16.930573690741188 -25.644804889143483 3.0
    vertex 3.6626244983100746 -11.644804889143474 3.0
    vertex 16.730772845731927 -26.12716679893844 3.0
  endloop
endfacet
facet normal 0.0 0.0 1.0
  outer loop
    vertex 16.730772845731927 -26.12716679893844 3.0
    vertex 3.6626244983100746 -11.644804889143474 3.0
    vertex 16.662624498310066 -26.64480488914348 3.0
  endloop
endfacet
facet normal 0.0 0.0 1.0
  outer loop
    vertex 33.66262449831005 -11.644804889143474 3.0
    vertex 17.24841093593697 -25.230591326770384 3.0
    vertex 17.662624498310066 -24.9127540815746 3.0
  endloop
endfacet
facet normal 0.0 0.0 1.0
  outer loop
    vertex 33.66262449831005 -11.644804889143474 3.0
    vertex 17.662624498310066 -24.9127540815746 3.0
    vertex 18.144986408105023 -24.71295323656534 3.0
  endloop
endfacet
facet normal 0.0 0.0 1.0
  outer loop
    vertex 33.66262449831005 -11.644804889143474 3.0
    vertex 18.144986408105023 -24.71295323656534 3.0
    vertex 18.662624498310066 -24.644804889143476 3.0
  endloop
endfacet
facet normal 0.0 0.0 1.0
  outer loop
    vertex 33.66262449831005 -11.644804889143474 3.0
    vertex 18.662624498310066 -24.644804889143476 3.0
    vertex 19.180262588515106 -24.71295323656534 3.0
  endloop
endfacet
facet normal 0.0 0.0 1.0
  outer loop
    vertex 33.66262449831005 -11.644804889143474 3.0
    vertex 19.180262588515106 -24.71295323656534 3.0
    vertex 19.66262449831007 -24.9127540815746 3.0
  endloop
endfacet
facet normal 0.0 0.0 1.0
  outer loop
    vertex 33.66262449831005 -11.644804889143474 3.0
    vertex 19.66262449831007 -24.9127540815746 3.0
    vertex 20.076838060683162 -25.23059132677038 3.0
  endloop
endfacet
facet normal 0.0 0.0 1.0
  outer loop
    vertex 33.66262449831005 -11.644804889143474 3.0
    vertex 20.076838060683162 -25.23059132677038 3.0
    vertex 20.394675305878945 -25.644804889143476 3.0
  endloop
endfacet
facet normal 0.0 0.0 1.0
  outer loop
    vertex 33.66262449831005 -11.644804889143474 3.0
    vertex 20.394675305878945 -25.644804889143476 3.0
    vertex 20.594476150888205 -26.127166798938433 3.0
  endloop
endfacet
facet normal 0.0 0.0 1.0
  outer loop
    vertex 33.66262449831005 -11.644804889143474 3.0
    vertex 20.594476150888205 -26.127166798938433 3.0
    vertex 20.66262449831007 -26.64480488914348 3.0
  endloop
endfacet
facet normal 0.0 0.0 1.0
  outer loop
    vertex 33.66262449831005 -11.644804889143474 3.0
    vertex 20.66262449831007 -26.64480488914348 3.0
    vertex 33.66262449831005 -41.64480488914346 3.0
  endloop
endfacet
facet normal 0.0 1.0 0.0
  outer loop
    vertex 3.6626244983100746 -11.644804889143474 3.0
    vertex 33.66262449831005 -11.644804889143474 0.0
    vertex 3.6626244983100746 -11.644804889143474 0.0
  endloop
endfacet
facet normal 0.0 1.0 0.0
  outer loop
    vertex 33.66262449831005 -11.644804889143474 0.0
    vertex 3.6626244983100746 -11.644804889143474 3.0
    vertex 33.66262449831005 -11.644804889143474 3.0
  endloop
endfacet
facet normal 1.0 0.0 0.0
  outer loop
    vertex 33.66262449831005 -11.644804889143474 0.0
    vertex 33.66262449831005 -41.64480488914346 3.0
    vertex 33.66262449831005 -41.64480488914346 0.0
  endloop
endfacet
facet normal 1.0 0.0 0.0
  outer loop
    vertex 33.66262449831005 -41.64480488914346 3.0
    vertex 33.66262449831005 -11.644804889143474 0.0
    vertex 33.66262449831005 -11.644804889143474 3.0
  endloop
endfacet
facet normal -0.0 -1.0 -0.0
  outer loop
    vertex 33.66262449831005 -41.64480488914346 3.0
    vertex 3.6626244983100746 -41.64480488914346 0.0
    vertex 33.66262449831005 -41.64480488914346 0.0
  endloop
endfacet
facet normal -0.0 -1.0 -0.0
  outer loop
    vertex 3.6626244983100746 -41.64480488914346 0.0
    vertex 33.66262449831005 -41.64480488914346 3.0
    vertex 3.6626244983100746 -41.64480488914346 3.0
  endloop
endfacet
facet normal -1.0 0.0 0.0
  outer loop
    vertex 3.6626244983100746 -11.644804889143474 3.0
    vertex 3.6626244983100746 -41.64480488914346 0.0
    vertex 3.6626244983100746 -41.64480488914346 3.0
  endloop
endfacet
facet normal -1.0 0.0 0.0
  outer loop
    vertex 3.6626244983100746 -41.64480488914346 0.0
    vertex 3.6626244983100746 -11.644804889143474 3.0
    vertex 3.6626244983100746 -11.644804889143474 0.0
  endloop
endfacet
facet normal -0.6872309239608524 0.7264390250749977 0.0
  outer loop
    vertex 19.54242287078268 -27.85969370043221 1.5
    vertex 19.82688083025194 -27.590588793390776 0.0
    vertex 19.54242287078268 -27.85969370043221 0.0
  endloop
endfacet
facet normal -0.6872309239608524 0.7264390250749977 0.0
  outer loop
    vertex 19.82688083025194 -27.590588793390776 0.0
    vertex 19.54242287078268 -27.85969370043221 1.5
    vertex 19.82688083025194 -27.590588793390776 1.5
  endloop
endfacet
endsolid Turret
