solid Turret
facet normal -0.1305261922200504 -0.9914448613738107 5.588163381472384e-17
  outer loop
    vertex 151.6925945417825 7.140021808256326 26.00000000000014
    vertex 150.8514326451993 7.2507628728168525 6.2000000000001405
    vertex 151.6925945417825 7.140021808256326 6.2000000000001405
  endloop
endfacet
facet normal -0.1305261922200504 -0.9914448613738107 5.588163381472384e-17
  outer loop
    vertex 150.8514326451993 7.2507628728168525 6.2000000000001405
    vertex 151.6925945417825 7.140021808256326 26.00000000000014
    vertex 150.8514326451993 7.2507628728168525 26.00000000000014
  endloop
endfacet
facet normal 0.9914448613738085 -0.13052619222006676 -4.244631498739923e-16
  outer loop
    vertex 154.9425945417825 10.390021808256321 6.20000000000014
    vertex 154.83185347722198 9.548859911673132 26.00000000000013
    vertex 154.83185347722198 9.548859911673132 6.20000000000014
  endloop
endfacet
facet normal 0.9914448613738085 -0.13052619222006676 -4.244631498739923e-16
  outer loop
    vertex 154.83185347722198 9.548859911673132 26.00000000000013
    vertex 154.9425945417825 10.390021808256321 6.20000000000014
    vertex 154.9425945417825 10.390021808256321 26.00000000000013
  endloop
endfacet
facet normal 0.3826834323650932 0.9238795325112853 -1.638366604484673e-16
  outer loop
    vertex 152.53375643836569 13.52928074369579 6.2000000000001405
    vertex 153.3175945417825 13.204604370555744 26.00000000000013
    vertex 153.3175945417825 13.204604370555744 6.20000000000014
  endloop
endfacet
facet normal 0.3826834323650932 0.9238795325112853 -1.638366604484673e-16
  outer loop
    vertex 153.3175945417825 13.204604370555744 26.00000000000013
    vertex 152.53375643836569 13.52928074369579 6.2000000000001405
    vertex 152.53375643836569 13.52928074369579 26.00000000000014
  endloop
endfacet
facet normal 0.13052619222005205 -0.9914448613738104 -5.58816338147245e-17
  outer loop
    vertex 152.53375643836569 7.250762872816854 26.00000000000014
    vertex 151.6925945417825 7.140021808256326 6.2000000000001405
    vertex 152.53375643836569 7.250762872816854 6.2000000000001405
  endloop
endfacet
facet normal 0.13052619222005205 -0.9914448613738104 -5.58816338147245e-17
  outer loop
    vertex 151.6925945417825 7.140021808256326 6.2000000000001405
    vertex 152.53375643836569 7.250762872816854 26.00000000000014
    vertex 151.6925945417825 7.140021808256326 26.00000000000014
  endloop
endfacet
facet normal 0.7933533402912345 -0.6087614290087214 -3.396550538538772e-16
  outer loop
    vertex 154.50717710408193 8.765021808256325 6.20000000000014
    vertex 153.99069158063878 8.091924769400046 26.00000000000013
    vertex 153.99069158063878 8.091924769400046 6.20000000000014
  endloop
endfacet
facet normal 0.7933533402912345 -0.6087614290087214 -3.396550538538772e-16
  outer loop
    vertex 153.99069158063878 8.091924769400046 26.00000000000013
    vertex 154.50717710408193 8.765021808256325 6.20000000000014
    vertex 154.50717710408193 8.765021808256325 26.00000000000013
  endloop
endfacet
facet normal -0.9238795325112873 -0.38268343236508867 3.95536687668602e-16
  outer loop
    vertex 148.55333560634304 9.548859911673128 26.00000000000014
    vertex 148.8780119794831 8.765021808256323 6.200000000000142
    vertex 148.8780119794831 8.765021808256323 26.00000000000014
  endloop
endfacet
facet normal -0.9238795325112873 -0.38268343236508867 3.95536687668602e-16
  outer loop
    vertex 148.8780119794831 8.765021808256323 6.200000000000142
    vertex 148.55333560634304 9.548859911673128 26.00000000000014
    vertex 148.55333560634304 9.548859911673128 6.200000000000142
  endloop
endfacet
facet normal -0.9238795325112876 0.3826834323650881 3.9553668766860218e-16
  outer loop
    vertex 148.8780119794831 12.015021808256318 26.00000000000014
    vertex 148.55333560634304 11.231183704839511 6.200000000000142
    vertex 148.55333560634304 11.231183704839511 26.00000000000014
  endloop
endfacet
facet normal -0.9238795325112876 0.3826834323650881 3.9553668766860218e-16
  outer loop
    vertex 148.55333560634304 11.231183704839511 6.200000000000142
    vertex 148.8780119794831 12.015021808256318 26.00000000000014
    vertex 148.8780119794831 12.015021808256318 6.200000000000142
  endloop
endfacet
facet normal -0.3826834323650932 -0.9238795325112853 1.638366604484673e-16
  outer loop
    vertex 150.8514326451993 7.2507628728168525 26.00000000000014
    vertex 150.0675945417825 7.5754392459568995 6.2000000000001405
    vertex 150.8514326451993 7.2507628728168525 6.2000000000001405
  endloop
endfacet
facet normal -0.3826834323650932 -0.9238795325112853 1.638366604484673e-16
  outer loop
    vertex 150.0675945417825 7.5754392459568995 6.2000000000001405
    vertex 150.8514326451993 7.2507628728168525 26.00000000000014
    vertex 150.0675945417825 7.5754392459568995 26.00000000000014
  endloop
endfacet
facet normal -0.793353340291235 -0.6087614290087207 3.3965505385387744e-16
  outer loop
    vertex 148.8780119794831 8.765021808256323 26.00000000000014
    vertex 149.39449750292624 8.091924769400043 6.200000000000142
    vertex 149.39449750292624 8.091924769400043 26.00000000000014
  endloop
endfacet
facet normal -0.793353340291235 -0.6087614290087207 3.3965505385387744e-16
  outer loop
    vertex 149.39449750292624 8.091924769400043 6.200000000000142
    vertex 148.8780119794831 8.765021808256323 26.00000000000014
    vertex 148.8780119794831 8.765021808256323 6.200000000000142
  endloop
endfacet
facet normal -0.608761429008717 -0.7933533402912382 2.606264894255258e-16
  outer loop
    vertex 150.0675945417825 7.5754392459568995 26.00000000000014
    vertex 149.39449750292624 8.091924769400043 6.200000000000142
    vertex 150.0675945417825 7.5754392459568995 6.2000000000001405
  endloop
endfacet
facet normal -0.608761429008717 -0.7933533402912382 2.606264894255258e-16
  outer loop
    vertex 149.39449750292624 8.091924769400043 6.200000000000142
    vertex 150.0675945417825 7.5754392459568995 26.00000000000014
    vertex 149.39449750292624 8.091924769400043 26.00000000000014
  endloop
endfacet
facet normal 0.6087614290087191 -0.7933533402912364 -2.606264894255267e-16
  outer loop
    vertex 153.99069158063878 8.091924769400046 26.00000000000013
    vertex 153.3175945417825 7.5754392459568995 6.20000000000014
    vertex 153.99069158063878 8.091924769400046 6.20000000000014
  endloop
endfacet
facet normal 0.6087614290087191 -0.7933533402912364 -2.606264894255267e-16
  outer loop
    vertex 153.3175945417825 7.5754392459568995 6.20000000000014
    vertex 153.99069158063878 8.091924769400046 26.00000000000013
    vertex 153.3175945417825 7.5754392459568995 26.00000000000013
  endloop
endfacet
facet normal -0.9914448613738085 0.13052619222006695 4.2446314987399236e-16
  outer loop
    vertex 148.55333560634304 11.231183704839511 26.00000000000014
    vertex 148.4425945417825 10.390021808256321 6.200000000000142
    vertex 148.4425945417825 10.390021808256321 26.00000000000014
  endloop
endfacet
facet normal -0.9914448613738085 0.13052619222006695 4.2446314987399236e-16
  outer loop
    vertex 148.4425945417825 10.390021808256321 6.200000000000142
    vertex 148.55333560634304 11.231183704839511 26.00000000000014
    vertex 148.55333560634304 11.231183704839511 6.200000000000142
  endloop
endfacet
facet normal -0.9914448613738085 -0.1305261922200663 4.2446314987399236e-16
  outer loop
    vertex 148.4425945417825 10.390021808256321 26.00000000000014
    vertex 148.55333560634304 9.548859911673128 6.200000000000142
    vertex 148.55333560634304 9.548859911673128 26.00000000000014
  endloop
endfacet
facet normal -0.9914448613738085 -0.1305261922200663 4.2446314987399236e-16
  outer loop
    vertex 148.55333560634304 9.548859911673128 6.200000000000142
    vertex 148.4425945417825 10.390021808256321 26.00000000000014
    vertex 148.4425945417825 10.390021808256321 6.200000000000142
  endloop
endfacet
facet normal 0.6087614290087181 0.7933533402912373 -2.6062648942552624e-16
  outer loop
    vertex 153.3175945417825 13.204604370555744 26.00000000000013
    vertex 153.99069158063878 12.688118847112598 6.20000000000014
    vertex 153.3175945417825 13.204604370555744 6.20000000000014
  endloop
endfacet
facet normal 0.6087614290087181 0.7933533402912373 -2.6062648942552624e-16
  outer loop
    vertex 153.99069158063878 12.688118847112598 6.20000000000014
    vertex 153.3175945417825 13.204604370555744 26.00000000000013
    vertex 153.99069158063878 12.688118847112598 26.00000000000013
  endloop
endfacet
facet normal -0.3826834323650905 0.9238795325112866 1.6383666044846607e-16
  outer loop
    vertex 150.0675945417825 13.204604370555744 26.00000000000014
    vertex 150.8514326451993 13.529280743695788 6.2000000000001405
    vertex 150.0675945417825 13.204604370555744 6.2000000000001405
  endloop
endfacet
facet normal -0.3826834323650905 0.9238795325112866 1.6383666044846607e-16
  outer loop
    vertex 150.8514326451993 13.529280743695788 6.2000000000001405
    vertex 150.0675945417825 13.204604370555744 26.00000000000014
    vertex 150.8514326451993 13.529280743695788 26.00000000000014
  endloop
endfacet
facet normal 0.9238795325112876 0.3826834323650881 -3.9553668766860218e-16
  outer loop
    vertex 154.50717710408193 12.01502180825632 6.20000000000014
    vertex 154.83185347722198 11.231183704839513 26.00000000000013
    vertex 154.83185347722198 11.231183704839513 6.20000000000014
  endloop
endfacet
facet normal 0.9238795325112876 0.3826834323650881 -3.9553668766860218e-16
  outer loop
    vertex 154.83185347722198 11.231183704839513 26.00000000000013
    vertex 154.50717710408193 12.01502180825632 6.20000000000014
    vertex 154.50717710408193 12.01502180825632 26.00000000000013
  endloop
endfacet
facet normal 0.9914448613738085 0.13052619222006653 -4.2446314987399236e-16
  outer loop
    vertex 154.83185347722198 11.231183704839513 6.20000000000014
    vertex 154.9425945417825 10.390021808256321 26.00000000000013
    vertex 154.9425945417825 10.390021808256321 6.20000000000014
  endloop
endfacet
facet normal 0.9914448613738085 0.13052619222006653 -4.2446314987399236e-16
  outer loop
    vertex 154.9425945417825 10.390021808256321 26.00000000000013
    vertex 154.83185347722198 11.231183704839513 6.20000000000014
    vertex 154.83185347722198 11.231183704839513 26.00000000000013
  endloop
endfacet
facet normal -0.6087614290087191 0.7933533402912364 2.606264894255267e-16
  outer loop
    vertex 149.39449750292624 12.688118847112596 6.200000000000142
    vertex 150.0675945417825 13.204604370555744 26.00000000000014
    vertex 150.0675945417825 13.204604370555744 6.2000000000001405
  endloop
endfacet
facet normal -0.6087614290087191 0.7933533402912364 2.606264894255267e-16
  outer loop
    vertex 150.0675945417825 13.204604370555744 26.00000000000014
    vertex 149.39449750292624 12.688118847112596 6.200000000000142
    vertex 149.39449750292624 12.688118847112596 26.00000000000014
  endloop
endfacet
facet normal -0.13052619222005366 0.9914448613738102 5.588163381472521e-17
  outer loop
    vertex 150.8514326451993 13.529280743695788 26.00000000000014
    vertex 151.6925945417825 13.640021808256318 6.2000000000001405
    vertex 150.8514326451993 13.529280743695788 6.2000000000001405
  endloop
endfacet
facet normal -0.13052619222005366 0.9914448613738102 5.588163381472521e-17
  outer loop
    vertex 151.6925945417825 13.640021808256318 6.2000000000001405
    vertex 150.8514326451993 13.529280743695788 26.00000000000014
    vertex 151.6925945417825 13.640021808256318 26.00000000000014
  endloop
endfacet
facet normal 0.9238795325112876 -0.3826834323650881 -3.9553668766860218e-16
  outer loop
    vertex 154.83185347722198 9.548859911673132 6.20000000000014
    vertex 154.50717710408193 8.765021808256325 26.00000000000013
    vertex 154.50717710408193 8.765021808256325 6.20000000000014
  endloop
endfacet
facet normal 0.9238795325112876 -0.3826834323650881 -3.9553668766860218e-16
  outer loop
    vertex 154.50717710408193 8.765021808256325 26.00000000000013
    vertex 154.83185347722198 9.548859911673132 6.20000000000014
    vertex 154.83185347722198 9.548859911673132 26.00000000000013
  endloop
endfacet
facet normal -0.793353340291235 0.6087614290087207 3.3965505385387744e-16
  outer loop
    vertex 149.39449750292624 12.688118847112596 26.00000000000014
    vertex 148.8780119794831 12.015021808256318 6.200000000000142
    vertex 148.8780119794831 12.015021808256318 26.00000000000014
  endloop
endfacet
facet normal -0.793353340291235 0.6087614290087207 3.3965505385387744e-16
  outer loop
    vertex 148.8780119794831 12.015021808256318 6.200000000000142
    vertex 149.39449750292624 12.688118847112596 26.00000000000014
    vertex 149.39449750292624 12.688118847112596 6.200000000000142
  endloop
endfacet
facet normal 0.1305261922200504 0.9914448613738107 -5.588163381472384e-17
  outer loop
    vertex 151.6925945417825 13.640021808256318 26.00000000000014
    vertex 152.53375643836569 13.52928074369579 6.2000000000001405
    vertex 151.6925945417825 13.640021808256318 6.2000000000001405
  endloop
endfacet
facet normal 0.1305261922200504 0.9914448613738107 -5.588163381472384e-17
  outer loop
    vertex 152.53375643836569 13.52928074369579 6.2000000000001405
    vertex 151.6925945417825 13.640021808256318 26.00000000000014
    vertex 152.53375643836569 13.52928074369579 26.00000000000014
  endloop
endfacet
facet normal 4.281258256619833e-16 1.5088763324498248e-32 1.0
  outer loop
    vertex 148.55333560634304 9.548859911673128 26.00000000000014
    vertex 148.55333560634304 11.231183704839511 26.00000000000014
    vertex 148.4425945417825 10.390021808256321 26.00000000000014
  endloop
endfacet
facet normal 4.281258256619833e-16 1.5088763324498248e-32 1.0
  outer loop
    vertex 148.55333560634304 11.231183704839511 26.00000000000014
    vertex 148.55333560634304 9.548859911673128 26.00000000000014
    vertex 148.8780119794831 8.765021808256323 26.00000000000014
  endloop
endfacet
facet normal 4.281258256619833e-16 1.5088763324498248e-32 1.0
  outer loop
    vertex 148.55333560634304 11.231183704839511 26.00000000000014
    vertex 148.8780119794831 8.765021808256323 26.00000000000014
    vertex 148.8780119794831 12.015021808256318 26.00000000000014
  endloop
endfacet
facet normal 4.281258256619833e-16 1.5088763324498248e-32 1.0
  outer loop
    vertex 148.8780119794831 12.015021808256318 26.00000000000014
    vertex 148.8780119794831 8.765021808256323 26.00000000000014
    vertex 149.39449750292624 8.091924769400043 26.00000000000014
  endloop
endfacet
facet normal 4.281258256619833e-16 1.5088763324498248e-32 1.0
  outer loop
    vertex 148.8780119794831 12.015021808256318 26.00000000000014
    vertex 149.39449750292624 8.091924769400043 26.00000000000014
    vertex 149.39449750292624 12.688118847112596 26.00000000000014
  endloop
endfacet
facet normal 4.281258256619833e-16 1.5088763324498248e-32 1.0
  outer loop
    vertex 149.39449750292624 12.688118847112596 26.00000000000014
    vertex 149.39449750292624 8.091924769400043 26.00000000000014
    vertex 150.0675945417825 7.5754392459568995 26.00000000000014
  endloop
endfacet
facet normal 4.281258256619833e-16 1.5088763324498248e-32 1.0
  outer loop
    vertex 149.39449750292624 12.688118847112596 26.00000000000014
    vertex 150.0675945417825 7.5754392459568995 26.00000000000014
    vertex 150.0675945417825 13.204604370555744 26.00000000000014
  endloop
endfacet
facet normal 4.281258256619833e-16 1.5088763324498248e-32 1.0
  outer loop
    vertex 150.0675945417825 13.204604370555744 26.00000000000014
    vertex 150.0675945417825 7.5754392459568995 26.00000000000014
    vertex 150.8514326451993 7.2507628728168525 26.00000000000014
  endloop
endfacet
facet normal 4.281258256619833e-16 1.5088763324498248e-32 1.0
  outer loop
    vertex 150.0675945417825 13.204604370555744 26.00000000000014
    vertex 150.8514326451993 7.2507628728168525 26.00000000000014
    vertex 150.8514326451993 13.529280743695788 26.00000000000014
  endloop
endfacet
facet normal 4.281258256619833e-16 1.5088763324498248e-32 1.0
  outer loop
    vertex 150.8514326451993 13.529280743695788 26.00000000000014
    vertex 150.8514326451993 7.2507628728168525 26.00000000000014
    vertex 151.6925945417825 7.140021808256326 26.00000000000014
  endloop
endfacet
facet normal 4.281258256619833e-16 1.5088763324498248e-32 1.0
  outer loop
    vertex 150.8514326451993 13.529280743695788 26.00000000000014
    vertex 151.6925945417825 7.140021808256326 26.00000000000014
    vertex 151.6925945417825 13.640021808256318 26.00000000000014
  endloop
endfacet
facet normal 4.281258256619833e-16 1.5088763324498248e-32 1.0
  outer loop
    vertex 151.6925945417825 13.640021808256318 26.00000000000014
    vertex 151.6925945417825 7.140021808256326 26.00000000000014
    vertex 152.53375643836569 7.250762872816854 26.00000000000014
  endloop
endfacet
facet normal 4.281258256619833e-16 1.5088763324498248e-32 1.0
  outer loop
    vertex 151.6925945417825 13.640021808256318 26.00000000000014
    vertex 152.53375643836569 7.250762872816854 26.00000000000014
    vertex 152.53375643836569 13.52928074369579 26.00000000000014
  endloop
endfacet
facet normal 4.281258256619833e-16 1.5088763324498248e-32 1.0
  outer loop
    vertex 152.53375643836569 13.52928074369579 26.00000000000014
    vertex 152.53375643836569 7.250762872816854 26.00000000000014
    vertex 153.3175945417825 7.5754392459568995 26.00000000000013
  endloop
endfacet
facet normal 4.281258256619833e-16 1.5088763324498248e-32 1.0
  outer loop
    vertex 152.53375643836569 13.52928074369579 26.00000000000014
    vertex 153.3175945417825 7.5754392459568995 26.00000000000013
    vertex 153.3175945417825 13.204604370555744 26.00000000000013
  endloop
endfacet
facet normal 4.281258256619833e-16 1.5088763324498248e-32 1.0
  outer loop
    vertex 153.3175945417825 13.204604370555744 26.00000000000013
    vertex 153.3175945417825 7.5754392459568995 26.00000000000013
    vertex 153.99069158063878 8.091924769400046 26.00000000000013
  endloop
endfacet
facet normal 4.281258256619833e-16 1.5088763324498248e-32 1.0
  outer loop
    vertex 153.3175945417825 13.204604370555744 26.00000000000013
    vertex 153.99069158063878 8.091924769400046 26.00000000000013
    vertex 153.99069158063878 12.688118847112598 26.00000000000013
  endloop
endfacet
facet normal 4.281258256619833e-16 1.5088763324498248e-32 1.0
  outer loop
    vertex 153.99069158063878 12.688118847112598 26.00000000000013
    vertex 153.99069158063878 8.091924769400046 26.00000000000013
    vertex 154.50717710408193 8.765021808256325 26.00000000000013
  endloop
endfacet
facet normal 4.281258256619833e-16 1.5088763324498248e-32 1.0
  outer loop
    vertex 153.99069158063878 12.688118847112598 26.00000000000013
    vertex 154.50717710408193 8.765021808256325 26.00000000000013
    vertex 154.50717710408193 12.01502180825632 26.00000000000013
  endloop
endfacet
facet normal 4.281258256619833e-16 1.5088763324498248e-32 1.0
  outer loop
    vertex 154.50717710408193 12.01502180825632 26.00000000000013
    vertex 154.50717710408193 8.765021808256325 26.00000000000013
    vertex 154.83185347722198 9.548859911673132 26.00000000000013
  endloop
endfacet
facet normal 4.281258256619833e-16 1.5088763324498248e-32 1.0
  outer loop
    vertex 154.50717710408193 12.01502180825632 26.00000000000013
    vertex 154.83185347722198 9.548859911673132 26.00000000000013
    vertex 154.83185347722198 11.231183704839513 26.00000000000013
  endloop
endfacet
facet normal 4.281258256619833e-16 1.5088763324498248e-32 1.0
  outer loop
    vertex 154.83185347722198 11.231183704839513 26.00000000000013
    vertex 154.83185347722198 9.548859911673132 26.00000000000013
    vertex 154.9425945417825 10.390021808256321 26.00000000000013
  endloop
endfacet
facet normal 0.38268343236509195 -0.9238795325112861 -1.6383666044846666e-16
  outer loop
    vertex 153.3175945417825 7.5754392459568995 26.00000000000013
    vertex 152.53375643836569 7.250762872816854 6.2000000000001405
    vertex 153.3175945417825 7.5754392459568995 6.20000000000014
  endloop
endfacet
facet normal 0.38268343236509195 -0.9238795325112861 -1.6383666044846666e-16
  outer loop
    vertex 152.53375643836569 7.250762872816854 6.2000000000001405
    vertex 153.3175945417825 7.5754392459568995 26.00000000000013
    vertex 152.53375643836569 7.250762872816854 26.00000000000014
  endloop
endfacet
facet normal 0.7933533402912345 0.6087614290087214 -3.396550538538772e-16
  outer loop
    vertex 153.99069158063878 12.688118847112598 6.20000000000014
    vertex 154.50717710408193 12.01502180825632 26.00000000000013
    vertex 154.50717710408193 12.01502180825632 6.20000000000014
  endloop
endfacet
facet normal 0.7933533402912345 0.6087614290087214 -3.396550538538772e-16
  outer loop
    vertex 154.50717710408193 12.01502180825632 26.00000000000013
    vertex 153.99069158063878 12.688118847112598 6.20000000000014
    vertex 153.99069158063878 12.688118847112598 26.00000000000013
  endloop
endfacet
facet normal -0.0 1.0 -0.0
  outer loop
    vertex 149.69259454178246 16.6400218082563 1.2830847495592935e-13
    vertex 157.69259454178248 16.6400218082563 6.2000000000001085
    vertex 157.69259454178248 16.6400218082563 0.0
  endloop
endfacet
facet normal -0.0 1.0 -0.0
  outer loop
    vertex 157.69259454178248 16.6400218082563 6.2000000000001085
    vertex 149.69259454178246 16.6400218082563 1.2830847495592935e-13
    vertex 149.69259454178246 16.6400218082563 6.200000000000113
  endloop
endfacet
facet normal -1.0 1.9905645759161595e-15 1.1279865930191593e-14
  outer loop
    vertex 126.19259454178253 18.99002180825635 6.200000000000164
    vertex 126.19259454178247 1.790021808256349 1.565081397814083e-13
    vertex 126.19259454178253 1.790021808256349 6.200000000000164
  endloop
endfacet
facet normal -1.0 1.9905645759161595e-15 1.1279865930191593e-14
  outer loop
    vertex 126.19259454178247 1.790021808256349 1.565081397814083e-13
    vertex 126.19259454178253 18.99002180825635 6.200000000000164
    vertex 126.19259454178253 18.99002180825635 1.6532053503937048e-13
  endloop
endfacet
facet normal -3.9889538038012955e-15 2.8260030475196667e-15 -1.0
  outer loop
    vertex 126.19259454178253 18.99002180825635 1.6532053503937048e-13
    vertex 149.69259454178248 1.790021808256344 6.644546024503483e-14
    vertex 126.19259454178247 1.790021808256349 1.565081397814083e-13
  endloop
endfacet
facet normal -3.9889538038012955e-15 2.8260030475196667e-15 -1.0
  outer loop
    vertex 149.69259454178248 1.790021808256344 6.644546024503483e-14
    vertex 126.19259454178253 18.99002180825635 1.6532053503937048e-13
    vertex 149.69259454178246 16.6400218082563 1.2830847495592935e-13
  endloop
endfacet
facet normal -3.9889538038012955e-15 2.8260030475196667e-15 -1.0
  outer loop
    vertex 149.69259454178246 16.6400218082563 1.2830847495592935e-13
    vertex 126.19259454178253 18.99002180825635 1.6532053503937048e-13
    vertex 149.69259454178246 18.990021808256348 1.1456113835350834e-13
  endloop
endfacet
facet normal -3.9889538038012955e-15 2.8260030475196667e-15 -1.0
  outer loop
    vertex 149.69259454178248 1.790021808256344 6.644546024503483e-14
    vertex 149.69259454178246 16.6400218082563 1.2830847495592935e-13
    vertex 149.6925945417825 4.14002180825634 4.40619762898109e-15
  endloop
endfacet
facet normal -3.9889538038012955e-15 2.8260030475196667e-15 -1.0
  outer loop
    vertex 149.6925945417825 4.14002180825634 4.40619762898109e-15
    vertex 149.69259454178246 16.6400218082563 1.2830847495592935e-13
    vertex 157.69259454178248 16.6400218082563 0.0
  endloop
endfacet
facet normal -3.9889538038012955e-15 2.8260030475196667e-15 -1.0
  outer loop
    vertex 149.6925945417825 4.14002180825634 4.40619762898109e-15
    vertex 157.69259454178248 16.6400218082563 0.0
    vertex 157.69259454178248 4.14002180825634 0.0
  endloop
endfacet
facet normal 0.0 1.0 0.0
  outer loop
    vertex 126.19259454178253 18.99002180825635 1.6532053503937048e-13
    vertex 149.69259454178246 18.990021808256348 6.200000000000113
    vertex 149.69259454178246 18.990021808256348 1.1456113835350834e-13
  endloop
endfacet
facet normal 0.0 1.0 0.0
  outer loop
    vertex 149.69259454178246 18.990021808256348 6.200000000000113
    vertex 126.19259454178253 18.99002180825635 1.6532053503937048e-13
    vertex 126.19259454178253 18.99002180825635 6.200000000000164
  endloop
endfacet
facet normal 0.0 -1.0 0.0
  outer loop
    vertex 157.69259454178248 4.14002180825634 6.2000000000001085
    vertex 149.6925945417825 4.14002180825634 4.40619762898109e-15
    vertex 157.69259454178248 4.14002180825634 0.0
  endloop
endfacet
facet normal 0.0 -1.0 0.0
  outer loop
    vertex 149.6925945417825 4.14002180825634 4.40619762898109e-15
    vertex 157.69259454178248 4.14002180825634 6.2000000000001085
    vertex 149.69259454178246 4.14002180825634 6.200000000000113
  endloop
endfacet
facet normal 1.0 2.506636873375913e-15 -4.1633363423443212e-16
  outer loop
    vertex 149.6925945417825 4.14002180825634 4.40619762898109e-15
    vertex 149.69259454178246 1.790021808256344 6.200000000000113
    vertex 149.69259454178248 1.790021808256344 6.644546024503483e-14
  endloop
endfacet
facet normal 1.0 2.506636873375913e-15 -4.1633363423443212e-16
  outer loop
    vertex 149.69259454178246 1.790021808256344 6.200000000000113
    vertex 149.6925945417825 4.14002180825634 4.40619762898109e-15
    vertex 149.69259454178246 4.14002180825634 6.200000000000113
  endloop
endfacet
facet normal 1.0 -0.0 -0.0
  outer loop
    vertex 149.69259454178246 18.990021808256348 1.1456113835350834e-13
    vertex 149.69259454178246 16.6400218082563 6.200000000000113
    vertex 149.69259454178246 16.6400218082563 1.2830847495592935e-13
  endloop
endfacet
facet normal 1.0 -0.0 -0.0
  outer loop
    vertex 149.69259454178246 16.6400218082563 6.200000000000113
    vertex 149.69259454178246 18.990021808256348 1.1456113835350834e-13
    vertex 149.69259454178246 17.1400218082563 6.200000000000113
  endloop
endfacet
facet normal 1.0 -0.0 -0.0
  outer loop
    vertex 149.69259454178246 17.1400218082563 6.200000000000113
    vertex 149.69259454178246 18.990021808256348 1.1456113835350834e-13
    vertex 149.69259454178246 18.990021808256348 6.200000000000113
  endloop
endfacet
facet normal 0.0 -1.0 0.0
  outer loop
    vertex 149.69259454178246 1.790021808256344 6.200000000000113
    vertex 126.19259454178247 1.790021808256349 1.565081397814083e-13
    vertex 149.69259454178248 1.790021808256344 6.644546024503483e-14
  endloop
endfacet
facet normal 0.0 -1.0 0.0
  outer loop
    vertex 126.19259454178247 1.790021808256349 1.565081397814083e-13
    vertex 149.69259454178246 1.790021808256344 6.200000000000113
    vertex 126.19259454178253 1.790021808256349 6.200000000000164
  endloop
endfacet
facet normal 9.722437283332765e-16 1.7572661867922324e-17 1.0
  outer loop
    vertex 149.69259454178246 1.790021808256344 6.200000000000113
    vertex 126.19259454178253 18.99002180825635 6.200000000000164
    vertex 126.19259454178253 1.790021808256349 6.200000000000164
  endloop
endfacet
facet normal 9.722437283332765e-16 1.7572661867922324e-17 1.0
  outer loop
    vertex 126.19259454178253 18.99002180825635 6.200000000000164
    vertex 149.69259454178246 1.790021808256344 6.200000000000113
    vertex 148.55333560634304 9.548859911673128 6.200000000000142
  endloop
endfacet
facet normal 9.722437283332765e-16 1.7572661867922324e-17 1.0
  outer loop
    vertex 126.19259454178253 18.99002180825635 6.200000000000164
    vertex 148.55333560634304 9.548859911673128 6.200000000000142
    vertex 148.4425945417825 10.390021808256321 6.200000000000142
  endloop
endfacet
facet normal 9.722437283332765e-16 1.7572661867922324e-17 1.0
  outer loop
    vertex 148.55333560634304 9.548859911673128 6.200000000000142
    vertex 149.69259454178246 1.790021808256344 6.200000000000113
    vertex 148.8780119794831 8.765021808256323 6.200000000000142
  endloop
endfacet
facet normal 9.722437283332765e-16 1.7572661867922324e-17 1.0
  outer loop
    vertex 148.8780119794831 8.765021808256323 6.200000000000142
    vertex 149.69259454178246 1.790021808256344 6.200000000000113
    vertex 149.39449750292624 8.091924769400043 6.200000000000142
  endloop
endfacet
facet normal 9.722437283332765e-16 1.7572661867922324e-17 1.0
  outer loop
    vertex 149.39449750292624 8.091924769400043 6.200000000000142
    vertex 149.69259454178246 1.790021808256344 6.200000000000113
    vertex 149.69259454178246 4.14002180825634 6.200000000000113
  endloop
endfacet
facet normal 9.722437283332765e-16 1.7572661867922324e-17 1.0
  outer loop
    vertex 149.39449750292624 8.091924769400043 6.200000000000142
    vertex 149.69259454178246 4.14002180825634 6.200000000000113
    vertex 150.0675945417825 7.5754392459568995 6.2000000000001405
  endloop
endfacet
facet normal 9.722437283332765e-16 1.7572661867922324e-17 1.0
  outer loop
    vertex 150.0675945417825 7.5754392459568995 6.2000000000001405
    vertex 149.69259454178246 4.14002180825634 6.200000000000113
    vertex 157.69259454178248 4.14002180825634 6.2000000000001085
  endloop
endfacet
facet normal 9.722437283332765e-16 1.7572661867922324e-17 1.0
  outer loop
    vertex 150.0675945417825 7.5754392459568995 6.2000000000001405
    vertex 157.69259454178248 4.14002180825634 6.2000000000001085
    vertex 150.8514326451993 7.2507628728168525 6.2000000000001405
  endloop
endfacet
facet normal 9.722437283332765e-16 1.7572661867922324e-17 1.0
  outer loop
    vertex 150.8514326451993 7.2507628728168525 6.2000000000001405
    vertex 157.69259454178248 4.14002180825634 6.2000000000001085
    vertex 151.6925945417825 7.140021808256326 6.2000000000001405
  endloop
endfacet
facet normal 9.722437283332765e-16 1.7572661867922324e-17 1.0
  outer loop
    vertex 151.6925945417825 7.140021808256326 6.2000000000001405
    vertex 157.69259454178248 4.14002180825634 6.2000000000001085
    vertex 152.53375643836569 7.250762872816854 6.2000000000001405
  endloop
endfacet
facet normal 9.722437283332765e-16 1.7572661867922324e-17 1.0
  outer loop
    vertex 152.53375643836569 7.250762872816854 6.2000000000001405
    vertex 157.69259454178248 4.14002180825634 6.2000000000001085
    vertex 153.3175945417825 7.5754392459568995 6.20000000000014
  endloop
endfacet
facet normal 9.722437283332765e-16 1.7572661867922324e-17 1.0
  outer loop
    vertex 153.3175945417825 7.5754392459568995 6.20000000000014
    vertex 157.69259454178248 4.14002180825634 6.2000000000001085
    vertex 153.99069158063878 8.091924769400046 6.20000000000014
  endloop
endfacet
facet normal 9.722437283332765e-16 1.7572661867922324e-17 1.0
  outer loop
    vertex 153.99069158063878 8.091924769400046 6.20000000000014
    vertex 157.69259454178248 4.14002180825634 6.2000000000001085
    vertex 154.50717710408193 8.765021808256325 6.20000000000014
  endloop
endfacet
facet normal 9.722437283332765e-16 1.7572661867922324e-17 1.0
  outer loop
    vertex 154.50717710408193 8.765021808256325 6.20000000000014
    vertex 157.69259454178248 4.14002180825634 6.2000000000001085
    vertex 154.83185347722198 9.548859911673132 6.20000000000014
  endloop
endfacet
facet normal 9.722437283332765e-16 1.7572661867922324e-17 1.0
  outer loop
    vertex 154.83185347722198 9.548859911673132 6.20000000000014
    vertex 157.69259454178248 4.14002180825634 6.2000000000001085
    vertex 154.9425945417825 10.390021808256321 6.20000000000014
  endloop
endfacet
facet normal 9.722437283332765e-16 1.7572661867922324e-17 1.0
  outer loop
    vertex 150.0675945417825 13.204604370555744 6.2000000000001405
    vertex 149.69259454178246 16.6400218082563 6.200000000000113
    vertex 149.39449750292624 12.688118847112596 6.200000000000142
  endloop
endfacet
facet normal 9.722437283332765e-16 1.7572661867922324e-17 1.0
  outer loop
    vertex 149.69259454178246 16.6400218082563 6.200000000000113
    vertex 150.0675945417825 13.204604370555744 6.2000000000001405
    vertex 157.69259454178248 16.6400218082563 6.2000000000001085
  endloop
endfacet
facet normal 9.722437283332765e-16 1.7572661867922324e-17 1.0
  outer loop
    vertex 157.69259454178248 16.6400218082563 6.2000000000001085
    vertex 150.0675945417825 13.204604370555744 6.2000000000001405
    vertex 150.8514326451993 13.529280743695788 6.2000000000001405
  endloop
endfacet
facet normal 9.722437283332765e-16 1.7572661867922324e-17 1.0
  outer loop
    vertex 157.69259454178248 16.6400218082563 6.2000000000001085
    vertex 150.8514326451993 13.529280743695788 6.2000000000001405
    vertex 151.6925945417825 13.640021808256318 6.2000000000001405
  endloop
endfacet
facet normal 9.722437283332765e-16 1.7572661867922324e-17 1.0
  outer loop
    vertex 157.69259454178248 16.6400218082563 6.2000000000001085
    vertex 151.6925945417825 13.640021808256318 6.2000000000001405
    vertex 152.53375643836569 13.52928074369579 6.2000000000001405
  endloop
endfacet
facet normal 9.722437283332765e-16 1.7572661867922324e-17 1.0
  outer loop
    vertex 157.69259454178248 16.6400218082563 6.2000000000001085
    vertex 152.53375643836569 13.52928074369579 6.2000000000001405
    vertex 153.3175945417825 13.204604370555744 6.20000000000014
  endloop
endfacet
facet normal 9.722437283332765e-16 1.7572661867922324e-17 1.0
  outer loop
    vertex 157.69259454178248 16.6400218082563 6.2000000000001085
    vertex 153.3175945417825 13.204604370555744 6.20000000000014
    vertex 153.99069158063878 12.688118847112598 6.20000000000014
  endloop
endfacet
facet normal 9.722437283332765e-16 1.7572661867922324e-17 1.0
  outer loop
    vertex 157.69259454178248 16.6400218082563 6.2000000000001085
    vertex 153.99069158063878 12.688118847112598 6.20000000000014
    vertex 154.50717710408193 12.01502180825632 6.20000000000014
  endloop
endfacet
facet normal 9.722437283332765e-16 1.7572661867922324e-17 1.0
  outer loop
    vertex 157.69259454178248 16.6400218082563 6.2000000000001085
    vertex 154.50717710408193 12.01502180825632 6.20000000000014
    vertex 154.83185347722198 11.231183704839513 6.20000000000014
  endloop
endfacet
facet normal 9.722437283332765e-16 1.7572661867922324e-17 1.0
  outer loop
    vertex 157.69259454178248 16.6400218082563 6.2000000000001085
    vertex 154.83185347722198 11.231183704839513 6.20000000000014
    vertex 154.9425945417825 10.390021808256321 6.20000000000014
  endloop
endfacet
facet normal 9.722437283332765e-16 1.7572661867922324e-17 1.0
  outer loop
    vertex 157.69259454178248 16.6400218082563 6.2000000000001085
    vertex 154.9425945417825 10.390021808256321 6.20000000000014
    vertex 157.69259454178248 4.14002180825634 6.2000000000001085
  endloop
endfacet
facet normal 9.722437283332765e-16 1.7572661867922324e-17 1.0
  outer loop
    vertex 126.19259454178253 18.99002180825635 6.200000000000164
    vertex 148.55333560634304 11.231183704839511 6.200000000000142
    vertex 149.69259454178246 18.990021808256348 6.200000000000113
  endloop
endfacet
facet normal 9.722437283332765e-16 1.7572661867922324e-17 1.0
  outer loop
    vertex 148.55333560634304 11.231183704839511 6.200000000000142
    vertex 126.19259454178253 18.99002180825635 6.200000000000164
    vertex 148.4425945417825 10.390021808256321 6.200000000000142
  endloop
endfacet
facet normal 9.722437283332765e-16 1.7572661867922324e-17 1.0
  outer loop
    vertex 149.69259454178246 18.990021808256348 6.200000000000113
    vertex 148.55333560634304 11.231183704839511 6.200000000000142
    vertex 148.8780119794831 12.015021808256318 6.200000000000142
  endloop
endfacet
facet normal 9.722437283332765e-16 1.7572661867922324e-17 1.0
  outer loop
    vertex 149.69259454178246 18.990021808256348 6.200000000000113
    vertex 148.8780119794831 12.015021808256318 6.200000000000142
    vertex 149.39449750292624 12.688118847112596 6.200000000000142
  endloop
endfacet
facet normal 9.722437283332765e-16 1.7572661867922324e-17 1.0
  outer loop
    vertex 149.69259454178246 18.990021808256348 6.200000000000113
    vertex 149.39449750292624 12.688118847112596 6.200000000000142
    vertex 149.69259454178246 16.6400218082563 6.200000000000113
  endloop
endfacet
facet normal 9.722437283332765e-16 1.7572661867922324e-17 1.0
  outer loop
    vertex 149.69259454178246 18.990021808256348 6.200000000000113
    vertex 149.69259454178246 16.6400218082563 6.200000000000113
    vertex 149.69259454178246 17.1400218082563 6.200000000000113
  endloop
endfacet
facet normal 1.0 0.0 -4.1633363423443212e-16
  outer loop
    vertex 157.69259454178248 16.6400218082563 0.0
    vertex 157.69259454178248 4.14002180825634 6.2000000000001085
    vertex 157.69259454178248 4.14002180825634 0.0
  endloop
endfacet
facet normal 1.0 0.0 -4.1633363423443212e-16
  outer loop
    vertex 157.69259454178248 4.14002180825634 6.2000000000001085
    vertex 157.69259454178248 16.6400218082563 0.0
    vertex 157.69259454178248 16.6400218082563 6.2000000000001085
  endloop
endfacet
endsolid Turret
