solid Turret
facet normal -1.2967614342353182e-18 -2.9766192800835056e-15 1.0
  outer loop
    vertex 143.53624235404735 -76.04668516769667 8.927992770359385
    vertex 133.2999411454017 -74.0466851676967 8.92799277035936
    vertex 133.2999411454017 -76.0466851676967 8.927992770359385
  endloop
endfacet
facet normal -1.2967614342353182e-18 -2.9766192800835056e-15 1.0
  outer loop
    vertex 100.27254356269313 -76.0466851676967 8.927992770359385
    vertex 90.28624235404737 -73.04668516769677 8.927992770359413
    vertex 90.28624235404737 -76.04668516769671 8.927992770359385
  endloop
endfacet
facet normal -1.2967614342353182e-18 -2.9766192800835056e-15 1.0
  outer loop
    vertex 90.28624235404737 -73.04668516769677 8.927992770359413
    vertex 100.27254356269313 -76.0466851676967 8.927992770359385
    vertex 100.27254356269313 -74.0466851676967 8.92799277035936
  endloop
endfacet
facet normal -1.2967614342353182e-18 -2.9766192800835056e-15 1.0
  outer loop
    vertex 90.28624235404737 -73.04668516769677 8.927992770359413
    vertex 100.27254356269313 -74.0466851676967 8.92799277035936
    vertex 143.53624235404735 -73.04668516769672 8.927992770359413
  endloop
endfacet
facet normal -1.2967614342353182e-18 -2.9766192800835056e-15 1.0
  outer loop
    vertex 143.53624235404735 -73.04668516769672 8.927992770359413
    vertex 100.27254356269313 -74.0466851676967 8.92799277035936
    vertex 133.2999411454017 -74.0466851676967 8.92799277035936
  endloop
endfacet
facet normal -1.2967614342353182e-18 -2.9766192800835056e-15 1.0
  outer loop
    vertex 143.53624235404735 -73.04668516769672 8.927992770359413
    vertex 133.2999411454017 -74.0466851676967 8.92799277035936
    vertex 143.53624235404735 -76.04668516769667 8.927992770359385
  endloop
endfacet
facet normal -4.236569363452241e-16 1.0 -6.322329595889773e-31
  outer loop
    vertex 90.28624235404737 -73.04668516769677 8.927992770359413
    vertex 143.53624235404737 -73.04668516769674 2.0000000000000004
    vertex 90.28624235404737 -73.04668516769674 2.0000000000000004
  endloop
endfacet
facet normal -4.236569363452241e-16 1.0 -6.322329595889773e-31
  outer loop
    vertex 143.53624235404737 -73.04668516769674 2.0000000000000004
    vertex 90.28624235404737 -73.04668516769677 8.927992770359413
    vertex 143.53624235404735 -73.04668516769672 8.927992770359413
  endloop
endfacet
facet normal 1.0 -0.0 -0.0
  outer loop
    vertex 100.27254356269313 -74.04668516769674 4.927992770359358
    vertex 100.27254356269313 -76.0466851676967 8.927992770359385
    vertex 100.27254356269313 -76.04668516769674 4.927992770359384
  endloop
endfacet
facet normal 1.0 -0.0 -0.0
  outer loop
    vertex 100.27254356269313 -76.0466851676967 8.927992770359385
    vertex 100.27254356269313 -74.04668516769674 4.927992770359358
    vertex 100.27254356269313 -74.0466851676967 8.92799277035936
  endloop
endfacet
facet normal 3.0619558516258397e-16 -1.0 6.5551740159495326e-15
  outer loop
    vertex 143.53624235404735 -76.04668516769674 1.1997338110571858e-15
    vertex 119.78624235404739 -76.04668516769675 2.499999999999998
    vertex 90.28624235404737 -76.04668516769674 1.1997338110571858e-15
  endloop
endfacet
facet normal 3.0619558516258397e-16 -1.0 6.5551740159495326e-15
  outer loop
    vertex 119.78624235404739 -76.04668516769675 2.499999999999998
    vertex 143.53624235404735 -76.04668516769674 1.1997338110571858e-15
    vertex 133.2999411454017 -76.04668516769674 4.927992770359384
  endloop
endfacet
facet normal 3.0619558516258397e-16 -1.0 6.5551740159495326e-15
  outer loop
    vertex 133.2999411454017 -76.04668516769674 4.927992770359384
    vertex 143.53624235404735 -76.04668516769674 1.1997338110571858e-15
    vertex 143.53624235404735 -76.04668516769667 8.927992770359385
  endloop
endfacet
facet normal 3.0619558516258397e-16 -1.0 6.5551740159495326e-15
  outer loop
    vertex 133.2999411454017 -76.04668516769674 4.927992770359384
    vertex 143.53624235404735 -76.04668516769667 8.927992770359385
    vertex 133.2999411454017 -76.0466851676967 8.927992770359385
  endloop
endfacet
facet normal 3.0619558516258397e-16 -1.0 6.5551740159495326e-15
  outer loop
    vertex 90.28624235404737 -76.04668516769674 1.1997338110571858e-15
    vertex 100.27254356269313 -76.04668516769674 4.927992770359384
    vertex 90.28624235404737 -76.04668516769671 8.927992770359385
  endloop
endfacet
facet normal 3.0619558516258397e-16 -1.0 6.5551740159495326e-15
  outer loop
    vertex 100.27254356269313 -76.04668516769674 4.927992770359384
    vertex 90.28624235404737 -76.04668516769674 1.1997338110571858e-15
    vertex 113.7862423540474 -76.04668516769675 2.499999999999998
  endloop
endfacet
facet normal 3.0619558516258397e-16 -1.0 6.5551740159495326e-15
  outer loop
    vertex 113.7862423540474 -76.04668516769675 2.499999999999998
    vertex 90.28624235404737 -76.04668516769674 1.1997338110571858e-15
    vertex 119.78624235404739 -76.04668516769675 2.499999999999998
  endloop
endfacet
facet normal 3.0619558516258397e-16 -1.0 6.5551740159495326e-15
  outer loop
    vertex 113.7862423540474 -76.04668516769675 2.499999999999998
    vertex 119.78624235404739 -76.04668516769675 2.499999999999998
    vertex 116.7862423540474 -76.04668516769675 2.499999999999998
  endloop
endfacet
facet normal 3.0619558516258397e-16 -1.0 6.5551740159495326e-15
  outer loop
    vertex 90.28624235404737 -76.04668516769671 8.927992770359385
    vertex 100.27254356269313 -76.04668516769674 4.927992770359384
    vertex 100.27254356269313 -76.0466851676967 8.927992770359385
  endloop
endfacet
facet normal -1.0 0.0 0.0
  outer loop
    vertex 124.03624235404737 -51.79668516769673 2.0000000000000018
    vertex 124.03624235404737 -64.79668516769674 8.81239525796218e-16
    vertex 124.03624235404737 -64.79668516769674 2.0000000000000004
  endloop
endfacet
facet normal -1.0 0.0 0.0
  outer loop
    vertex 124.03624235404737 -64.79668516769674 8.81239525796218e-16
    vertex 124.03624235404737 -51.79668516769673 2.0000000000000018
    vertex 124.03624235404737 -51.79668516769676 1.615755923277018e-15
  endloop
endfacet
facet normal 9.096666072735164e-17 7.049916206369757e-16 1.0
  outer loop
    vertex 143.53624235404737 -42.54668516769675 10.42799277035939
    vertex 120.28624235404739 -39.54668516769675 10.42799277035939
    vertex 120.28624235404739 -42.546685167696744 10.42799277035939
  endloop
endfacet
facet normal 9.096666072735164e-17 7.049916206369757e-16 1.0
  outer loop
    vertex 120.28624235404739 -39.54668516769675 10.42799277035939
    vertex 143.53624235404737 -42.54668516769675 10.42799277035939
    vertex 143.53624235404737 -39.54668516769675 10.427992770359385
  endloop
endfacet
facet normal 1.0 -1.1265893672364289e-15 4.3118924481666463e-16
  outer loop
    vertex 143.53624235404735 -76.04668516769674 1.1997338110571858e-15
    vertex 143.53624235404737 -73.04668516769674 2.0000000000000004
    vertex 143.53624235404735 -76.04668516769667 8.927992770359385
  endloop
endfacet
facet normal 1.0 -1.1265893672364289e-15 4.3118924481666463e-16
  outer loop
    vertex 143.53624235404737 -73.04668516769674 2.0000000000000004
    vertex 143.53624235404735 -76.04668516769674 1.1997338110571858e-15
    vertex 143.53624235404737 -39.54668516769676 6.089301912815765e-16
  endloop
endfacet
facet normal 1.0 -1.1265893672364289e-15 4.3118924481666463e-16
  outer loop
    vertex 143.53624235404737 -73.04668516769674 2.0000000000000004
    vertex 143.53624235404737 -39.54668516769676 6.089301912815765e-16
    vertex 143.53624235404737 -42.54668516769676 2.0000000000000004
  endloop
endfacet
facet normal 1.0 -1.1265893672364289e-15 4.3118924481666463e-16
  outer loop
    vertex 143.53624235404737 -42.54668516769676 2.0000000000000004
    vertex 143.53624235404737 -39.54668516769676 6.089301912815765e-16
    vertex 143.53624235404737 -42.54668516769675 10.42799277035939
  endloop
endfacet
facet normal 1.0 -1.1265893672364289e-15 4.3118924481666463e-16
  outer loop
    vertex 143.53624235404737 -42.54668516769675 10.42799277035939
    vertex 143.53624235404737 -39.54668516769676 6.089301912815765e-16
    vertex 143.53624235404737 -39.54668516769675 10.427992770359385
  endloop
endfacet
facet normal 1.0 -1.1265893672364289e-15 4.3118924481666463e-16
  outer loop
    vertex 143.53624235404735 -73.04668516769672 8.927992770359413
    vertex 143.53624235404735 -76.04668516769667 8.927992770359385
    vertex 143.53624235404737 -73.04668516769674 2.0000000000000004
  endloop
endfacet
facet normal 1.0 0.0 0.0
  outer loop
    vertex 99.03624235404737 -51.79668516769673 1.615755923277018e-15
    vertex 99.03624235404737 -64.79668516769674 2.0000000000000004
    vertex 99.03624235404737 -64.79668516769674 8.81239525796218e-16
  endloop
endfacet
facet normal 1.0 0.0 0.0
  outer loop
    vertex 99.03624235404737 -64.79668516769674 2.0000000000000004
    vertex 99.03624235404737 -51.79668516769673 1.615755923277018e-15
    vertex 99.03624235404737 -51.79668516769673 2.0000000000000018
  endloop
endfacet
facet normal 2.8183651387190815e-16 1.0 -3.2315118465540363e-15
  outer loop
    vertex 99.03624235404737 -51.79668516769673 2.0000000000000018
    vertex 122.78624235404736 -51.79668516769673 1.615755923277018e-15
    vertex 99.03624235404737 -51.79668516769673 1.615755923277018e-15
  endloop
endfacet
facet normal 2.8183651387190815e-16 1.0 -3.2315118465540363e-15
  outer loop
    vertex 122.78624235404736 -51.79668516769673 1.615755923277018e-15
    vertex 99.03624235404737 -51.79668516769673 2.0000000000000018
    vertex 124.03624235404737 -51.79668516769676 1.615755923277018e-15
  endloop
endfacet
facet normal 2.8183651387190815e-16 1.0 -3.2315118465540363e-15
  outer loop
    vertex 124.03624235404737 -51.79668516769676 1.615755923277018e-15
    vertex 99.03624235404737 -51.79668516769673 2.0000000000000018
    vertex 124.03624235404737 -51.79668516769673 2.0000000000000018
  endloop
endfacet
facet normal -6.964557212433655e-32 -1.0 1.0541210415622278e-14
  outer loop
    vertex 133.2999411454017 -74.04668516769674 4.927992770359358
    vertex 116.7862423540474 -74.04668516769677 2.4999999999999836
    vertex 119.78624235404739 -74.04668516769677 2.499999999999973
  endloop
endfacet
facet normal -6.964557212433655e-32 -1.0 1.0541210415622278e-14
  outer loop
    vertex 116.7862423540474 -74.04668516769677 2.4999999999999836
    vertex 100.27254356269313 -74.04668516769674 4.927992770359358
    vertex 113.7862423540474 -74.04668516769677 2.499999999999973
  endloop
endfacet
facet normal -6.964557212433655e-32 -1.0 1.0541210415622278e-14
  outer loop
    vertex 100.27254356269313 -74.04668516769674 4.927992770359358
    vertex 116.7862423540474 -74.04668516769677 2.4999999999999836
    vertex 133.2999411454017 -74.04668516769674 4.927992770359358
  endloop
endfacet
facet normal -6.964557212433655e-32 -1.0 1.0541210415622278e-14
  outer loop
    vertex 100.27254356269313 -74.04668516769674 4.927992770359358
    vertex 133.2999411454017 -74.04668516769674 4.927992770359358
    vertex 133.2999411454017 -74.0466851676967 8.92799277035936
  endloop
endfacet
facet normal -6.964557212433655e-32 -1.0 1.0541210415622278e-14
  outer loop
    vertex 100.27254356269313 -74.04668516769674 4.927992770359358
    vertex 133.2999411454017 -74.0466851676967 8.92799277035936
    vertex 100.27254356269313 -74.0466851676967 8.92799277035936
  endloop
endfacet
facet normal 0.17683743143482714 1.0443839259740727e-14 0.9842400737846092
  outer loop
    vertex 113.7862423540474 -76.04668516769675 2.499999999999998
    vertex 100.27254356269313 -74.04668516769674 4.927992770359358
    vertex 100.27254356269313 -76.04668516769674 4.927992770359384
  endloop
endfacet
facet normal 0.17683743143482714 1.0443839259740727e-14 0.9842400737846092
  outer loop
    vertex 100.27254356269313 -74.04668516769674 4.927992770359358
    vertex 113.7862423540474 -76.04668516769675 2.499999999999998
    vertex 113.7862423540474 -74.04668516769677 2.499999999999973
  endloop
endfacet
facet normal -1.762479051592439e-15 7.931155732165976e-15 1.0
  outer loop
    vertex 116.7862423540474 -76.04668516769675 2.499999999999998
    vertex 113.7862423540474 -74.04668516769677 2.499999999999973
    vertex 113.7862423540474 -76.04668516769675 2.499999999999998
  endloop
endfacet
facet normal -1.762479051592439e-15 7.931155732165976e-15 1.0
  outer loop
    vertex 113.7862423540474 -74.04668516769677 2.499999999999973
    vertex 116.7862423540474 -76.04668516769675 2.499999999999998
    vertex 116.7862423540474 -74.04668516769677 2.4999999999999836
  endloop
endfacet
facet normal -0.0 -0.0 1.0
  outer loop
    vertex 90.28624235404737 -73.04668516769674 2.0000000000000004
    vertex 99.03624235404737 -64.79668516769674 2.0000000000000004
    vertex 90.28624235404737 -42.54668516769673 2.0000000000000004
  endloop
endfacet
facet normal -0.0 -0.0 1.0
  outer loop
    vertex 99.03624235404737 -64.79668516769674 2.0000000000000004
    vertex 90.28624235404737 -73.04668516769674 2.0000000000000004
    vertex 143.53624235404737 -73.04668516769674 2.0000000000000004
  endloop
endfacet
facet normal -0.0 -0.0 1.0
  outer loop
    vertex 99.03624235404737 -64.79668516769674 2.0000000000000004
    vertex 143.53624235404737 -73.04668516769674 2.0000000000000004
    vertex 124.03624235404737 -64.79668516769674 2.0000000000000004
  endloop
endfacet
facet normal -0.0 -0.0 1.0
  outer loop
    vertex 124.03624235404737 -64.79668516769674 2.0000000000000004
    vertex 143.53624235404737 -73.04668516769674 2.0000000000000004
    vertex 124.03624235404737 -51.79668516769673 2.0000000000000018
  endloop
endfacet
facet normal -0.0 -0.0 1.0
  outer loop
    vertex 90.28624235404737 -42.54668516769673 2.0000000000000004
    vertex 99.03624235404737 -51.79668516769673 2.0000000000000018
    vertex 143.53624235404737 -42.54668516769676 2.0000000000000004
  endloop
endfacet
facet normal -0.0 -0.0 1.0
  outer loop
    vertex 99.03624235404737 -51.79668516769673 2.0000000000000018
    vertex 90.28624235404737 -42.54668516769673 2.0000000000000004
    vertex 99.03624235404737 -64.79668516769674 2.0000000000000004
  endloop
endfacet
facet normal -0.0 -0.0 1.0
  outer loop
    vertex 143.53624235404737 -42.54668516769676 2.0000000000000004
    vertex 99.03624235404737 -51.79668516769673 2.0000000000000018
    vertex 124.03624235404737 -51.79668516769673 2.0000000000000018
  endloop
endfacet
facet normal -0.0 -0.0 1.0
  outer loop
    vertex 143.53624235404737 -42.54668516769676 2.0000000000000004
    vertex 124.03624235404737 -51.79668516769673 2.0000000000000018
    vertex 143.53624235404737 -73.04668516769674 2.0000000000000004
  endloop
endfacet
facet normal -1.0 -1.4341345327821396e-16 -6.83196044601985e-16
  outer loop
    vertex 90.28624235404736 -39.54668516769674 10.427992770359394
    vertex 90.28624235404737 -42.54668516769673 2.0000000000000004
    vertex 90.28624235404736 -42.54668516769674 10.42799277035939
  endloop
endfacet
facet normal -1.0 -1.4341345327821396e-16 -6.83196044601985e-16
  outer loop
    vertex 90.28624235404737 -76.04668516769674 1.1997338110571858e-15
    vertex 90.28624235404737 -73.04668516769674 2.0000000000000004
    vertex 90.28624235404737 -39.54668516769673 4.326822861223329e-16
  endloop
endfacet
facet normal -1.0 -1.4341345327821396e-16 -6.83196044601985e-16
  outer loop
    vertex 90.28624235404737 -73.04668516769674 2.0000000000000004
    vertex 90.28624235404737 -76.04668516769674 1.1997338110571858e-15
    vertex 90.28624235404737 -76.04668516769671 8.927992770359385
  endloop
endfacet
facet normal -1.0 -1.4341345327821396e-16 -6.83196044601985e-16
  outer loop
    vertex 90.28624235404737 -73.04668516769674 2.0000000000000004
    vertex 90.28624235404737 -76.04668516769671 8.927992770359385
    vertex 90.28624235404737 -73.04668516769677 8.927992770359413
  endloop
endfacet
facet normal -1.0 -1.4341345327821396e-16 -6.83196044601985e-16
  outer loop
    vertex 90.28624235404737 -39.54668516769673 4.326822861223329e-16
    vertex 90.28624235404737 -73.04668516769674 2.0000000000000004
    vertex 90.28624235404737 -42.54668516769673 2.0000000000000004
  endloop
endfacet
facet normal -1.0 -1.4341345327821396e-16 -6.83196044601985e-16
  outer loop
    vertex 90.28624235404737 -39.54668516769673 4.326822861223329e-16
    vertex 90.28624235404737 -42.54668516769673 2.0000000000000004
    vertex 90.28624235404736 -39.54668516769674 10.427992770359394
  endloop
endfacet
facet normal -1.0 0.0 0.0
  outer loop
    vertex 133.2999411454017 -76.0466851676967 8.927992770359385
    vertex 133.2999411454017 -74.04668516769674 4.927992770359358
    vertex 133.2999411454017 -76.04668516769674 4.927992770359384
  endloop
endfacet
facet normal -1.0 0.0 0.0
  outer loop
    vertex 133.2999411454017 -74.04668516769674 4.927992770359358
    vertex 133.2999411454017 -76.0466851676967 8.927992770359385
    vertex 133.2999411454017 -74.0466851676967 8.92799277035936
  endloop
endfacet
facet normal 0.0 -1.0 0.0
  outer loop
    vertex 124.03624235404737 -64.79668516769674 2.0000000000000004
    vertex 122.78624235404736 -64.79668516769674 8.81239525796218e-16
    vertex 124.03624235404737 -64.79668516769674 8.81239525796218e-16
  endloop
endfacet
facet normal 0.0 -1.0 0.0
  outer loop
    vertex 122.78624235404736 -64.79668516769674 8.81239525796218e-16
    vertex 124.03624235404737 -64.79668516769674 2.0000000000000004
    vertex 99.03624235404737 -64.79668516769674 8.81239525796218e-16
  endloop
endfacet
facet normal 0.0 -1.0 0.0
  outer loop
    vertex 99.03624235404737 -64.79668516769674 8.81239525796218e-16
    vertex 124.03624235404737 -64.79668516769674 2.0000000000000004
    vertex 99.03624235404737 -64.79668516769674 2.0000000000000004
  endloop
endfacet
facet normal -0.17683743143482683 1.0493317232355758e-14 0.9842400737846092
  outer loop
    vertex 133.2999411454017 -76.04668516769674 4.927992770359384
    vertex 119.78624235404739 -74.04668516769677 2.499999999999973
    vertex 119.78624235404739 -76.04668516769675 2.499999999999998
  endloop
endfacet
facet normal -0.17683743143482683 1.0493317232355758e-14 0.9842400737846092
  outer loop
    vertex 119.78624235404739 -74.04668516769677 2.499999999999973
    vertex 133.2999411454017 -76.04668516769674 4.927992770359384
    vertex 133.2999411454017 -74.04668516769674 4.927992770359358
  endloop
endfacet
facet normal 1.6549099075984834e-18 -1.808257728257175e-16 -1.0
  outer loop
    vertex 90.28624235404737 -39.54668516769673 4.326822861223329e-16
    vertex 99.03624235404737 -51.79668516769673 1.615755923277018e-15
    vertex 90.28624235404737 -76.04668516769674 1.1997338110571858e-15
  endloop
endfacet
facet normal 1.6549099075984834e-18 -1.808257728257175e-16 -1.0
  outer loop
    vertex 99.03624235404737 -51.79668516769673 1.615755923277018e-15
    vertex 90.28624235404737 -39.54668516769673 4.326822861223329e-16
    vertex 143.53624235404737 -39.54668516769676 6.089301912815765e-16
  endloop
endfacet
facet normal 1.6549099075984834e-18 -1.808257728257175e-16 -1.0
  outer loop
    vertex 99.03624235404737 -51.79668516769673 1.615755923277018e-15
    vertex 143.53624235404737 -39.54668516769676 6.089301912815765e-16
    vertex 122.78624235404736 -51.79668516769673 1.615755923277018e-15
  endloop
endfacet
facet normal 1.6549099075984834e-18 -1.808257728257175e-16 -1.0
  outer loop
    vertex 122.78624235404736 -51.79668516769673 1.615755923277018e-15
    vertex 143.53624235404737 -39.54668516769676 6.089301912815765e-16
    vertex 124.03624235404737 -51.79668516769676 1.615755923277018e-15
  endloop
endfacet
facet normal 1.6549099075984834e-18 -1.808257728257175e-16 -1.0
  outer loop
    vertex 124.03624235404737 -51.79668516769676 1.615755923277018e-15
    vertex 143.53624235404737 -39.54668516769676 6.089301912815765e-16
    vertex 124.03624235404737 -64.79668516769674 8.81239525796218e-16
  endloop
endfacet
facet normal 1.6549099075984834e-18 -1.808257728257175e-16 -1.0
  outer loop
    vertex 124.03624235404737 -64.79668516769674 8.81239525796218e-16
    vertex 143.53624235404737 -39.54668516769676 6.089301912815765e-16
    vertex 143.53624235404735 -76.04668516769674 1.1997338110571858e-15
  endloop
endfacet
facet normal 1.6549099075984834e-18 -1.808257728257175e-16 -1.0
  outer loop
    vertex 90.28624235404737 -76.04668516769674 1.1997338110571858e-15
    vertex 99.03624235404737 -64.79668516769674 8.81239525796218e-16
    vertex 143.53624235404735 -76.04668516769674 1.1997338110571858e-15
  endloop
endfacet
facet normal 1.6549099075984834e-18 -1.808257728257175e-16 -1.0
  outer loop
    vertex 99.03624235404737 -64.79668516769674 8.81239525796218e-16
    vertex 90.28624235404737 -76.04668516769674 1.1997338110571858e-15
    vertex 99.03624235404737 -51.79668516769673 1.615755923277018e-15
  endloop
endfacet
facet normal 1.6549099075984834e-18 -1.808257728257175e-16 -1.0
  outer loop
    vertex 143.53624235404735 -76.04668516769674 1.1997338110571858e-15
    vertex 99.03624235404737 -64.79668516769674 8.81239525796218e-16
    vertex 122.78624235404736 -64.79668516769674 8.81239525796218e-16
  endloop
endfacet
facet normal 1.6549099075984834e-18 -1.808257728257175e-16 -1.0
  outer loop
    vertex 143.53624235404735 -76.04668516769674 1.1997338110571858e-15
    vertex 122.78624235404736 -64.79668516769674 8.81239525796218e-16
    vertex 124.03624235404737 -64.79668516769674 8.81239525796218e-16
  endloop
endfacet
facet normal 3.1477262515457198e-16 1.0 2.7230933451464145e-16
  outer loop
    vertex 90.28624235404737 -39.54668516769673 4.326822861223329e-16
    vertex 116.7862423540474 -39.54668516769675 2.5000000000000044
    vertex 143.53624235404737 -39.54668516769676 6.089301912815765e-16
  endloop
endfacet
facet normal 3.1477262515457198e-16 1.0 2.7230933451464145e-16
  outer loop
    vertex 116.7862423540474 -39.54668516769675 2.5000000000000044
    vertex 90.28624235404737 -39.54668516769673 4.326822861223329e-16
    vertex 115.88037569618858 -39.54668516769675 2.6192596079882655
  endloop
endfacet
facet normal 3.1477262515457198e-16 1.0 2.7230933451464145e-16
  outer loop
    vertex 115.88037569618858 -39.54668516769675 2.6192596079882655
    vertex 90.28624235404737 -39.54668516769673 4.326822861223329e-16
    vertex 90.28624235404736 -39.54668516769674 10.427992770359394
  endloop
endfacet
facet normal 3.1477262515457198e-16 1.0 2.7230933451464145e-16
  outer loop
    vertex 115.88037569618858 -39.54668516769675 2.6192596079882655
    vertex 90.28624235404736 -39.54668516769674 10.427992770359394
    vertex 115.03624235404739 -39.54668516769675 2.968911086754469
  endloop
endfacet
facet normal 3.1477262515457198e-16 1.0 2.7230933451464145e-16
  outer loop
    vertex 115.03624235404739 -39.54668516769675 2.968911086754469
    vertex 90.28624235404736 -39.54668516769674 10.427992770359394
    vertex 114.31136861989448 -39.54668516769675 3.5251262658470877
  endloop
endfacet
facet normal 3.1477262515457198e-16 1.0 2.7230933451464145e-16
  outer loop
    vertex 114.31136861989448 -39.54668516769675 3.5251262658470877
    vertex 90.28624235404736 -39.54668516769674 10.427992770359394
    vertex 113.75515344080186 -39.54668516769675 4.250000000000004
  endloop
endfacet
facet normal 3.1477262515457198e-16 1.0 2.7230933451464145e-16
  outer loop
    vertex 113.75515344080186 -39.54668516769675 4.250000000000004
    vertex 90.28624235404736 -39.54668516769674 10.427992770359394
    vertex 113.40550196203566 -39.54668516769675 5.094133342141181
  endloop
endfacet
facet normal 3.1477262515457198e-16 1.0 2.7230933451464145e-16
  outer loop
    vertex 113.40550196203566 -39.54668516769675 5.094133342141181
    vertex 90.28624235404736 -39.54668516769674 10.427992770359394
    vertex 113.2862423540474 -39.54668516769675 6.000000000000004
  endloop
endfacet
facet normal 3.1477262515457198e-16 1.0 2.7230933451464145e-16
  outer loop
    vertex 113.2862423540474 -39.54668516769675 6.000000000000004
    vertex 90.28624235404736 -39.54668516769674 10.427992770359394
    vertex 113.2862423540474 -39.54668516769675 10.42799277035939
  endloop
endfacet
facet normal 3.1477262515457198e-16 1.0 2.7230933451464145e-16
  outer loop
    vertex 143.53624235404737 -39.54668516769676 6.089301912815765e-16
    vertex 117.69210901190623 -39.54668516769675 2.619259607988266
    vertex 143.53624235404737 -39.54668516769675 10.427992770359385
  endloop
endfacet
facet normal 3.1477262515457198e-16 1.0 2.7230933451464145e-16
  outer loop
    vertex 117.69210901190623 -39.54668516769675 2.619259607988266
    vertex 143.53624235404737 -39.54668516769676 6.089301912815765e-16
    vertex 116.7862423540474 -39.54668516769675 2.5000000000000044
  endloop
endfacet
facet normal 3.1477262515457198e-16 1.0 2.7230933451464145e-16
  outer loop
    vertex 143.53624235404737 -39.54668516769675 10.427992770359385
    vertex 117.69210901190623 -39.54668516769675 2.619259607988266
    vertex 118.5362423540474 -39.54668516769675 2.9689110867544697
  endloop
endfacet
facet normal 3.1477262515457198e-16 1.0 2.7230933451464145e-16
  outer loop
    vertex 143.53624235404737 -39.54668516769675 10.427992770359385
    vertex 118.5362423540474 -39.54668516769675 2.9689110867544697
    vertex 119.26111608820032 -39.54668516769675 3.5251262658470885
  endloop
endfacet
facet normal 3.1477262515457198e-16 1.0 2.7230933451464145e-16
  outer loop
    vertex 143.53624235404737 -39.54668516769675 10.427992770359385
    vertex 119.26111608820032 -39.54668516769675 3.5251262658470885
    vertex 119.81733126729294 -39.54668516769675 4.250000000000007
  endloop
endfacet
facet normal 3.1477262515457198e-16 1.0 2.7230933451464145e-16
  outer loop
    vertex 143.53624235404737 -39.54668516769675 10.427992770359385
    vertex 119.81733126729294 -39.54668516769675 4.250000000000007
    vertex 120.16698274605915 -39.54668516769675 5.094133342141183
  endloop
endfacet
facet normal 3.1477262515457198e-16 1.0 2.7230933451464145e-16
  outer loop
    vertex 143.53624235404737 -39.54668516769675 10.427992770359385
    vertex 120.16698274605915 -39.54668516769675 5.094133342141183
    vertex 120.28624235404739 -39.54668516769675 6.000000000000005
  endloop
endfacet
facet normal 3.1477262515457198e-16 1.0 2.7230933451464145e-16
  outer loop
    vertex 143.53624235404737 -39.54668516769675 10.427992770359385
    vertex 120.28624235404739 -39.54668516769675 6.000000000000005
    vertex 120.28624235404739 -39.54668516769675 10.42799277035939
  endloop
endfacet
facet normal 1.762479051592439e-15 7.931155732165976e-15 1.0
  outer loop
    vertex 119.78624235404739 -76.04668516769675 2.499999999999998
    vertex 116.7862423540474 -74.04668516769677 2.4999999999999836
    vertex 116.7862423540474 -76.04668516769675 2.499999999999998
  endloop
endfacet
facet normal 1.762479051592439e-15 7.931155732165976e-15 1.0
  outer loop
    vertex 116.7862423540474 -74.04668516769677 2.4999999999999836
    vertex 119.78624235404739 -76.04668516769675 2.499999999999998
    vertex 119.78624235404739 -74.04668516769677 2.499999999999973
  endloop
endfacet
facet normal 0.38268343236508695 0.0 0.923879532511288
  outer loop
    vertex 115.88037569618858 -42.546685167696744 2.6192596079882655
    vertex 115.03624235404739 -39.54668516769675 2.968911086754469
    vertex 115.03624235404739 -42.546685167696744 2.9689110867544692
  endloop
endfacet
facet normal 0.38268343236508695 0.0 0.923879532511288
  outer loop
    vertex 115.03624235404739 -39.54668516769675 2.968911086754469
    vertex 115.88037569618858 -42.546685167696744 2.6192596079882655
    vertex 115.88037569618858 -39.54668516769675 2.6192596079882655
  endloop
endfacet
facet normal 0.9914448613738124 0.0 0.13052619222003647
  outer loop
    vertex 113.40550196203566 -39.54668516769675 5.094133342141181
    vertex 113.2862423540474 -42.546685167696744 6.000000000000004
    vertex 113.40550196203566 -42.546685167696744 5.094133342141181
  endloop
endfacet
facet normal 0.9914448613738124 0.0 0.13052619222003647
  outer loop
    vertex 113.2862423540474 -42.546685167696744 6.000000000000004
    vertex 113.40550196203566 -39.54668516769675 5.094133342141181
    vertex 113.2862423540474 -39.54668516769675 6.000000000000004
  endloop
endfacet
facet normal 0.793353340291236 0.0 0.6087614290087195
  outer loop
    vertex 114.31136861989448 -39.54668516769675 3.5251262658470877
    vertex 113.75515344080186 -42.546685167696744 4.250000000000004
    vertex 114.31136861989448 -42.546685167696744 3.5251262658470877
  endloop
endfacet
facet normal 0.793353340291236 0.0 0.6087614290087195
  outer loop
    vertex 113.75515344080186 -42.546685167696744 4.250000000000004
    vertex 114.31136861989448 -39.54668516769675 3.5251262658470877
    vertex 113.75515344080186 -39.54668516769675 4.250000000000004
  endloop
endfacet
facet normal 0.9238795325112857 0.0 0.3826834323650927
  outer loop
    vertex 113.75515344080186 -39.54668516769675 4.250000000000004
    vertex 113.40550196203566 -42.546685167696744 5.094133342141181
    vertex 113.75515344080186 -42.546685167696744 4.250000000000004
  endloop
endfacet
facet normal 0.9238795325112857 0.0 0.3826834323650927
  outer loop
    vertex 113.40550196203566 -42.546685167696744 5.094133342141181
    vertex 113.75515344080186 -39.54668516769675 4.250000000000004
    vertex 113.40550196203566 -39.54668516769675 5.094133342141181
  endloop
endfacet
facet normal -0.6087614290087211 -0.0 0.7933533402912348
  outer loop
    vertex 119.26111608820032 -42.546685167696744 3.5251262658470885
    vertex 118.5362423540474 -39.54668516769675 2.9689110867544697
    vertex 118.5362423540474 -42.546685167696744 2.96891108675447
  endloop
endfacet
facet normal -0.6087614290087211 -0.0 0.7933533402912348
  outer loop
    vertex 118.5362423540474 -39.54668516769675 2.9689110867544697
    vertex 119.26111608820032 -42.546685167696744 3.5251262658470885
    vertex 119.26111608820032 -39.54668516769675 3.5251262658470885
  endloop
endfacet
facet normal -0.13052619222005232 -0.0 0.9914448613738105
  outer loop
    vertex 117.69210901190623 -42.546685167696744 2.6192596079882664
    vertex 116.7862423540474 -39.54668516769675 2.5000000000000044
    vertex 116.7862423540474 -42.546685167696744 2.5000000000000044
  endloop
endfacet
facet normal -0.13052619222005232 -0.0 0.9914448613738105
  outer loop
    vertex 116.7862423540474 -39.54668516769675 2.5000000000000044
    vertex 117.69210901190623 -42.546685167696744 2.6192596079882664
    vertex 117.69210901190623 -39.54668516769675 2.619259607988266
  endloop
endfacet
facet normal -0.9914448613738124 -0.0 0.13052619222003667
  outer loop
    vertex 120.28624235404739 -39.54668516769675 6.000000000000005
    vertex 120.16698274605915 -42.546685167696744 5.094133342141183
    vertex 120.28624235404739 -42.546685167696744 6.000000000000005
  endloop
endfacet
facet normal -0.9914448613738124 -0.0 0.13052619222003667
  outer loop
    vertex 120.16698274605915 -42.546685167696744 5.094133342141183
    vertex 120.28624235404739 -39.54668516769675 6.000000000000005
    vertex 120.16698274605915 -39.54668516769675 5.094133342141183
  endloop
endfacet
facet normal -0.38268343236508734 -0.0 0.923879532511288
  outer loop
    vertex 118.5362423540474 -42.546685167696744 2.96891108675447
    vertex 117.69210901190623 -39.54668516769675 2.619259607988266
    vertex 117.69210901190623 -42.546685167696744 2.6192596079882664
  endloop
endfacet
facet normal -0.38268343236508734 -0.0 0.923879532511288
  outer loop
    vertex 117.69210901190623 -39.54668516769675 2.619259607988266
    vertex 118.5362423540474 -42.546685167696744 2.96891108675447
    vertex 118.5362423540474 -39.54668516769675 2.9689110867544697
  endloop
endfacet
facet normal -1.0 0.0 0.0
  outer loop
    vertex 120.28624235404739 -39.54668516769675 10.42799277035939
    vertex 120.28624235404739 -42.546685167696744 6.000000000000005
    vertex 120.28624235404739 -42.546685167696744 10.42799277035939
  endloop
endfacet
facet normal -1.0 0.0 0.0
  outer loop
    vertex 120.28624235404739 -42.546685167696744 6.000000000000005
    vertex 120.28624235404739 -39.54668516769675 10.42799277035939
    vertex 120.28624235404739 -39.54668516769675 6.000000000000005
  endloop
endfacet
facet normal 9.195542877873533e-17 -7.049916206369757e-16 1.0
  outer loop
    vertex 113.2862423540474 -42.546685167696744 10.42799277035939
    vertex 90.28624235404736 -39.54668516769674 10.427992770359394
    vertex 90.28624235404736 -42.54668516769674 10.42799277035939
  endloop
endfacet
facet normal 9.195542877873533e-17 -7.049916206369757e-16 1.0
  outer loop
    vertex 90.28624235404736 -39.54668516769674 10.427992770359394
    vertex 113.2862423540474 -42.546685167696744 10.42799277035939
    vertex 113.2862423540474 -39.54668516769675 10.42799277035939
  endloop
endfacet
facet normal 1.0 -0.0 -0.0
  outer loop
    vertex 113.2862423540474 -39.54668516769675 6.000000000000004
    vertex 113.2862423540474 -42.546685167696744 10.42799277035939
    vertex 113.2862423540474 -42.546685167696744 6.000000000000004
  endloop
endfacet
facet normal 1.0 -0.0 -0.0
  outer loop
    vertex 113.2862423540474 -42.546685167696744 10.42799277035939
    vertex 113.2862423540474 -39.54668516769675 6.000000000000004
    vertex 113.2862423540474 -39.54668516769675 10.42799277035939
  endloop
endfacet
facet normal -3.058459252822355e-16 -1.0 9.97548812427529e-19
  outer loop
    vertex 143.53624235404737 -42.54668516769676 2.0000000000000004
    vertex 116.7862423540474 -42.546685167696744 2.5000000000000044
    vertex 90.28624235404737 -42.54668516769673 2.0000000000000004
  endloop
endfacet
facet normal -3.058459252822355e-16 -1.0 9.97548812427529e-19
  outer loop
    vertex 116.7862423540474 -42.546685167696744 2.5000000000000044
    vertex 143.53624235404737 -42.54668516769676 2.0000000000000004
    vertex 117.69210901190623 -42.546685167696744 2.6192596079882664
  endloop
endfacet
facet normal -3.058459252822355e-16 -1.0 9.97548812427529e-19
  outer loop
    vertex 117.69210901190623 -42.546685167696744 2.6192596079882664
    vertex 143.53624235404737 -42.54668516769676 2.0000000000000004
    vertex 143.53624235404737 -42.54668516769675 10.42799277035939
  endloop
endfacet
facet normal -3.058459252822355e-16 -1.0 9.97548812427529e-19
  outer loop
    vertex 117.69210901190623 -42.546685167696744 2.6192596079882664
    vertex 143.53624235404737 -42.54668516769675 10.42799277035939
    vertex 118.5362423540474 -42.546685167696744 2.96891108675447
  endloop
endfacet
facet normal -3.058459252822355e-16 -1.0 9.97548812427529e-19
  outer loop
    vertex 118.5362423540474 -42.546685167696744 2.96891108675447
    vertex 143.53624235404737 -42.54668516769675 10.42799277035939
    vertex 119.26111608820032 -42.546685167696744 3.5251262658470885
  endloop
endfacet
facet normal -3.058459252822355e-16 -1.0 9.97548812427529e-19
  outer loop
    vertex 119.26111608820032 -42.546685167696744 3.5251262658470885
    vertex 143.53624235404737 -42.54668516769675 10.42799277035939
    vertex 119.81733126729294 -42.546685167696744 4.250000000000007
  endloop
endfacet
facet normal -3.058459252822355e-16 -1.0 9.97548812427529e-19
  outer loop
    vertex 119.81733126729294 -42.546685167696744 4.250000000000007
    vertex 143.53624235404737 -42.54668516769675 10.42799277035939
    vertex 120.16698274605915 -42.546685167696744 5.094133342141183
  endloop
endfacet
facet normal -3.058459252822355e-16 -1.0 9.97548812427529e-19
  outer loop
    vertex 120.16698274605915 -42.546685167696744 5.094133342141183
    vertex 143.53624235404737 -42.54668516769675 10.42799277035939
    vertex 120.28624235404739 -42.546685167696744 6.000000000000005
  endloop
endfacet
facet normal -3.058459252822355e-16 -1.0 9.97548812427529e-19
  outer loop
    vertex 120.28624235404739 -42.546685167696744 6.000000000000005
    vertex 143.53624235404737 -42.54668516769675 10.42799277035939
    vertex 120.28624235404739 -42.546685167696744 10.42799277035939
  endloop
endfacet
facet normal -3.058459252822355e-16 -1.0 9.97548812427529e-19
  outer loop
    vertex 90.28624235404737 -42.54668516769673 2.0000000000000004
    vertex 115.88037569618858 -42.546685167696744 2.6192596079882655
    vertex 90.28624235404736 -42.54668516769674 10.42799277035939
  endloop
endfacet
facet normal -3.058459252822355e-16 -1.0 9.97548812427529e-19
  outer loop
    vertex 115.88037569618858 -42.546685167696744 2.6192596079882655
    vertex 90.28624235404737 -42.54668516769673 2.0000000000000004
    vertex 116.7862423540474 -42.546685167696744 2.5000000000000044
  endloop
endfacet
facet normal -3.058459252822355e-16 -1.0 9.97548812427529e-19
  outer loop
    vertex 90.28624235404736 -42.54668516769674 10.42799277035939
    vertex 115.88037569618858 -42.546685167696744 2.6192596079882655
    vertex 115.03624235404739 -42.546685167696744 2.9689110867544692
  endloop
endfacet
facet normal -3.058459252822355e-16 -1.0 9.97548812427529e-19
  outer loop
    vertex 90.28624235404736 -42.54668516769674 10.42799277035939
    vertex 115.03624235404739 -42.546685167696744 2.9689110867544692
    vertex 114.31136861989448 -42.546685167696744 3.5251262658470877
  endloop
endfacet
facet normal -3.058459252822355e-16 -1.0 9.97548812427529e-19
  outer loop
    vertex 90.28624235404736 -42.54668516769674 10.42799277035939
    vertex 114.31136861989448 -42.546685167696744 3.5251262658470877
    vertex 113.75515344080186 -42.546685167696744 4.250000000000004
  endloop
endfacet
facet normal -3.058459252822355e-16 -1.0 9.97548812427529e-19
  outer loop
    vertex 90.28624235404736 -42.54668516769674 10.42799277035939
    vertex 113.75515344080186 -42.546685167696744 4.250000000000004
    vertex 113.40550196203566 -42.546685167696744 5.094133342141181
  endloop
endfacet
facet normal -3.058459252822355e-16 -1.0 9.97548812427529e-19
  outer loop
    vertex 90.28624235404736 -42.54668516769674 10.42799277035939
    vertex 113.40550196203566 -42.546685167696744 5.094133342141181
    vertex 113.2862423540474 -42.546685167696744 6.000000000000004
  endloop
endfacet
facet normal -3.058459252822355e-16 -1.0 9.97548812427529e-19
  outer loop
    vertex 90.28624235404736 -42.54668516769674 10.42799277035939
    vertex 113.2862423540474 -42.546685167696744 6.000000000000004
    vertex 113.2862423540474 -42.546685167696744 10.42799277035939
  endloop
endfacet
facet normal 0.13052619222005155 0.0 0.9914448613738105
  outer loop
    vertex 116.7862423540474 -42.546685167696744 2.5000000000000044
    vertex 115.88037569618858 -39.54668516769675 2.6192596079882655
    vertex 115.88037569618858 -42.546685167696744 2.6192596079882655
  endloop
endfacet
facet normal 0.13052619222005155 0.0 0.9914448613738105
  outer loop
    vertex 115.88037569618858 -39.54668516769675 2.6192596079882655
    vertex 116.7862423540474 -42.546685167696744 2.5000000000000044
    vertex 116.7862423540474 -39.54668516769675 2.5000000000000044
  endloop
endfacet
facet normal -0.9238795325112855 -0.0 0.3826834323650929
  outer loop
    vertex 120.16698274605915 -39.54668516769675 5.094133342141183
    vertex 119.81733126729294 -42.546685167696744 4.250000000000007
    vertex 120.16698274605915 -42.546685167696744 5.094133342141183
  endloop
endfacet
facet normal -0.9238795325112855 -0.0 0.3826834323650929
  outer loop
    vertex 119.81733126729294 -42.546685167696744 4.250000000000007
    vertex 120.16698274605915 -39.54668516769675 5.094133342141183
    vertex 119.81733126729294 -39.54668516769675 4.250000000000007
  endloop
endfacet
facet normal -0.7933533402912369 -0.0 0.6087614290087183
  outer loop
    vertex 119.81733126729294 -39.54668516769675 4.250000000000007
    vertex 119.26111608820032 -42.546685167696744 3.5251262658470885
    vertex 119.81733126729294 -42.546685167696744 4.250000000000007
  endloop
endfacet
facet normal -0.7933533402912369 -0.0 0.6087614290087183
  outer loop
    vertex 119.26111608820032 -42.546685167696744 3.5251262658470885
    vertex 119.81733126729294 -39.54668516769675 4.250000000000007
    vertex 119.26111608820032 -39.54668516769675 3.5251262658470885
  endloop
endfacet
facet normal 0.6087614290087213 0.0 0.7933533402912347
  outer loop
    vertex 115.03624235404739 -42.546685167696744 2.9689110867544692
    vertex 114.31136861989448 -39.54668516769675 3.5251262658470877
    vertex 114.31136861989448 -42.546685167696744 3.5251262658470877
  endloop
endfacet
facet normal 0.6087614290087213 0.0 0.7933533402912347
  outer loop
    vertex 114.31136861989448 -39.54668516769675 3.5251262658470877
    vertex 115.03624235404739 -42.546685167696744 2.9689110867544692
    vertex 115.03624235404739 -39.54668516769675 2.968911086754469
  endloop
endfacet
endsolid Turret
